<svg width="1434" height="1335" xmlns="http://www.w3.org/2000/svg" xmlns:xlink="http://www.w3.org/1999/xlink" xml:space="preserve" overflow="hidden"><defs><clipPath id="clip0"><rect x="996" y="99" width="1434" height="1335"/></clipPath></defs><g clip-path="url(#clip0)" transform="translate(-996 -99)"><path d="M1837.14 99.7172C1994.41 99.6983 2127.25 185.086 2169.89 302.193L2174.27 316.653 2177.12 320.641C2182.11 328.093 2186.93 335.806 2191.56 343.765L2203.83 366.43 2219.55 369.03C2274.84 380.685 2324.67 409.051 2361.01 453.935 2378.8 475.919 2392.1 500.304 2401.05 526.153L2407.83 549.84 2410.25 555.018C2434.77 614.741 2436.33 692.273 2409.14 768.583 2393.18 813.361 2369.32 852.121 2340.88 882.646L2324.02 898.886 2318.89 905.642C2291.66 934.37 2247.27 957.567 2194.1 969.168L2184.98 970.586 2182.94 971.238C2170.53 974.329 2157.5 976.728 2143.99 978.353L2103.09 980.773 2094.05 982.177 2081.02 982.639 2080.64 982.898C2079.36 983.439 2077.96 983.738 2076.48 983.737L1915.66 983.698 1914.28 983.42 1853.07 983.427 1830.65 1005.39C1812.49 1020.73 1790.69 1034.72 1766.09 1046.38L1748.54 1053.44 1731.5 1062.47C1692.35 1080.43 1646.38 1090.77 1597.21 1090.78 1525.7 1090.79 1460.96 1068.92 1414.1 1033.56L1399.29 1020.01 1397.15 1018.25 1396.15 1017.14 1382.48 1004.64C1377.83 999.44 1373.5 994.064 1369.51 988.526L1366.45 983.735 1292.38 983.744 1281.82 985.642 1263.9 986.593 1263.66 986.648C1235.05 990.461 1203.3 987.296 1171.89 976.04 1145.72 966.661 1122.88 952.773 1104.55 936.159L1098.57 929.492 1094.47 926.692C1068.29 905.21 1044.34 870.942 1028.8 828.981L1028.55 828.137 1028.43 827.944C1023.59 818.495 1019.18 808.485 1015.3 797.995 1011.41 787.504 1008.24 777.03 1005.76 766.695L1000.78 738.662 1000.09 735.789C996.694 716.092 995.563 694.623 997.141 672.284L1000.44 646.848 1000.48 643.82C1002.84 610.313 1010.97 579.607 1022.93 554.51L1028.99 543.89 1029.91 541.175C1047.29 502.986 1075.1 473.011 1111.99 456.987 1118.14 454.317 1124.39 452.097 1130.73 450.314L1137.81 448.822 1138.1 448.064C1205.93 289.942 1367.5 202.698 1513.27 251.197L1526.86 256.612 1531.88 248.107C1590.68 159.734 1705.33 99.7326 1837.14 99.7172Z" fill="#FFFFFF" fill-rule="evenodd"/><path d="M1228.35 1300.13 1974.76 1286.79C1980.92 1286.68 1986.75 1287.25 1992.01 1288.38L1993.22 1288.81 2010.2 1290.14C2028.03 1292.05 2047.9 1295.05 2065.78 1298.15 2089.91 1303.81 2108.51 1309.1 2121.98 1317.81 2135.45 1326.52 2148.69 1341.26 2149.81 1353.1 2150.92 1364.94 2141.7 1377.93 2128.68 1388.85 2109.65 1400.96 2092.88 1406.67 2064.83 1415.11 2051.85 1418.12 2040.71 1420.52 2030.81 1422.42L2029.19 1422.69 2028.14 1423.01C2019.3 1425 2008.74 1426.78 1997 1428.24L1987.56 1429.04 1981.13 1430.25C1971.26 1431.41 1960.4 1432.05 1948.99 1432.14L1948.41 1432.11 1947.72 1432.24C1932.06 1433.8 1911.53 1433.64 1889.83 1431.38 1878.98 1430.25 1868.86 1428.7 1859.86 1426.88L1852.26 1424.85 1851.25 1424.83C1838.07 1423.34 1822.67 1419.39 1808.17 1413.31 1793.67 1407.23 1782.82 1400.19 1777.01 1393.72L1776.88 1393.49 1772.29 1389.7C1770.91 1387.81 1770.21 1385.72 1770.35 1383.5L1771.32 1367.48 1861.63 1365.87C1865.72 1365.8 1869.59 1366.17 1873.08 1366.92L1881.36 1369.86 1881.5 1369.3C1884.59 1373.17 1889.66 1376.78 1896.17 1379.88L1903.54 1382.76 1915.04 1384.99 1924.42 1385.88 1959.89 1383.41C1994.44 1379.94 2018.05 1373.37 2017.44 1359.01 2016.83 1344.64 1998.23 1337 1966.26 1335.17L1965.97 1335.17 1270.01 1347.61C1245.37 1348.05 1226.07 1337.6 1226.88 1324.27 1227.37 1316.22 1227.86 1308.18 1228.35 1300.13Z" fill="#A7B0BC" fill-rule="evenodd"/><path d="M159.543 1.47212C151.475 250.186 152.24 216.419 144.172 465.132 143.972 471.287 143.109 477.077 141.72 482.275L141.23 483.463 139.047 500.354C136.239 518.067 132.248 537.764 128.248 555.459 121.382 579.275 115.168 597.587 105.792 610.601 96.4172 623.614 81.0315 636.1 69.1498 636.621 57.268 637.141 44.7596 627.271 34.5014 613.721 23.3679 594.11 18.5083 577.071 11.4904 548.635 9.12997 535.514 7.29904 524.271 5.89854 514.291L5.71468 512.657 5.44184 511.591C3.90005 502.662 2.65233 492.03 1.78999 480.224L1.46019 470.763 0.57307 464.273C-0.0830993 454.357-0.181395 443.481 0.306796 432.082 0.324457 431.89 0.342254 431.698 0.359914 431.506L0.266274 430.806C-0.504072 415.094 0.692448 394.595 4.03846 373.035 5.71153 362.255 7.76355 352.23 10.0419 343.332L12.4456 335.84 12.5154 334.835C14.6659 321.744 19.3943 306.56 26.1913 292.387 32.9882 278.214 40.5665 267.734 47.3245 262.249L47.5625 262.138 51.5767 257.744C53.5337 256.459 55.6587 255.866 57.861 256.111L73.8128 257.892 70.8842 348.167C70.7517 352.254 70.179 356.096 69.257 359.547L65.9067 367.668 66.457 367.839C62.4329 370.733 58.5733 375.611 55.1568 381.956L51.9044 389.17 49.1007 400.544 47.7435 409.873 48.4213 445.423C50.1547 480.104 55.5244 504.008 69.901 504.122 84.2777 504.237 92.848 486.044 96.2872 454.202 96.2918 454.109 96.2964 454.015 96.3009 453.921L109.533 34.1908C110.332 9.56856 125.813-1.34894 139.085 0.132583 147.095 1.02713 151.533 0.577573 159.543 1.47212Z" fill="#A7B0BC" fill-rule="evenodd" transform="matrix(-0.0502786 0.998735 0.998735 0.0502786 1445.72 1096.59)"/></g></svg>