<svg width="530" height="533" xmlns="http://www.w3.org/2000/svg" xmlns:xlink="http://www.w3.org/1999/xlink" xml:space="preserve" overflow="hidden"><defs><clipPath id="clip0"><rect x="2316" y="1640" width="530" height="533"/></clipPath></defs><g clip-path="url(#clip0)" transform="translate(-2316 -1640)"><path d="M2523.8 2091.6 2762.66 2092.86C2764.63 2092.87 2766.5 2093.25 2768.2 2093.93L2768.59 2094.18 2774.05 2095.1C2779.78 2096.36 2786.18 2098.23 2791.93 2100.13 2799.73 2103.51 2805.74 2106.62 2810.16 2111.54 2814.57 2116.47 2818.98 2124.69 2819.47 2131.19 2819.97 2137.69 2817.16 2144.7 2813.12 2150.54 2807.16 2156.95 2801.86 2159.88 2792.97 2164.18 2788.85 2165.69 2785.31 2166.87 2782.17 2167.8L2781.65 2167.93 2781.32 2168.09C2778.51 2169.08 2775.15 2169.93 2771.4 2170.6L2768.39 2170.93 2766.34 2171.52C2763.2 2172.04 2759.73 2172.27 2756.08 2172.18L2755.89 2172.16 2755.67 2172.22C2750.68 2172.9 2744.1 2172.57 2737.12 2171.09 2733.64 2170.34 2730.38 2169.38 2727.48 2168.28L2725.02 2167.08 2724.7 2167.06C2720.46 2166.09 2715.48 2163.75 2710.77 2160.25 2706.06 2156.76 2702.5 2152.77 2700.56 2149.16L2700.52 2149.03 2699.01 2146.91C2698.54 2145.85 2698.3 2144.7 2698.31 2143.49L2698.44 2134.73 2727.34 2134.88C2728.65 2134.89 2729.89 2135.14 2731.02 2135.59L2733.7 2137.29 2733.74 2136.99C2734.78 2139.14 2736.44 2141.18 2738.56 2142.95L2740.95 2144.61 2744.66 2145.97 2747.68 2146.56 2759.01 2145.62C2770.03 2144.11 2777.51 2140.79 2777.15 2132.91 2776.79 2125.04 2770.75 2120.63 2760.49 2119.26L2760.4 2119.26 2537.69 2118.08C2529.81 2118.04 2523.5 2112.09 2523.61 2104.8 2523.67 2100.4 2523.74 2096 2523.8 2091.6Z" fill="#A7B0BC" fill-rule="evenodd"/><path d="M87.485 0.470539C83.0608 79.9675 83.4802 69.1745 79.056 148.671 78.9465 150.639 78.4735 152.489 77.7119 154.151L77.4429 154.531 76.2459 159.93C74.7063 165.591 72.5177 171.887 70.3243 177.543 66.5593 185.155 63.1518 191.008 58.0109 195.168 52.87 199.327 44.4333 203.318 37.918 203.485 31.4027 203.651 24.5437 200.496 18.9187 196.165 12.8137 189.897 10.1489 184.451 6.30073 175.362 5.00638 171.168 4.0024 167.574 3.23444 164.384L3.13363 163.862 2.98401 163.521C2.13858 160.667 1.4544 157.269 0.981534 153.495L0.800691 150.471 0.314241 148.397C-0.0455672 145.227-0.0994671 141.751 0.168231 138.107 0.177915 138.046 0.187674 137.985 0.197358 137.923L0.14601 137.7C-0.276406 132.678 0.379701 126.126 2.21447 119.234 3.1319 115.789 4.25712 112.584 5.50642 109.74L6.82449 107.345 6.86278 107.024C8.04197 102.84 10.6348 97.9867 14.3619 93.4564 18.089 88.9261 22.2445 85.5766 25.9502 83.8232L26.0807 83.788 28.2819 82.3833C29.355 81.9728 30.5203 81.783 31.7279 81.8615L40.475 82.4308 38.8691 111.286C38.7964 112.592 38.4824 113.82 37.9768 114.923L36.1397 117.519 36.4414 117.573C34.2348 118.498 32.1185 120.058 30.245 122.086L28.4616 124.391 26.9242 128.027 26.18 131.009 26.5516 142.372C27.5022 153.457 30.4466 161.097 38.33 161.134 46.2134 161.171 50.9129 155.355 52.7988 145.178 52.8013 145.148 52.8038 145.118 52.8063 145.088L60.062 10.9285C60.5 3.05842 68.9893-0.431165 76.2667 0.0423778 80.659 0.328306 83.0927 0.184611 87.485 0.470539Z" fill="#A7B0BC" fill-rule="evenodd" transform="matrix(-0.0502786 0.998735 0.998735 0.0502786 2595.17 1988.91)"/><path d="M2626.58 1640.84C2684.61 1640.83 2733.62 1672.34 2749.36 1715.55L2750.98 1720.88 2752.03 1722.36C2753.87 1725.11 2755.65 1727.95 2757.36 1730.89L2761.89 1739.25 2767.68 1740.21C2788.09 1744.51 2806.47 1754.98 2819.88 1771.54 2826.45 1779.65 2831.35 1788.65 2834.66 1798.19L2837.16 1806.93 2838.05 1808.84C2847.1 1830.88 2847.67 1859.49 2837.64 1887.65 2831.75 1904.17 2822.95 1918.47 2812.46 1929.74L2806.23 1935.73 2804.34 1938.22C2794.29 1948.82 2777.91 1957.38 2758.29 1961.66L2754.93 1962.18 2754.17 1962.43C2749.59 1963.57 2744.79 1964.45 2739.8 1965.05L2724.71 1965.94 2721.38 1966.46 2716.57 1966.63 2716.43 1966.73C2715.95 1966.93 2715.44 1967.04 2714.89 1967.04L2655.55 1967.02 2655.04 1966.92 2632.45 1966.92 2624.18 1975.03C2617.48 1980.69 2609.43 1985.85 2600.36 1990.15L2593.88 1992.76 2587.6 1996.09C2573.15 2002.72 2556.18 2006.53 2538.04 2006.53 2511.65 2006.54 2487.77 1998.47 2470.47 1985.42L2465.01 1980.42 2464.22 1979.77 2463.85 1979.36 2458.81 1974.75C2457.09 1972.83 2455.49 1970.85 2454.02 1968.8L2452.89 1967.04 2425.56 1967.04 2421.66 1967.74 2415.05 1968.09 2414.96 1968.11C2404.4 1969.52 2392.69 1968.35 2381.1 1964.2 2371.44 1960.74 2363.02 1955.61 2356.25 1949.48L2354.04 1947.02 2352.53 1945.99C2342.87 1938.06 2334.03 1925.42 2328.3 1909.93L2328.2 1909.62 2328.16 1909.55C2326.38 1906.06 2324.75 1902.37 2323.32 1898.5 2321.88 1894.63 2320.71 1890.76 2319.8 1886.95L2317.96 1876.61 2317.7 1875.54C2316.45 1868.28 2316.03 1860.35 2316.62 1852.11L2317.83 1842.73 2317.85 1841.61C2318.72 1829.24 2321.72 1817.91 2326.13 1808.65L2328.37 1804.73 2328.71 1803.73C2335.12 1789.64 2345.39 1778.58 2359 1772.67 2361.26 1771.68 2363.57 1770.86 2365.91 1770.21L2368.52 1769.65 2368.63 1769.37C2393.66 1711.03 2453.28 1678.84 2507.07 1696.73L2512.08 1698.73 2513.94 1695.59C2535.63 1662.98 2577.94 1640.84 2626.58 1640.84Z" fill="#FFFFFF" fill-rule="evenodd"/><path d="M2477.36 2026.91C2480.51 2027.57 2483.4 2029.43 2485.29 2032.34 2489.09 2038.16 2487.44 2045.93 2481.62 2049.72L2389.56 2109.71C2383.75 2113.5 2375.97 2111.86 2372.18 2106.05 2368.4 2100.25 2370.04 2092.47 2375.85 2088.67L2467.92 2028.67C2470.82 2026.78 2474.21 2026.25 2477.36 2026.91Z" fill="#A7B0BC" fill-rule="evenodd"/><path d="M2401.33 2010.88C2404.47 2011.54 2407.37 2013.39 2409.26 2016.31L2469.26 2108.37C2473.04 2114.18 2471.4 2121.96 2465.59 2125.75 2459.79 2129.53 2452 2127.89 2448.21 2122.09L2388.22 2030.02C2384.43 2024.21 2386.07 2016.42 2391.88 2012.64 2394.78 2010.75 2398.18 2010.22 2401.33 2010.88Z" fill="#A7B0BC" fill-rule="evenodd"/><path d="M2369.84 2044.14C2369.84 2044.14 2369.84 2044.14 2369.84 2044.14L2492.75 2069.96C2499.54 2071.39 2503.88 2078.08 2502.45 2084.86 2501.01 2091.64 2494.36 2096 2487.57 2094.58 2487.56 2094.57 2487.56 2094.57 2487.56 2094.57L2364.69 2068.6C2357.9 2067.16 2353.54 2060.57 2354.98 2053.78 2356.41 2046.99 2363.06 2042.72 2369.84 2044.14Z" fill="#A7B0BC" fill-rule="evenodd"/><path d="M2444.25 1995.62C2444.25 1995.62 2444.25 1995.62 2444.26 1995.63 2451.04 1997.05 2455.39 2003.64 2453.97 2010.43L2428.04 2133.35C2426.62 2140.14 2419.94 2144.52 2413.16 2143.09 2413.16 2143.09 2413.16 2143.09 2413.16 2143.09 2406.36 2141.66 2402.05 2134.92 2403.47 2128.13L2429.38 2005.28C2430.81 1998.5 2437.46 1994.2 2444.25 1995.62Z" fill="#A7B0BC" fill-rule="evenodd"/></g></svg>