<svg width="795" height="585" viewBox="0 0 795 585" fill="none" xmlns="http://www.w3.org/2000/svg">
<g clip-path="url(#clip0_10_4)">
<mask id="mask0_10_4" style="mask-type:luminance" maskUnits="userSpaceOnUse" x="147" y="0" width="500" height="585">
<path d="M647 0H147V584.559H647V0Z" fill="white"/>
</mask>
<g mask="url(#mask0_10_4)">
<path fill-rule="evenodd" clip-rule="evenodd" d="M419.669 0C426.963 0 434.419 0.315439 441.846 0.974263C449.985 1.65514 457.14 6.99044 460.596 14.8824C464.074 22.7971 463.302 32.1022 458.618 39.2382C431.647 80.3522 417.397 128.724 417.397 179.143C417.397 240.74 438.897 299.537 477.956 344.67C516.787 389.584 569.39 417.009 626.103 421.905C634.221 422.611 641.375 427.921 644.853 435.837C648.309 443.753 647.559 453.058 642.875 460.193C591.794 538.061 508.36 584.559 419.669 584.559C269.316 584.559 147 453.446 147 292.279C147 131.111 269.316 0 419.669 0Z" fill="white"/>
<path fill-rule="evenodd" clip-rule="evenodd" d="M410.706 11.9552C453.338 17.4949 454.404 19.7795 442.14 45.3089C427.882 74.989 404.912 125.793 407.346 182.206C409.875 240.792 431.654 303.63 465.052 344.919C500.463 388.692 564.448 423.802 600.971 426.521C631.132 428.767 651.581 443.057 622.103 471.306C591.985 500.166 524.228 582.188 404.61 572.282C263.618 564.014 149.949 427.563 158.941 274.283C167.926 121.003 280.809 17.3846 410.706 11.9552Z" fill="#A7B0BC"/>
</g>
</g>
<defs>
<clipPath id="clip0_10_4">
<rect width="500" height="584.559" fill="white" transform="translate(147)"/>
</clipPath>
</defs>
</svg>
