<svg width="1670" height="1266" xmlns="http://www.w3.org/2000/svg" xmlns:xlink="http://www.w3.org/1999/xlink" xml:space="preserve" overflow="hidden"><defs><clipPath id="clip0"><rect x="69" y="60" width="1670" height="1266"/></clipPath></defs><g clip-path="url(#clip0)" transform="translate(-69 -60)"><path d="M239.688 485.526C233.111 336.976 347.647 211.245 495.513 204.698 643.378 198.151 768.579 313.268 775.156 461.818 781.733 610.368 667.197 736.099 519.331 742.646 371.465 749.193 246.265 634.076 239.688 485.526Z" fill="#FFDB69" fill-rule="evenodd"/><path d="M770.349 450.107C765.989 457.091 763.744 386.597 745.543 354.7 727.342 322.803 695.132 282.64 661.148 258.724 627.163 234.809 580.142 217.226 541.632 211.205 503.123 205.183 463.19 211.955 430.09 222.597 388.126 236.287 350.612 258.108 333.192 273.691 315.774 289.274 300.52 309.365 286.676 333.676 272.833 357.987 257.264 387.528 250.134 419.555 243.004 451.582 238.814 490.41 247.187 525.931 257.03 573.597 285.405 609.501 305.703 638.317 317.95 648.03 335.382 676.177 371.35 692.314 407.318 708.451 343.866 706.64 331.604 696.953 218.587 607.565 190.972 447.862 267.383 325.444 349.981 193.116 524.838 152.655 657.173 235.257 729.793 280.585 777.526 355.368 788.122 440.385 788.96 447.111 773.658 444.804 770.349 450.107Z" fill="#FFFFFF" fill-rule="evenodd"/><path d="M410.438 197.944C408.285 197.693 406.39 195.227 405.266 190.606L382.934 98.9388C380.679 89.6968 382.356 75.3353 386.679 66.8589 390.993 58.3849 396.327 59.0074 398.574 68.2474L420.905 159.917C423.152 169.158 421.476 183.52 417.161 191.995 415.004 196.232 412.592 198.196 410.438 197.944Z" fill="#FFFFFF" fill-rule="evenodd"/><path d="M152.185 731.156C151.576 729.076 153.107 726.369 156.923 723.531L232.61 667.202C240.24 661.519 254.117 657.459 263.609 658.132 273.095 658.799 274.602 663.952 266.971 669.626L191.282 725.956C183.65 731.631 169.773 735.691 160.286 735.025 155.542 734.692 152.794 733.238 152.185 731.156Z" fill="#FFFFFF" fill-rule="evenodd"/><path d="M616.72 202.555C615.226 200.985 615.346 197.877 617.438 193.607L658.91 108.862C663.089 100.316 673.564 90.3491 682.309 86.5992 691.046 82.8456 694.747 86.7357 690.564 95.2752L649.091 180.022C644.906 188.562 634.431 198.529 625.693 202.283 621.324 204.16 618.215 204.126 616.72 202.555Z" fill="#FFFFFF" fill-rule="evenodd"/><path d="M767.201 319.696C766.845 317.558 768.687 315.053 772.814 312.69L854.67 265.773C862.922 261.04 877.184 258.661 886.528 260.459 895.867 262.25 896.75 267.546 888.498 272.272L806.64 319.189C798.386 323.914 784.124 326.293 774.784 324.502 770.114 323.607 767.558 321.835 767.201 319.696Z" fill="#FFFFFF" fill-rule="evenodd"/><path d="M206.779 491.736C206.049 493.777 203.22 495.068 198.465 495.123L104.123 496.241C94.6105 496.356 80.9953 491.489 73.71 485.369 66.4251 479.257 68.2326 474.201 77.7412 474.092L172.085 472.975C181.595 472.867 195.21 477.734 202.496 483.846 206.139 486.902 207.509 489.694 206.779 491.736Z" fill="#FFFFFF" fill-rule="evenodd"/><path d="M256.459 318.614C254.731 319.923 251.656 319.454 247.647 316.897L168.084 266.188C160.06 261.078 151.331 249.551 148.585 240.441 145.834 231.338 150.114 228.097 158.131 233.211L237.695 283.921C245.713 289.037 254.443 300.563 257.194 309.666 258.57 314.218 258.188 317.304 256.459 318.614Z" fill="#FFFFFF" fill-rule="evenodd"/><path d="M1146.84 330.072C1304.04 330.13 1436.85 415.976 1479.53 533.643L1483.91 548.171 1486.77 552.179C1491.75 559.668 1496.57 567.419 1501.21 575.417L1513.49 598.192 1529.2 600.812C1584.47 612.547 1634.29 641.069 1670.63 686.177 1688.43 708.271 1701.72 732.774 1710.69 758.747L1717.47 782.546 1719.9 787.749C1744.43 847.759 1746.03 925.649 1718.89 1002.3 1702.96 1047.27 1679.13 1086.2 1650.72 1116.85L1633.88 1133.16 1628.75 1139.94C1601.55 1168.79 1557.2 1192.07 1504.06 1203.7L1494.94 1205.12 1492.9 1205.77C1480.49 1208.87 1467.47 1211.28 1453.97 1212.9L1413.09 1215.31 1404.06 1216.72 1391.04 1217.18 1390.65 1217.44C1389.38 1217.98 1387.97 1218.28 1386.5 1218.28L1225.75 1218.16 1224.38 1217.88 1163.19 1217.86 1140.79 1239.91C1122.65 1255.32 1100.87 1269.36 1076.29 1281.06L1058.75 1288.14 1041.72 1297.2C1002.59 1315.23 956.655 1325.6 907.514 1325.58 836.036 1325.55 771.316 1303.55 724.461 1268.01L709.648 1254.39 707.515 1252.62 706.506 1251.5 692.843 1238.94C688.189 1233.71 683.858 1228.31 679.871 1222.75L676.812 1217.93 602.776 1217.9 592.218 1219.81 574.312 1220.75 574.066 1220.81C545.471 1224.62 513.735 1221.43 482.339 1210.11 456.177 1200.67 433.346 1186.71 415.008 1170.01L409.027 1163.31 404.931 1160.49C378.758 1138.9 354.797 1104.46 339.249 1062.3L338.991 1061.45 338.878 1061.26C334.036 1051.76 329.623 1041.7 325.736 1031.16 321.849 1020.62 318.672 1010.1 316.184 999.716L311.194 971.551 310.503 968.664C307.101 948.875 305.96 927.306 307.526 904.866L310.813 879.314 310.847 876.272C313.196 842.612 321.298 811.769 333.249 786.562L339.294 775.896 340.216 773.169C357.566 734.813 385.354 704.713 422.215 688.633 428.359 685.953 434.609 683.726 440.942 681.938L448.021 680.443 448.307 679.682C516.026 520.865 677.479 433.297 823.199 482.092L836.791 487.538 841.802 478.997C900.525 390.245 1015.1 330.024 1146.84 330.072Z" fill="#FFFFFF" fill-rule="evenodd"/></g></svg>