<svg width="1434" height="1184" xmlns="http://www.w3.org/2000/svg" xmlns:xlink="http://www.w3.org/1999/xlink" xml:space="preserve" overflow="hidden"><defs><clipPath id="clip0"><rect x="9" y="20" width="1434" height="1184"/></clipPath></defs><g clip-path="url(#clip0)" transform="translate(-9 -20)"><path d="M764.096 1073.63 703.397 1184.43C693.607 1202.3 671.184 1208.85 653.313 1199.06L620.956 1181.34 681.655 1070.53C691.445 1052.66 713.868 1046.11 731.739 1055.9L764.096 1073.63Z" fill="#5F96CD" fill-rule="evenodd"/><path d="M1129.81 1073.63 1069.12 1184.43C1059.33 1202.3 1036.9 1208.85 1019.03 1199.06L986.674 1181.34 1047.37 1070.53C1057.16 1052.66 1079.59 1046.11 1097.46 1055.9L1129.81 1073.63Z" fill="#5F96CD" fill-rule="evenodd"/><path d="M946.956 1073.63 886.256 1184.43C876.466 1202.3 854.043 1208.85 836.173 1199.06L803.815 1181.34 864.515 1070.53C874.305 1052.66 896.728 1046.11 914.598 1055.9L946.956 1073.63Z" fill="#5F96CD" fill-rule="evenodd"/><path d="M572.781 1073.63 512.082 1184.43C502.292 1202.3 479.869 1208.85 461.998 1199.06L429.641 1181.34 490.34 1070.53C500.13 1052.66 522.553 1046.11 540.424 1055.9L572.781 1073.63Z" fill="#5F96CD" fill-rule="evenodd"/><path d="M389.922 1073.63 329.223 1184.43C319.433 1202.3 297.01 1208.85 279.14 1199.06L246.782 1181.34 307.482 1070.53C317.272 1052.66 339.695 1046.11 357.565 1055.9L389.922 1073.63Z" fill="#5F96CD" fill-rule="evenodd"/><path d="M850.453 20.9218C1007.72 20.9029 1140.56 106.291 1183.21 223.398L1187.58 237.857 1190.43 241.846C1195.42 249.298 1200.24 257.01 1204.87 264.97L1217.15 287.635 1232.86 290.235C1288.15 301.889 1337.99 330.256 1374.32 375.14 1392.11 397.124 1405.41 421.508 1414.37 447.357L1421.14 471.045 1423.57 476.222C1448.08 535.945 1449.64 613.478 1422.45 689.787 1406.49 734.566 1382.63 773.326 1354.2 803.851L1337.33 820.091 1332.2 826.847C1304.97 855.575 1260.59 878.772 1207.42 890.372L1198.29 891.79 1196.25 892.443C1183.84 895.533 1170.81 897.933 1157.3 899.558L1116.4 901.978 1107.37 903.381 1094.33 903.844 1093.95 904.102C1092.67 904.644 1091.27 904.943 1089.8 904.942L928.967 904.902 927.595 904.624 866.379 904.631 843.959 926.593C825.798 941.937 803.998 955.927 779.405 967.589L761.856 974.643 744.815 983.672C705.657 1001.63 659.69 1011.98 610.526 1011.98 539.013 1011.99 474.272 990.123 427.412 954.762L412.599 941.213 410.466 939.456 409.457 938.34 395.793 925.842C391.139 920.645 386.809 915.269 382.823 909.731L379.765 904.94 305.693 904.948 295.129 906.847 277.214 907.798 276.968 907.852C248.357 911.666 216.607 908.5 185.201 897.245 159.031 887.865 136.196 873.978 117.858 857.364L111.877 850.696 107.78 847.896C81.6057 826.414 57.6495 792.146 42.1147 750.186L41.8568 749.341 41.7432 749.148C36.9037 739.699 32.4938 729.69 28.61 719.2 24.7262 708.709 21.5529 698.235 19.0679 687.9L14.0894 659.867 13.4003 656.993C10.006 637.297 8.87512 615.827 10.4524 593.489L13.7539 568.053 13.7894 565.025C16.1553 531.517 24.2772 500.812 36.2458 475.715L42.2987 465.095 43.223 462.379C60.5995 424.191 88.416 394.216 125.302 378.191 131.451 375.521 137.705 373.301 144.042 371.518L151.124 370.027 151.411 369.268C219.24 211.147 380.813 123.902 526.58 172.402L540.175 177.816 545.194 169.312C603.988 80.9382 718.645 20.9371 850.453 20.9218Z" fill="#FFFFFF" fill-rule="evenodd"/></g></svg>