<svg width="1434" height="1183" xmlns="http://www.w3.org/2000/svg" xmlns:xlink="http://www.w3.org/1999/xlink" xml:space="preserve" overflow="hidden"><defs><clipPath id="clip0"><rect x="49" y="52" width="1434" height="1183"/></clipPath></defs><g clip-path="url(#clip0)" transform="translate(-49 -52)"><path d="M890.372 52.8449C1047.64 52.826 1180.48 138.213 1223.13 255.321L1227.5 269.781 1230.35 273.769C1235.34 281.221 1240.16 288.933 1244.79 296.893L1257.07 319.558 1272.78 322.158C1328.07 333.812 1377.9 362.179 1414.24 407.063 1432.03 429.047 1445.33 453.431 1454.29 479.28L1461.06 502.968 1463.49 508.145C1488 567.868 1489.56 645.401 1462.37 721.71 1446.41 766.489 1422.55 805.249 1394.12 835.774L1377.25 852.014 1372.12 858.77C1344.89 887.498 1300.51 910.695 1247.34 922.295L1238.21 923.714 1236.17 924.366C1223.76 927.456 1210.73 929.856 1197.22 931.481L1156.32 933.901 1147.28 935.304 1134.25 935.767 1133.87 936.025C1132.59 936.567 1131.19 936.866 1129.72 936.865L968.885 936.826 967.514 936.547 906.298 936.555 883.879 958.516C865.718 973.86 843.917 987.85 819.324 999.512L801.775 1006.57 784.734 1015.6C745.576 1033.55 699.609 1043.9 650.445 1043.9 578.932 1043.91 514.191 1022.05 467.331 986.685L452.518 973.136 450.385 971.379 449.376 970.263 435.712 957.766C431.058 952.568 426.727 947.192 422.742 941.654L419.684 936.863 345.612 936.871 335.047 938.77 317.133 939.721 316.887 939.776C288.276 943.589 256.526 940.423 225.121 929.168 198.95 919.789 176.115 905.901 157.777 889.287L151.796 882.619 147.699 879.819C121.525 858.337 97.5685 824.07 82.0337 782.109L81.7758 781.264 81.6621 781.071C76.823 771.622 72.4127 761.613 68.5293 751.123 64.6451 740.632 61.4718 730.158 58.9868 719.823L54.0083 691.79 53.3192 688.916C49.9249 669.22 48.7941 647.75 50.3713 625.412L53.6729 599.976 53.7087 596.948C56.0742 563.44 64.1962 532.735 76.1648 507.638L82.2177 497.018 83.142 494.302C100.518 456.114 128.335 426.139 165.221 410.115 171.37 407.444 177.624 405.225 183.961 403.441L191.043 401.95 191.329 401.191C259.159 243.07 420.732 155.825 566.499 204.325L580.094 209.739 585.113 201.235C643.907 112.861 758.564 52.8602 890.372 52.8449Z" fill="#FFFFFF" fill-rule="evenodd"/><path d="M239 1085 538 1085 538 1114C538 1130.02 525.016 1143 509 1143L210 1143 210 1114C210 1097.98 222.984 1085 239 1085Z" fill="#A7B0BC" fill-rule="evenodd"/><path d="M630 1086 1322 1086 1322 1115C1322 1131.02 1309.02 1144 1293 1144L601 1144 601 1115C601 1098.98 613.984 1086 630 1086Z" fill="#A7B0BC" fill-rule="evenodd"/><path d="M988 1177 1287 1177 1287 1206C1287 1222.02 1274.02 1235 1258 1235L959 1235 959 1206C959 1189.98 971.984 1177 988 1177Z" fill="#A7B0BC" fill-rule="evenodd"/><path d="M200 1177 892 1177 892 1206C892 1222.02 879.016 1235 863 1235L171 1235 171 1206C171 1189.98 183.984 1177 200 1177Z" fill="#A7B0BC" fill-rule="evenodd"/></g></svg>