<svg width="530" height="556" xmlns="http://www.w3.org/2000/svg" xmlns:xlink="http://www.w3.org/1999/xlink" xml:space="preserve" overflow="hidden"><defs><clipPath id="clip0"><rect x="1162" y="1638" width="530" height="556"/></clipPath></defs><g clip-path="url(#clip0)" transform="translate(-1162 -1638)"><path d="M1310.12 2178.43C1306.72 2184.52 1296.28 2184.52 1292.88 2178.43L1221.89 2051.21C1218.97 2045.98 1223.57 2040 1230.51 2040L1372.49 2040C1379.43 2040 1384.03 2045.98 1381.11 2051.21L1310.12 2178.43Z" fill="#A7B0BC" fill-rule="evenodd"/><path d="M1474.87 2056.18 1408.52 2177.28C1401.63 2189.87 1385.84 2194.48 1373.25 2187.59L1350.46 2175.1 1416.8 2054C1423.7 2041.42 1439.49 2036.8 1452.08 2043.7L1474.87 2056.18Z" fill="#5F96CD" fill-rule="evenodd"/><path d="M1605.38 1998.14 1505.7 2180.1C1498.8 2192.69 1483.01 2197.3 1470.43 2190.41L1447.64 2177.92 1547.32 1995.96C1554.21 1983.38 1570 1978.76 1582.59 1985.66L1605.38 1998.14Z" fill="#5F96CD" fill-rule="evenodd"/><path d="M1473.17 1638.78C1531.2 1638.78 1580.22 1670.28 1595.95 1713.5L1597.57 1718.83 1598.62 1720.3C1600.46 1723.05 1602.24 1725.9 1603.95 1728.84L1608.48 1737.2 1614.28 1738.16C1634.68 1742.46 1653.07 1752.93 1666.47 1769.49 1673.04 1777.6 1677.95 1786.6 1681.25 1796.14L1683.75 1804.88 1684.65 1806.79C1693.69 1828.83 1694.27 1857.44 1684.23 1885.59 1678.35 1902.12 1669.54 1916.42 1659.05 1927.68L1652.83 1933.68 1650.93 1936.17C1640.88 1946.77 1624.51 1955.33 1604.89 1959.61L1601.52 1960.13 1600.77 1960.37C1596.19 1961.51 1591.38 1962.4 1586.4 1963L1571.3 1963.89 1567.97 1964.41 1563.16 1964.58 1563.02 1964.68C1562.55 1964.88 1562.03 1964.99 1561.49 1964.99L1502.14 1964.97 1501.63 1964.87 1479.05 1964.87 1470.77 1972.97C1464.07 1978.64 1456.03 1983.8 1446.95 1988.1L1440.48 1990.7 1434.19 1994.04C1419.74 2000.66 1402.78 2004.48 1384.64 2004.48 1358.25 2004.49 1334.36 1996.42 1317.07 1983.37L1311.6 1978.37 1310.81 1977.72 1310.44 1977.31 1305.4 1972.7C1303.68 1970.78 1302.08 1968.8 1300.61 1966.75L1299.49 1964.98 1272.15 1964.99 1268.25 1965.69 1261.64 1966.04 1261.55 1966.06C1251 1967.47 1239.28 1966.3 1227.69 1962.15 1218.03 1958.68 1209.61 1953.56 1202.84 1947.43L1200.64 1944.97 1199.12 1943.94C1189.47 1936.01 1180.63 1923.36 1174.89 1907.88L1174.8 1907.57 1174.76 1907.5C1172.97 1904.01 1171.34 1900.32 1169.91 1896.45 1168.48 1892.58 1167.31 1888.71 1166.39 1884.9L1164.55 1874.55 1164.3 1873.49C1163.04 1866.22 1162.63 1858.3 1163.21 1850.06L1164.43 1840.67 1164.44 1839.56C1165.31 1827.19 1168.31 1815.86 1172.73 1806.6L1174.96 1802.68 1175.3 1801.68C1181.71 1787.59 1191.98 1776.53 1205.59 1770.61 1207.86 1769.63 1210.17 1768.81 1212.5 1768.15L1215.12 1767.6 1215.22 1767.32C1240.25 1708.98 1299.87 1676.78 1353.66 1694.68L1358.68 1696.68 1360.53 1693.54C1382.22 1660.93 1424.53 1638.79 1473.17 1638.78Z" fill="#FFFFFF" fill-rule="evenodd"/></g></svg>