<svg width="1433" height="1178" xmlns="http://www.w3.org/2000/svg" xmlns:xlink="http://www.w3.org/1999/xlink" xml:space="preserve" overflow="hidden"><defs><clipPath id="clip0"><rect x="2932" y="20" width="1433" height="1178"/></clipPath></defs><g clip-path="url(#clip0)" transform="translate(-2932 -20)"><path d="M3285.99 1190.27C3282.44 1196.58 3271.56 1196.58 3268.01 1190.27L3193.93 1058.6C3190.89 1053.19 3195.68 1047 3202.92 1047L3351.08 1047C3358.32 1047 3363.11 1053.19 3360.07 1058.6L3285.99 1190.27Z" fill="#A7B0BC" fill-rule="evenodd"/><path d="M3737.9 1066.59 3677.2 1177.39C3667.41 1195.26 3644.98 1201.81 3627.11 1192.02L3594.76 1174.29 3655.46 1063.49C3665.25 1045.62 3687.67 1039.07 3705.54 1048.86L3737.9 1066.59Z" fill="#5F96CD" fill-rule="evenodd"/><path d="M4090.08 1066.2 4029.38 1177C4019.59 1194.87 3997.17 1201.42 3979.3 1191.63L3946.94 1173.91 4007.64 1063.11C4017.43 1045.24 4039.85 1038.69 4057.72 1048.48L4090.08 1066.2Z" fill="#5F96CD" fill-rule="evenodd"/><path d="M3914.03 1067.24 3853.33 1178.05C3843.54 1195.92 3821.12 1202.47 3803.24 1192.68L3770.89 1174.95 3831.59 1064.15C3841.38 1046.28 3863.8 1039.73 3881.67 1049.52L3914.03 1067.24Z" fill="#5F96CD" fill-rule="evenodd"/><path d="M3493.99 1190.27C3490.44 1196.58 3479.56 1196.58 3476.01 1190.27L3401.93 1058.6C3398.89 1053.19 3403.68 1047 3410.92 1047L3559.08 1047C3566.32 1047 3571.11 1053.19 3568.07 1058.6L3493.99 1190.27Z" fill="#A7B0BC" fill-rule="evenodd"/><path d="M3773.05 20.5627C3930.32 20.5438 4063.16 105.932 4105.8 223.039L4110.18 237.498 4113.03 241.486C4118.02 248.939 4122.84 256.651 4127.47 264.611L4139.75 287.275 4155.46 289.875C4210.75 301.53 4260.58 329.897 4296.92 374.781 4314.71 396.765 4328.01 421.149 4336.96 446.998L4343.74 470.686 4346.17 475.863C4370.68 535.586 4372.24 613.119 4345.05 689.428 4329.09 734.206 4305.23 772.967 4276.79 803.492L4259.93 819.732 4254.8 826.487C4227.57 855.216 4183.19 878.413 4130.01 890.013L4120.89 891.431 4118.85 892.084C4106.44 895.174 4093.41 897.573 4079.9 899.199L4039 901.618 4029.96 903.022 4016.93 903.484 4016.55 903.743C4015.27 904.285 4013.87 904.583 4012.4 904.583L3851.57 904.543 3850.19 904.265 3788.98 904.272 3766.56 926.234C3748.4 941.577 3726.6 955.568 3702 967.23L3684.45 974.284 3667.41 983.313C3628.26 1001.27 3582.29 1011.62 3533.12 1011.62 3461.61 1011.63 3396.87 989.764 3350.01 954.403L3335.2 940.854 3333.06 939.097 3332.06 937.98 3318.39 925.483C3313.74 920.285 3309.41 914.91 3305.42 909.372L3302.36 904.581 3228.29 904.589 3217.73 906.488 3199.81 907.439 3199.57 907.493C3170.96 911.306 3139.21 908.141 3107.8 896.886 3081.63 887.506 3058.79 873.619 3040.46 857.005L3034.48 850.337 3030.38 847.537C3004.2 826.055 2980.25 791.787 2964.71 749.827L2964.46 748.982 2964.34 748.789C2959.5 739.34 2955.09 729.331 2951.21 718.841 2947.32 708.35 2944.15 697.876 2941.67 687.541L2936.69 659.508 2936 656.634C2932.6 636.938 2931.47 615.468 2933.05 593.13L2936.35 567.693 2936.39 564.666C2938.75 531.158 2946.88 500.452 2958.84 475.356L2964.9 464.736 2965.82 462.02C2983.2 423.832 3011.01 393.857 3047.9 377.832 3054.05 375.162 3060.3 372.942 3066.64 371.159L3073.72 369.667 3074.01 368.909C3141.84 210.788 3303.41 123.543 3449.18 172.043L3462.77 177.457 3467.79 168.953C3526.59 80.5791 3641.24 20.578 3773.05 20.5627Z" fill="#FFFFFF" fill-rule="evenodd"/></g></svg>