<svg width="530" height="499" xmlns="http://www.w3.org/2000/svg" xmlns:xlink="http://www.w3.org/1999/xlink" xml:space="preserve" overflow="hidden"><defs><clipPath id="clip0"><rect x="598" y="857" width="530" height="499"/></clipPath></defs><g clip-path="url(#clip0)" transform="translate(-598 -857)"><path d="M740.683 1217.71 818.087 1258.1 799.474 1343.4 710.566 1355.73 674.232 1278.05Z" fill="#A7B0BC" fill-rule="evenodd"/><path d="M889.244 1247.6 964.851 1203.94 1026.85 1265.4 989.567 1347.05 904.519 1336.04Z" fill="#A7B0BC" fill-rule="evenodd"/><path d="M909.216 857.858C967.248 857.851 1016.26 889.359 1032 932.571L1033.62 937.907 1034.67 939.379C1036.51 942.128 1038.29 944.974 1040 947.911L1044.53 956.275 1050.32 957.234C1070.73 961.535 1089.11 972.002 1102.52 988.564 1109.09 996.676 1113.99 1005.67 1117.3 1015.21L1119.8 1023.95 1120.69 1025.86C1129.74 1047.9 1130.31 1076.51 1120.28 1104.67 1114.39 1121.19 1105.59 1135.49 1095.1 1146.76L1088.87 1152.75 1086.98 1155.24C1076.93 1165.84 1060.55 1174.4 1040.93 1178.68L1037.57 1179.21 1036.81 1179.45C1032.23 1180.59 1027.43 1181.47 1022.44 1182.07L1007.35 1182.97 1004.02 1183.48 999.207 1183.66 999.066 1183.75C998.595 1183.95 998.077 1184.06 997.533 1184.06L938.187 1184.05 937.681 1183.94 915.092 1183.95 906.82 1192.05C900.118 1197.71 892.074 1202.87 882.999 1207.18L876.524 1209.78 870.235 1213.11C855.786 1219.74 838.825 1223.56 820.683 1223.56 794.295 1223.56 770.406 1215.49 753.114 1202.44L747.648 1197.44 746.861 1196.8 746.489 1196.38 741.447 1191.77C739.73 1189.85 738.132 1187.87 736.661 1185.83L735.532 1184.06 708.2 1184.06 704.302 1184.76 697.691 1185.11 697.601 1185.13C687.043 1186.54 675.328 1185.37 663.739 1181.22 654.082 1177.76 645.656 1172.63 638.889 1166.5L636.682 1164.04 635.17 1163.01C625.512 1155.08 616.672 1142.44 610.94 1126.96L610.845 1126.64 610.803 1126.57C609.017 1123.09 607.39 1119.39 605.957 1115.52 604.524 1111.65 603.353 1107.79 602.436 1103.97L600.599 1093.63 600.344 1092.57C599.092 1085.3 598.675 1077.38 599.257 1069.13L600.475 1059.75 600.488 1058.63C601.361 1046.27 604.358 1034.94 608.775 1025.68L611.008 1021.76 611.349 1020.76C617.761 1006.66 628.025 995.603 641.636 989.69 643.905 988.705 646.213 987.886 648.551 987.228L651.164 986.677 651.27 986.397C676.299 928.051 735.919 895.858 789.707 913.754L794.724 915.752 796.576 912.614C818.271 880.004 860.579 857.864 909.216 857.858Z" fill="#FFFFFF" fill-rule="evenodd"/></g></svg>