<svg width="529" height="561" xmlns="http://www.w3.org/2000/svg" xmlns:xlink="http://www.w3.org/1999/xlink" overflow="hidden"><defs><clipPath id="clip0"><rect x="1178" y="79" width="529" height="561"/></clipPath></defs><g clip-path="url(#clip0)" transform="translate(-1178 -79)"><path d="M1395.76 495.05 1329.41 616.154C1322.52 628.74 1306.73 633.353 1294.14 626.458L1271.35 613.974 1337.7 492.871C1344.59 480.285 1360.38 475.672 1372.97 482.566L1395.76 495.05Z" fill="#5F96CD" fill-rule="evenodd"/><path d="M1559.08 444.488 1459.4 626.447C1452.5 639.033 1436.71 643.647 1424.12 636.752L1401.34 624.268 1501.02 442.309C1507.91 429.723 1523.7 425.109 1536.29 432.004L1559.08 444.488Z" fill="#5F96CD" fill-rule="evenodd"/><path d="M1488.52 79.5164C1546.55 79.5094 1595.57 111.017 1611.3 154.23L1612.92 159.565 1613.97 161.037C1615.81 163.787 1617.59 166.633 1619.3 169.57L1623.83 177.933 1629.63 178.892C1650.03 183.193 1668.42 193.66 1681.82 210.222 1688.39 218.334 1693.3 227.332 1696.6 236.87L1699.1 245.611 1700 247.522C1709.04 269.559 1709.62 298.169 1699.58 326.327 1693.7 342.85 1684.89 357.152 1674.4 368.416L1668.18 374.409 1666.28 376.902C1656.23 387.502 1639.86 396.062 1620.24 400.343L1616.87 400.866 1616.12 401.106C1611.54 402.247 1606.73 403.132 1601.74 403.732L1586.65 404.625 1583.32 405.143 1578.51 405.313 1578.37 405.409C1577.9 405.609 1577.38 405.719 1576.84 405.719L1517.49 405.704 1516.98 405.601 1494.39 405.604 1486.12 413.708C1479.42 419.37 1471.38 424.532 1462.3 428.835L1455.83 431.438 1449.54 434.77C1435.09 441.397 1418.13 445.214 1399.99 445.216 1373.6 445.219 1349.71 437.15 1332.42 424.102L1326.95 419.103 1326.16 418.454 1325.79 418.042 1320.75 413.431C1319.03 411.513 1317.43 409.529 1315.96 407.486L1314.83 405.718 1287.5 405.721 1283.6 406.422 1276.99 406.772 1276.9 406.793C1266.35 408.2 1254.63 407.032 1243.04 402.879 1233.38 399.417 1224.96 394.293 1218.19 388.162L1215.98 385.702 1214.47 384.669C1204.81 376.742 1195.97 364.097 1190.24 348.614L1190.15 348.302 1190.11 348.231C1188.32 344.744 1186.69 341.051 1185.26 337.18 1183.83 333.309 1182.66 329.444 1181.74 325.63L1179.9 315.286 1179.65 314.226C1178.39 306.958 1177.98 299.036 1178.56 290.793L1179.78 281.407 1179.79 280.29C1180.66 267.925 1183.66 256.595 1188.08 247.334L1190.31 243.416 1190.65 242.414C1197.06 228.322 1207.33 217.261 1220.94 211.348 1223.21 210.363 1225.52 209.544 1227.85 208.886L1230.47 208.336 1230.57 208.056C1255.6 149.709 1315.22 117.516 1369.01 135.412L1374.03 137.41 1375.88 134.272C1397.57 101.662 1439.88 79.522 1488.52 79.5164Z" fill="#FFFFFF" fill-rule="evenodd"/></g></svg>