<svg width="530" height="560" xmlns="http://www.w3.org/2000/svg" xmlns:xlink="http://www.w3.org/1999/xlink" xml:space="preserve" overflow="hidden"><defs><clipPath id="clip0"><rect x="1722" y="857" width="530" height="560"/></clipPath></defs><g clip-path="url(#clip0)" transform="translate(-1722 -857)"><path d="M2032.7 857.858C2090.73 857.851 2139.75 889.359 2155.48 932.571L2157.1 937.907 2158.15 939.379C2159.99 942.128 2161.77 944.974 2163.48 947.911L2168.01 956.275 2173.81 957.234C2194.21 961.535 2212.6 972.002 2226 988.564 2232.57 996.676 2237.48 1005.67 2240.78 1015.21L2243.28 1023.95 2244.18 1025.86C2253.22 1047.9 2253.8 1076.51 2243.76 1104.67 2237.88 1121.19 2229.07 1135.49 2218.58 1146.76L2212.36 1152.75 2210.46 1155.24C2200.42 1165.84 2184.04 1174.4 2164.42 1178.68L2161.05 1179.21 2160.3 1179.45C2155.72 1180.59 2150.91 1181.47 2145.93 1182.07L2130.83 1182.97 2127.5 1183.48 2122.69 1183.66 2122.55 1183.75C2122.08 1183.95 2121.56 1184.06 2121.02 1184.06L2061.67 1184.05 2061.16 1183.94 2038.58 1183.95 2030.3 1192.05C2023.6 1197.71 2015.56 1202.87 2006.48 1207.18L2000.01 1209.78 1993.72 1213.11C1979.27 1219.74 1962.31 1223.56 1944.17 1223.56 1917.78 1223.56 1893.89 1215.49 1876.6 1202.44L1871.13 1197.44 1870.34 1196.8 1869.97 1196.38 1864.93 1191.77C1863.21 1189.85 1861.61 1187.87 1860.14 1185.83L1859.02 1184.06 1831.68 1184.06 1827.79 1184.76 1821.17 1185.11 1821.08 1185.13C1810.53 1186.54 1798.81 1185.37 1787.22 1181.22 1777.57 1177.76 1769.14 1172.63 1762.37 1166.5L1760.17 1164.04 1758.65 1163.01C1749 1155.08 1740.16 1142.44 1734.42 1126.96L1734.33 1126.64 1734.29 1126.57C1732.5 1123.09 1730.87 1119.39 1729.44 1115.52 1728.01 1111.65 1726.84 1107.79 1725.92 1103.97L1724.08 1093.63 1723.83 1092.57C1722.58 1085.3 1722.16 1077.38 1722.74 1069.13L1723.96 1059.75 1723.97 1058.63C1724.84 1046.27 1727.84 1034.94 1732.26 1025.68L1734.49 1021.76 1734.83 1020.76C1741.24 1006.66 1751.51 995.603 1765.12 989.69 1767.39 988.705 1769.7 987.886 1772.03 987.228L1774.65 986.677 1774.75 986.397C1799.78 928.051 1859.4 895.858 1913.19 913.754L1918.21 915.752 1920.06 912.614C1941.75 880.004 1984.06 857.864 2032.7 857.858Z" fill="#FFFFFF" fill-rule="evenodd"/><path d="M1920.56 1266.18C1923.71 1266.84 1926.6 1268.7 1928.49 1271.61 1932.29 1277.43 1930.64 1285.2 1924.82 1288.99L1832.76 1348.99C1826.95 1352.77 1819.17 1351.13 1815.39 1345.32 1811.6 1339.52 1813.24 1331.74 1819.05 1327.94L1911.12 1267.94C1914.02 1266.05 1917.41 1265.52 1920.56 1266.18Z" fill="#A7B0BC" fill-rule="evenodd"/><path d="M1844.53 1250.15C1847.67 1250.81 1850.57 1252.67 1852.46 1255.58L1912.46 1347.64C1916.24 1353.46 1914.61 1361.23 1908.79 1365.02 1902.99 1368.8 1895.2 1367.16 1891.41 1361.36L1831.42 1269.29C1827.63 1263.48 1829.27 1255.69 1835.08 1251.91 1837.99 1250.02 1841.38 1249.49 1844.53 1250.15Z" fill="#A7B0BC" fill-rule="evenodd"/><path d="M1813.04 1283.41C1813.04 1283.41 1813.04 1283.41 1813.04 1283.41L1935.95 1309.23C1942.74 1310.66 1947.08 1317.35 1945.65 1324.13 1944.21 1330.91 1937.56 1335.27 1930.78 1333.85 1930.76 1333.84 1930.76 1333.84 1930.76 1333.84L1807.89 1307.87C1801.11 1306.43 1796.74 1299.84 1798.18 1293.05 1799.61 1286.26 1806.26 1281.99 1813.04 1283.41Z" fill="#A7B0BC" fill-rule="evenodd"/><path d="M1887.45 1234.9C1887.45 1234.9 1887.45 1234.9 1887.46 1234.9 1894.24 1236.32 1898.59 1242.91 1897.17 1249.7L1871.25 1372.62C1869.82 1379.41 1863.15 1383.79 1856.36 1382.36 1856.36 1382.36 1856.36 1382.36 1856.36 1382.36 1849.57 1380.93 1845.25 1374.19 1846.68 1367.4L1872.58 1244.55C1874.01 1237.77 1880.66 1233.47 1887.45 1234.9Z" fill="#A7B0BC" fill-rule="evenodd"/><path d="M2086.69 1126.79 2058.02 1260.29 2140.6 1263.14 2032.46 1416.32 2052.16 1285.52 1979.31 1280.92Z" fill="#F1A21B" fill-rule="evenodd"/></g></svg>