<svg width="530" height="575" xmlns="http://www.w3.org/2000/svg" xmlns:xlink="http://www.w3.org/1999/xlink" xml:space="preserve" overflow="hidden"><defs><clipPath id="clip0"><rect x="1730" y="1640" width="530" height="575"/></clipPath></defs><g clip-path="url(#clip0)" transform="translate(-1730 -1640)"><path d="M2040.73 1640.84C2098.77 1640.83 2147.78 1672.34 2163.52 1715.55L2165.13 1720.88 2166.19 1722.36C2168.02 1725.11 2169.8 1727.95 2171.51 1730.89L2176.04 1739.25 2181.84 1740.21C2202.24 1744.51 2220.63 1754.98 2234.04 1771.54 2240.61 1779.65 2245.51 1788.65 2248.82 1798.19L2251.32 1806.93 2252.21 1808.84C2261.26 1830.88 2261.83 1859.49 2251.8 1887.65 2245.91 1904.17 2237.11 1918.47 2226.61 1929.74L2220.39 1935.73 2218.5 1938.22C2208.45 1948.82 2192.07 1957.38 2172.45 1961.66L2169.08 1962.18 2168.33 1962.43C2163.75 1963.57 2158.94 1964.45 2153.96 1965.05L2138.87 1965.94 2135.53 1966.46 2130.72 1966.63 2130.58 1966.73C2130.11 1966.93 2129.59 1967.04 2129.05 1967.04L2069.7 1967.02 2069.2 1966.92 2046.61 1966.92 2038.34 1975.03C2031.64 1980.69 2023.59 1985.85 2014.52 1990.15L2008.04 1992.76 2001.75 1996.09C1987.3 2002.72 1970.34 2006.53 1952.2 2006.53 1925.81 2006.54 1901.92 1998.47 1884.63 1985.42L1879.17 1980.42 1878.38 1979.77 1878.01 1979.36 1872.96 1974.75C1871.25 1972.83 1869.65 1970.85 1868.18 1968.8L1867.05 1967.04 1839.72 1967.04 1835.82 1967.74 1829.21 1968.09 1829.12 1968.11C1818.56 1969.52 1806.85 1968.35 1795.26 1964.2 1785.6 1960.74 1777.17 1955.61 1770.41 1949.48L1768.2 1947.02 1766.69 1945.99C1757.03 1938.06 1748.19 1925.42 1742.46 1909.93L1742.36 1909.62 1742.32 1909.55C1740.53 1906.06 1738.91 1902.37 1737.47 1898.5 1736.04 1894.63 1734.87 1890.76 1733.95 1886.95L1732.12 1876.61 1731.86 1875.54C1730.61 1868.28 1730.19 1860.35 1730.77 1852.11L1731.99 1842.73 1732.01 1841.61C1732.88 1829.24 1735.88 1817.91 1740.29 1808.65L1742.53 1804.73 1742.87 1803.73C1749.28 1789.64 1759.54 1778.58 1773.15 1772.67 1775.42 1771.68 1777.73 1770.86 1780.07 1770.21L1782.68 1769.65 1782.79 1769.37C1807.82 1711.03 1867.44 1678.84 1921.22 1696.73L1926.24 1698.73 1928.09 1695.59C1949.79 1662.98 1992.1 1640.84 2040.73 1640.84Z" fill="#FFFFFF" fill-rule="evenodd"/><path d="M2162.23 2006.39 2058.35 2196.01C2051.46 2208.6 2035.67 2213.21 2023.08 2206.32L2000.29 2193.83 2104.17 2004.21C2111.07 1991.63 2126.86 1987.01 2139.44 1993.91L2162.23 2006.39Z" fill="#5F96CD" fill-rule="evenodd"/><path d="M2035.56 2046.56 1969.22 2167.66C1962.33 2180.25 1946.53 2184.86 1933.95 2177.96L1911.16 2165.48 1977.5 2044.38C1984.4 2031.79 2000.19 2027.18 2012.78 2034.07L2035.56 2046.56Z" fill="#5F96CD" fill-rule="evenodd"/><path d="M1883.26 1924.66 1854.6 2058.17 1937.18 2061.02 1829.04 2214.19 1848.73 2083.4 1775.89 2078.79Z" fill="#F1A21B" fill-rule="evenodd"/></g></svg>