<svg width="1434" height="1351" xmlns="http://www.w3.org/2000/svg" xmlns:xlink="http://www.w3.org/1999/xlink" xml:space="preserve" overflow="hidden"><defs><clipPath id="clip0"><rect x="1474" y="52" width="1434" height="1351"/></clipPath></defs><g clip-path="url(#clip0)" transform="translate(-1474 -52)"><path d="M2315.35 52.8452C2472.62 52.8263 2605.45 138.214 2648.1 255.321L2652.48 269.781 2655.33 273.769C2660.31 281.221 2665.13 288.934 2669.77 296.893L2682.04 319.558 2697.76 322.158C2753.05 333.813 2802.88 362.179 2839.21 407.063 2857.01 429.047 2870.3 453.432 2879.26 479.281L2886.03 502.968 2888.46 508.146C2912.97 567.869 2914.53 645.401 2887.34 721.711 2871.39 766.489 2847.53 805.249 2819.09 835.774L2802.23 852.014 2797.1 858.77C2769.86 887.498 2725.48 910.695 2672.31 922.296L2663.18 923.714 2661.14 924.366C2648.73 927.457 2635.7 929.856 2622.2 931.481L2581.3 933.901 2572.26 935.305 2559.23 935.767 2558.85 936.026C2557.57 936.567 2556.16 936.866 2554.69 936.866L2393.86 936.826 2392.49 936.548 2331.27 936.555 2308.85 958.517C2290.69 973.86 2268.89 987.85 2244.3 999.513L2226.75 1006.57 2209.71 1015.6C2170.55 1033.55 2124.58 1043.9 2075.42 1043.9 2003.91 1043.91 1939.17 1022.05 1892.31 986.685L1877.49 973.137 1875.36 971.38 1874.35 970.263 1860.69 957.766C1856.03 952.568 1851.7 947.192 1847.72 941.654L1844.66 936.863 1770.59 936.872 1760.02 938.77 1742.11 939.721 1741.86 939.776C1713.25 943.589 1681.5 940.424 1650.1 929.169 1623.93 919.789 1601.09 905.901 1582.75 889.287L1576.77 882.62 1572.67 879.82C1546.5 858.338 1522.54 824.07 1507.01 782.109L1506.75 781.265 1506.64 781.072C1501.8 771.623 1497.39 761.613 1493.5 751.123 1489.62 740.633 1486.45 730.158 1483.96 719.823L1478.98 691.79 1478.29 688.917C1474.9 669.22 1473.77 647.751 1475.35 625.412L1478.65 599.976 1478.68 596.949C1481.05 563.441 1489.17 532.735 1501.14 507.638L1507.19 497.018 1508.12 494.303C1525.49 456.114 1553.31 426.139 1590.2 410.115 1596.35 407.445 1602.6 405.225 1608.94 403.442L1616.02 401.95 1616.31 401.192C1684.13 243.07 1845.71 155.826 1991.47 204.325L2005.07 209.74 2010.09 201.235C2068.88 112.862 2183.54 52.8606 2315.35 52.8452Z" fill="#FFFFFF" fill-rule="evenodd"/><path d="M2094.62 1250.7 2596.63 1249.67C2600.78 1249.66 2604.7 1250.32 2608.26 1251.54L2609.09 1251.99 2620.53 1253.59C2632.56 1255.8 2645.98 1259.12 2658.06 1262.52 2674.39 1268.57 2686.99 1274.16 2696.2 1283.08 2705.41 1292.01 2714.56 1306.95 2715.51 1318.8 2716.45 1330.65 2710.46 1343.47 2701.88 1354.18 2689.28 1365.96 2678.08 1371.39 2659.35 1379.36 2650.66 1382.16 2643.21 1384.37 2636.58 1386.1L2635.49 1386.34 2634.79 1386.65C2628.88 1388.49 2621.8 1390.1 2613.92 1391.36L2607.59 1392.01 2603.28 1393.11C2596.66 1394.1 2589.36 1394.57 2581.68 1394.47L2581.3 1394.43 2580.83 1394.55C2570.32 1395.85 2556.51 1395.35 2541.87 1392.73 2534.55 1391.43 2527.71 1389.72 2521.63 1387.74L2516.48 1385.6 2515.8 1385.56C2506.91 1383.85 2496.48 1379.64 2486.62 1373.34 2476.77 1367.03 2469.35 1359.81 2465.33 1353.25L2465.25 1353.01 2462.09 1349.15C2461.13 1347.24 2460.63 1345.14 2460.68 1342.93L2461.08 1326.94 2521.81 1326.81C2524.56 1326.81 2527.17 1327.25 2529.53 1328.05L2535.15 1331.13 2535.24 1330.57C2537.39 1334.49 2540.85 1338.18 2545.28 1341.38L2550.29 1344.38 2558.06 1346.8 2564.39 1347.84 2588.22 1345.96C2611.41 1343.06 2627.18 1336.89 2626.54 1322.53 2625.89 1308.16 2613.25 1300.22 2591.71 1297.86L2591.52 1297.86 2123.43 1298.82C2106.86 1298.86 2093.7 1288.1 2094.03 1274.79 2094.22 1266.76 2094.42 1258.73 2094.62 1250.7Z" fill="#A7B0BC" fill-rule="evenodd"/><path d="M159.543 0.989321C151.475 168.134 152.24 145.441 144.172 312.586 143.972 316.722 143.109 320.613 141.72 324.106L141.23 324.905 139.047 336.256C136.239 348.16 132.248 361.397 128.248 373.288 121.382 389.294 115.168 401.6 105.792 410.346 96.4172 419.091 81.0315 427.482 69.1498 427.832 57.268 428.182 44.7596 421.548 34.5014 412.443 23.3679 399.263 18.5083 387.812 11.4904 368.702 9.12997 359.885 7.29904 352.329 5.89854 345.622L5.71468 344.524 5.44184 343.808C3.90005 337.807 2.65233 330.662 1.78999 322.728L1.46019 316.37 0.57307 312.008C-0.0830993 305.344-0.181395 298.035 0.306796 290.375 0.324457 290.246 0.342254 290.117 0.359914 289.988L0.266274 289.517C-0.504072 278.958 0.692448 265.182 4.03846 250.693 5.71153 243.449 7.76355 236.711 10.0419 230.731L12.4456 225.696 12.5154 225.021C14.6659 216.223 19.3943 206.02 26.1913 196.495 32.9882 186.97 40.5665 179.927 47.3245 176.24L47.5625 176.166 51.5767 173.213C53.5337 172.35 55.6587 171.951 57.861 172.116L73.8128 173.313 70.8842 233.981C70.7517 236.727 70.179 239.31 69.257 241.629L65.9067 247.086 66.457 247.201C62.4329 249.146 58.5733 252.424 55.1568 256.688L51.9044 261.536 49.1007 269.18 47.7435 275.449 48.4213 299.34C50.1547 322.648 55.5244 338.711 69.901 338.788 84.2777 338.865 92.848 326.639 96.2872 305.24 96.2918 305.177 96.2964 305.115 96.3009 305.052L109.533 22.9775C110.332 6.43042 125.813-0.906536 139.085 0.0891003 147.095 0.690272 151.533 0.38815 159.543 0.989321Z" fill="#A7B0BC" fill-rule="evenodd" transform="matrix(-0.0502786 0.998735 0.998735 0.0502786 2243.41 1059.95)"/><path d="M1858.59 1371.17C1855.45 1370.51 1852.55 1368.66 1850.66 1365.74 1846.87 1359.93 1848.52 1352.15 1854.33 1348.37L1946.39 1288.37C1952.21 1284.58 1959.99 1286.22 1963.77 1292.03 1967.55 1297.84 1965.92 1305.62 1960.1 1309.41L1868.04 1369.41C1865.14 1371.3 1861.74 1371.83 1858.59 1371.17Z" fill="#A7B0BC" fill-rule="evenodd"/><path d="M1934.63 1387.2C1931.48 1386.54 1928.58 1384.69 1926.69 1381.77L1866.69 1289.71C1862.91 1283.9 1864.55 1276.12 1870.36 1272.34 1876.16 1268.55 1883.96 1270.19 1887.74 1275.99L1947.74 1368.07C1951.52 1373.87 1949.88 1381.66 1944.07 1385.44 1941.17 1387.33 1937.77 1387.86 1934.63 1387.2Z" fill="#A7B0BC" fill-rule="evenodd"/><path d="M1966.11 1353.94C1966.11 1353.94 1966.11 1353.94 1966.11 1353.94L1843.2 1328.12C1836.42 1326.69 1832.07 1320.01 1833.5 1313.22 1834.94 1306.44 1841.59 1302.08 1848.38 1303.5 1848.39 1303.51 1848.39 1303.51 1848.39 1303.51L1971.27 1329.48C1978.05 1330.92 1982.41 1337.51 1980.97 1344.31 1979.54 1351.09 1972.89 1355.36 1966.11 1353.94Z" fill="#A7B0BC" fill-rule="evenodd"/><path d="M1891.71 1402.46C1891.71 1402.46 1891.71 1402.46 1891.7 1402.45 1884.91 1401.03 1880.56 1394.44 1881.99 1387.66L1907.91 1264.73C1909.34 1257.95 1916.01 1253.56 1922.79 1254.99 1922.79 1254.99 1922.79 1254.99 1922.79 1254.99 1929.59 1256.42 1933.91 1263.17 1932.48 1269.95L1906.57 1392.8C1905.15 1399.59 1898.49 1403.88 1891.71 1402.46Z" fill="#A7B0BC" fill-rule="evenodd"/><path d="M2039.88 1105.68C2043.02 1106.35 2045.92 1108.2 2047.81 1111.11 2051.6 1116.93 2049.95 1124.71 2044.14 1128.49L1952.08 1188.49C1946.26 1192.27 1938.48 1190.63 1934.7 1184.82 1930.92 1179.02 1932.55 1171.24 1938.37 1167.44L2030.43 1107.45C2033.33 1105.55 2036.73 1105.02 2039.88 1105.68Z" fill="#A7B0BC" fill-rule="evenodd"/><path d="M1963.84 1089.65C1966.99 1090.31 1969.89 1092.17 1971.78 1095.08L2031.78 1187.14C2035.56 1192.96 2033.92 1200.74 2028.11 1204.52 2022.31 1208.3 2014.52 1206.67 2010.73 1200.86L1950.73 1108.79C1946.95 1102.99 1948.59 1095.2 1954.4 1091.41 1957.3 1089.52 1960.7 1088.99 1963.84 1089.65Z" fill="#A7B0BC" fill-rule="evenodd"/><path d="M1932.36 1122.92C1932.36 1122.92 1932.36 1122.92 1932.36 1122.92L2055.27 1148.73C2062.05 1150.16 2066.4 1156.85 2064.97 1163.63 2063.53 1170.41 2056.88 1174.78 2050.09 1173.35 2050.08 1173.35 2050.08 1173.35 2050.08 1173.35L1927.2 1147.37C1920.42 1145.93 1916.06 1139.34 1917.5 1132.55 1918.93 1125.76 1925.58 1121.49 1932.36 1122.92Z" fill="#A7B0BC" fill-rule="evenodd"/><path d="M2006.76 1074.4C2006.76 1074.4 2006.76 1074.4 2006.78 1074.4 2013.56 1075.83 2017.91 1082.42 2016.48 1089.2L1990.56 1212.12C1989.13 1218.91 1982.46 1223.29 1975.68 1221.87 1975.68 1221.87 1975.68 1221.87 1975.68 1221.87 1968.88 1220.44 1964.56 1213.69 1965.99 1206.91L1991.9 1084.05C1993.32 1077.27 1999.98 1072.97 2006.76 1074.4Z" fill="#A7B0BC" fill-rule="evenodd"/><path d="M1645.71 1359.92C1642.56 1359.26 1639.67 1357.4 1637.78 1354.49 1633.98 1348.67 1635.63 1340.9 1641.44 1337.12L1733.51 1277.12C1739.32 1273.33 1747.1 1274.97 1750.88 1280.78 1754.67 1286.59 1753.03 1294.36 1747.21 1298.16L1655.15 1358.16C1652.25 1360.05 1648.85 1360.58 1645.71 1359.92Z" fill="#A7B0BC" fill-rule="evenodd"/><path d="M1721.74 1375.95C1718.59 1375.29 1715.7 1373.44 1713.81 1370.52L1653.81 1278.46C1650.03 1272.65 1651.66 1264.87 1657.48 1261.08 1663.28 1257.3 1671.07 1258.94 1674.85 1264.74L1734.85 1356.82C1738.64 1362.62 1737 1370.41 1731.18 1374.19 1728.28 1376.08 1724.89 1376.61 1721.74 1375.95Z" fill="#A7B0BC" fill-rule="evenodd"/><path d="M1753.22 1342.69C1753.22 1342.69 1753.22 1342.69 1753.22 1342.69L1630.31 1316.87C1623.53 1315.44 1619.19 1308.76 1620.61 1301.97 1622.05 1295.19 1628.71 1290.83 1635.49 1292.25 1635.5 1292.26 1635.5 1292.26 1635.5 1292.26L1758.38 1318.23C1765.16 1319.67 1769.53 1326.26 1768.08 1333.06 1766.66 1339.84 1760.01 1344.11 1753.22 1342.69Z" fill="#A7B0BC" fill-rule="evenodd"/><path d="M1678.82 1391.21C1678.82 1391.21 1678.82 1391.21 1678.81 1391.2 1672.03 1389.78 1667.67 1383.19 1669.1 1376.4L1695.02 1253.48C1696.45 1246.7 1703.12 1242.31 1709.91 1243.74 1709.91 1243.74 1709.91 1243.74 1709.91 1243.74 1716.7 1245.17 1721.02 1251.92 1719.59 1258.7L1693.69 1381.55C1692.26 1388.33 1685.61 1392.63 1678.82 1391.21Z" fill="#A7B0BC" fill-rule="evenodd"/><path d="M1826.99 1094.43C1830.14 1095.1 1833.03 1096.95 1834.92 1099.86 1838.72 1105.68 1837.07 1113.46 1831.25 1117.24L1739.19 1177.24C1733.38 1181.02 1725.6 1179.38 1721.82 1173.57 1718.03 1167.77 1719.67 1159.99 1725.48 1156.19L1817.55 1096.19C1820.45 1094.3 1823.84 1093.77 1826.99 1094.43Z" fill="#A7B0BC" fill-rule="evenodd"/><path d="M1750.96 1078.4C1754.1 1079.06 1757 1080.92 1758.89 1083.83L1818.89 1175.89C1822.67 1181.71 1821.04 1189.49 1815.22 1193.27 1809.42 1197.05 1801.63 1195.42 1797.84 1189.61L1737.85 1097.54C1734.06 1091.74 1735.7 1083.95 1741.51 1080.16 1744.42 1078.27 1747.81 1077.74 1750.96 1078.4Z" fill="#A7B0BC" fill-rule="evenodd"/><path d="M1719.47 1111.67C1719.47 1111.67 1719.47 1111.67 1719.47 1111.67L1842.38 1137.48C1849.17 1138.91 1853.51 1145.6 1852.08 1152.38 1850.64 1159.16 1843.99 1163.53 1837.21 1162.1 1837.19 1162.1 1837.19 1162.1 1837.19 1162.1L1714.32 1136.12C1707.54 1134.68 1703.17 1128.09 1704.61 1121.3 1706.04 1114.51 1712.69 1110.24 1719.47 1111.67Z" fill="#A7B0BC" fill-rule="evenodd"/><path d="M1793.88 1063.15C1793.88 1063.15 1793.88 1063.15 1793.89 1063.15 1800.67 1064.58 1805.02 1071.16 1803.6 1077.95L1777.67 1200.87C1776.25 1207.66 1769.58 1212.04 1762.79 1210.62 1762.79 1210.62 1762.79 1210.62 1762.79 1210.62 1756 1209.19 1751.68 1202.44 1753.11 1195.65L1779.01 1072.8C1780.44 1066.02 1787.09 1061.72 1793.88 1063.15Z" fill="#A7B0BC" fill-rule="evenodd"/></g></svg>