<svg width="1434" height="1284" xmlns="http://www.w3.org/2000/svg" xmlns:xlink="http://www.w3.org/1999/xlink" xml:space="preserve" overflow="hidden"><defs><clipPath id="clip0"><rect x="2854" y="1239" width="1434" height="1284"/></clipPath></defs><g clip-path="url(#clip0)" transform="translate(-2854 -1239)"><path d="M3171.99 2409.27C3168.44 2415.58 3157.56 2415.58 3154.01 2409.27L3079.93 2277.6C3076.89 2272.19 3081.68 2266 3088.92 2266L3237.08 2266C3244.32 2266 3249.11 2272.19 3246.07 2277.6L3171.99 2409.27Z" fill="#A7B0BC" fill-rule="evenodd"/><path d="M3379.99 2409.27C3376.44 2415.58 3365.56 2415.58 3362.01 2409.27L3287.93 2277.6C3284.89 2272.19 3289.68 2266 3296.92 2266L3445.08 2266C3452.32 2266 3457.11 2272.19 3454.07 2277.6L3379.99 2409.27Z" fill="#A7B0BC" fill-rule="evenodd"/><path d="M3695.13 1239.73C3852.4 1239.71 3985.24 1325.1 4027.89 1442.21L4032.26 1456.67 4035.12 1460.65C4040.1 1468.11 4044.92 1475.82 4049.55 1483.78L4061.83 1506.44 4077.54 1509.04C4132.83 1520.7 4182.67 1549.06 4219 1593.95 4236.8 1615.93 4250.09 1640.32 4259.05 1666.16L4265.82 1689.85 4268.25 1695.03C4292.76 1754.75 4294.32 1832.29 4267.13 1908.59 4251.17 1953.37 4227.31 1992.13 4198.88 2022.66L4182.02 2038.9 4176.89 2045.65C4149.65 2074.38 4105.27 2097.58 4052.1 2109.18L4042.97 2110.6 4040.93 2111.25C4028.52 2114.34 4015.49 2116.74 4001.98 2118.37L3961.08 2120.79 3952.05 2122.19 3939.01 2122.65 3938.63 2122.91C3937.36 2123.45 3935.95 2123.75 3934.48 2123.75L3773.65 2123.71 3772.28 2123.43 3711.06 2123.44 3688.64 2145.4C3670.48 2160.74 3648.68 2174.73 3624.09 2186.4L3606.54 2193.45 3589.5 2202.48C3550.34 2220.44 3504.37 2230.78 3455.21 2230.79 3383.69 2230.8 3318.95 2208.93 3272.09 2173.57L3257.28 2160.02 3255.15 2158.26 3254.14 2157.15 3240.47 2144.65C3235.82 2139.45 3231.49 2134.08 3227.5 2128.54L3224.45 2123.75 3150.38 2123.76 3139.81 2125.65 3121.9 2126.61 3121.65 2126.66C3093.04 2130.47 3061.29 2127.31 3029.88 2116.05 3003.71 2106.67 2980.88 2092.79 2962.54 2076.17L2956.56 2069.5 2952.46 2066.7C2926.29 2045.22 2902.33 2010.95 2886.8 1968.99L2886.54 1968.15 2886.42 1967.96C2881.59 1958.51 2877.18 1948.5 2873.29 1938.01 2869.41 1927.52 2866.23 1917.04 2863.75 1906.71L2858.77 1878.67 2858.08 1875.8C2854.69 1856.1 2853.56 1834.63 2855.13 1812.3L2858.44 1786.86 2858.47 1783.83C2860.84 1750.32 2868.96 1719.62 2880.93 1694.52L2886.98 1683.9 2887.9 1681.19C2905.28 1643 2933.1 1613.02 2969.98 1597 2976.13 1594.33 2982.39 1592.11 2988.72 1590.33L2995.81 1588.83 2996.09 1588.08C3063.92 1429.95 3225.49 1342.71 3371.26 1391.21L3384.86 1396.62 3389.88 1388.12C3448.67 1299.75 3563.33 1239.74 3695.13 1239.73Z" fill="#FFFFFF" fill-rule="evenodd"/><path d="M4032.08 2235.98 3885.59 2503.39C3875.8 2521.26 3853.38 2527.81 3835.51 2518.02L3803.15 2500.29 3949.64 2232.89C3959.43 2215.02 3981.85 2208.47 3999.72 2218.26L4032.08 2235.98Z" fill="#5F96CD" fill-rule="evenodd"/><path d="M3685.22 2235.35 3538.73 2502.75C3528.94 2520.62 3506.52 2527.18 3488.65 2517.39L3456.29 2499.66 3602.78 2232.26C3612.57 2214.39 3634.99 2207.84 3652.86 2217.63L3685.22 2235.35Z" fill="#5F96CD" fill-rule="evenodd"/><path d="M3857.78 2246.27 3797.08 2357.07C3787.3 2374.94 3764.87 2381.5 3747 2371.71L3714.64 2353.98 3775.34 2243.18C3785.13 2225.31 3807.56 2218.76 3825.43 2228.55L3857.78 2246.27Z" fill="#5F96CD" fill-rule="evenodd"/></g></svg>