<svg width="1433" height="1189" xmlns="http://www.w3.org/2000/svg" xmlns:xlink="http://www.w3.org/1999/xlink" xml:space="preserve" overflow="hidden"><defs><clipPath id="clip0"><rect x="1461" y="16" width="1433" height="1189"/></clipPath></defs><g clip-path="url(#clip0)" transform="translate(-1461 -16)"><path d="M2301.97 16.1392C2459.24 16.1203 2592.08 101.508 2634.73 218.615L2639.1 233.075 2641.96 237.063C2646.94 244.515 2651.76 252.228 2656.39 260.187L2668.67 282.852 2684.38 285.452C2739.67 297.107 2789.51 325.473 2825.84 370.357 2843.64 392.341 2856.93 416.726 2865.89 442.575L2872.66 466.262 2875.09 471.44C2899.6 531.163 2901.16 608.695 2873.97 685.005 2858.01 729.783 2834.15 768.543 2805.72 799.068L2788.86 815.308 2783.72 822.064C2756.49 850.792 2712.11 873.989 2658.94 885.59L2649.81 887.008 2647.77 887.66C2635.36 890.751 2622.33 893.15 2608.82 894.775L2567.92 897.195 2558.89 898.599 2545.85 899.061 2545.47 899.32C2544.2 899.861 2542.79 900.16 2541.32 900.159L2380.49 900.12 2379.12 899.842 2317.9 899.849 2295.48 921.811C2277.32 937.154 2255.52 951.144 2230.93 962.807L2213.38 969.86 2196.34 978.889C2157.18 996.848 2111.21 1007.19 2062.05 1007.2 1990.53 1007.21 1925.79 985.34 1878.93 949.979L1864.12 936.431 1861.99 934.674 1860.98 933.557 1847.31 921.06C1842.66 915.862 1838.33 910.486 1834.34 904.948L1831.29 900.157 1757.21 900.166 1746.65 902.064 1728.74 903.015 1728.49 903.07C1699.88 906.883 1668.13 903.718 1636.72 892.462 1610.55 883.083 1587.72 869.195 1569.38 852.581L1563.4 845.914 1559.3 843.114C1533.13 821.632 1509.17 787.364 1493.64 745.403L1493.38 744.559 1493.26 744.366C1488.43 734.917 1484.02 724.907 1480.13 714.417 1476.25 703.926 1473.07 693.452 1470.59 683.117L1465.61 655.084 1464.92 652.211C1461.53 632.514 1460.4 611.045 1461.97 588.706L1465.28 563.27 1465.31 560.242C1467.68 526.735 1475.8 496.029 1487.77 470.932L1493.82 460.312 1494.74 457.597C1512.12 419.408 1539.94 389.433 1576.82 373.409 1582.97 370.739 1589.23 368.519 1595.56 366.736L1602.65 365.244 1602.93 364.486C1670.76 206.364 1832.33 119.12 1978.1 167.619L1991.7 173.034 1996.72 164.529C2055.51 76.1556 2170.17 16.1546 2301.97 16.1392Z" fill="#FFFFFF" fill-rule="evenodd"/><path d="M1801.44 1198.24C1797.91 1204.59 1787.09 1204.59 1783.56 1198.24L1709.93 1065.68C1706.9 1060.23 1711.67 1054 1718.86 1054L1866.14 1054C1873.33 1054 1878.1 1060.23 1875.07 1065.68L1801.44 1198.24Z" fill="#A7B0BC" fill-rule="evenodd"/><path d="M2227.36 1074.36 2166.66 1185.16C2156.87 1203.03 2134.44 1209.58 2116.57 1199.79L2084.22 1182.07 2144.92 1071.26C2154.71 1053.39 2177.13 1046.84 2195 1056.63L2227.36 1074.36Z" fill="#5F96CD" fill-rule="evenodd"/><path d="M2579.54 1073.97 2518.84 1184.78C2509.05 1202.65 2486.63 1209.2 2468.76 1199.41L2436.4 1181.68 2497.1 1070.88C2506.89 1053.01 2529.31 1046.46 2547.18 1056.25L2579.54 1073.97Z" fill="#5F96CD" fill-rule="evenodd"/><path d="M2051.83 1075.02 1991.13 1185.82C1981.34 1203.69 1958.92 1210.24 1941.05 1200.45L1908.69 1182.72 1969.39 1071.92C1979.18 1054.05 2001.61 1047.5 2019.48 1057.29L2051.83 1075.02Z" fill="#5F96CD" fill-rule="evenodd"/><path d="M2403.49 1075.02 2342.79 1185.82C2333 1203.69 2310.58 1210.24 2292.7 1200.45L2260.35 1182.72 2321.05 1071.92C2330.84 1054.05 2353.26 1047.5 2371.13 1057.29L2403.49 1075.02Z" fill="#5F96CD" fill-rule="evenodd"/></g></svg>