<svg width="1434" height="1355" xmlns="http://www.w3.org/2000/svg" xmlns:xlink="http://www.w3.org/1999/xlink" xml:space="preserve" overflow="hidden"><defs><clipPath id="clip0"><rect x="1475" y="18" width="1434" height="1355"/></clipPath></defs><g clip-path="url(#clip0)" transform="translate(-1475 -18)"><path d="M2316.4 18.7066C2473.67 18.6877 2606.51 104.076 2649.15 221.183L2653.53 235.642 2656.38 239.63C2661.37 247.083 2666.19 254.795 2670.82 262.754L2683.09 285.419 2698.81 288.019C2754.1 299.674 2803.93 328.041 2840.27 372.924 2858.06 394.909 2871.36 419.293 2880.31 445.142L2887.09 468.83 2889.51 474.007C2914.03 533.73 2915.59 611.263 2888.4 687.572 2872.44 732.35 2848.58 771.111 2820.14 801.636L2803.28 817.875 2798.15 824.631C2770.92 853.36 2726.53 876.557 2673.36 888.157L2664.24 889.575 2662.2 890.228C2649.79 893.318 2636.76 895.717 2623.25 897.343L2582.35 899.762 2573.31 901.166 2560.28 901.628 2559.9 901.887C2558.62 902.429 2557.22 902.727 2555.74 902.727L2394.92 902.687 2393.54 902.409 2332.33 902.416 2309.91 924.378C2291.75 939.721 2269.95 953.712 2245.35 965.374L2227.8 972.427 2210.76 981.457C2171.61 999.416 2125.64 1009.76 2076.47 1009.77 2004.96 1009.77 1940.22 987.908 1893.36 952.547L1878.55 938.998 1876.41 937.241 1875.41 936.124 1861.74 923.627C1857.09 918.429 1852.76 913.053 1848.77 907.516L1845.71 902.724 1771.64 902.733 1761.08 904.632 1743.16 905.583 1742.92 905.637C1714.31 909.45 1682.56 906.285 1651.15 895.03 1624.98 885.65 1602.14 871.763 1583.81 855.149L1577.83 848.481 1573.73 845.681C1547.55 824.199 1523.6 789.931 1508.06 747.971L1507.81 747.126 1507.69 746.933C1502.85 737.484 1498.44 727.474 1494.56 716.985 1490.67 706.494 1487.5 696.02 1485.02 685.685L1480.04 657.651 1479.35 654.778C1475.95 635.082 1474.82 613.612 1476.4 591.274L1479.7 565.837 1479.74 562.81C1482.1 529.302 1490.23 498.596 1502.19 473.5L1508.25 462.88 1509.17 460.164C1526.55 421.976 1554.36 392.001 1591.25 375.976 1597.4 373.306 1603.65 371.086 1609.99 369.303L1617.07 367.811 1617.36 367.053C1685.19 208.932 1846.76 121.687 1992.53 170.187L2006.12 175.601 2011.14 167.097C2069.94 78.723 2184.59 18.722 2316.4 18.7066Z" fill="#FFFFFF" fill-rule="evenodd"/><path d="M1892.04 1040.38 1978.33 1053.63 1988.23 1140.38 1908.06 1180.73 1848.61 1118.93Z" fill="#A7B0BC" fill-rule="evenodd"/><path d="M2131.98 1051.86 2218.28 1065.12 2228.18 1151.86 2148 1192.21 2088.55 1130.41Z" fill="#A7B0BC" fill-rule="evenodd"/><path d="M2375.55 1016.2 2461.85 1029.46 2471.75 1116.2 2391.57 1156.56 2332.12 1094.75Z" fill="#A7B0BC" fill-rule="evenodd"/><path d="M2604.62 980.541 2690.91 993.797 2700.82 1080.54 2620.64 1120.9 2561.19 1059.09Z" fill="#A7B0BC" fill-rule="evenodd"/><path d="M2238.96 1216.86 2325.25 1230.12 2335.16 1316.86 2254.98 1357.21 2195.53 1295.41Z" fill="#A7B0BC" fill-rule="evenodd"/><path d="M1967.59 1231.97 2053.88 1245.23 2063.78 1331.97 1983.61 1372.32 1924.15 1310.52Z" fill="#A7B0BC" fill-rule="evenodd"/><path d="M1725.83 1211.42 1812.12 1224.68 1822.03 1311.42 1741.85 1351.78 1682.4 1289.97Z" fill="#A7B0BC" fill-rule="evenodd"/><path d="M1653.91 1005.32 1740.2 1018.58 1750.1 1105.32 1669.93 1145.68 1610.47 1083.87Z" fill="#A7B0BC" fill-rule="evenodd"/><path d="M2470.44 1190.87 2556.74 1204.13 2566.64 1290.87 2486.47 1331.23 2427.01 1269.42Z" fill="#A7B0BC" fill-rule="evenodd"/></g></svg>