<svg width="1434" height="1333" xmlns="http://www.w3.org/2000/svg" xmlns:xlink="http://www.w3.org/1999/xlink" xml:space="preserve" overflow="hidden"><defs><clipPath id="clip0"><rect x="2" y="23" width="1434" height="1333"/></clipPath></defs><g clip-path="url(#clip0)" transform="translate(-2 -23)"><path d="M843.545 23.5415C1000.82 23.5226 1133.65 108.91 1176.3 226.018L1180.67 240.477 1183.53 244.465C1188.51 251.918 1193.33 259.63 1197.96 267.589L1210.24 290.254 1225.95 292.854C1281.25 304.509 1331.08 332.876 1367.41 377.759 1385.21 399.743 1398.5 424.128 1407.46 449.977L1414.23 473.665 1416.66 478.842C1441.17 538.565 1442.73 616.098 1415.54 692.407 1399.59 737.185 1375.72 775.945 1347.29 806.471L1330.43 822.71 1325.3 829.466C1298.06 858.195 1253.68 881.391 1200.51 892.992L1191.38 894.41 1189.34 895.062C1176.93 898.153 1163.9 900.552 1150.39 902.177L1109.49 904.597 1100.46 906.001 1087.43 906.463 1087.04 906.722C1085.77 907.263 1084.36 907.562 1082.89 907.562L922.059 907.522 920.687 907.244 859.471 907.251 837.052 929.213C818.891 944.556 797.091 958.547 772.498 970.209L754.949 977.262 737.907 986.292C698.749 1004.25 652.783 1014.59 603.618 1014.6 532.105 1014.61 467.364 992.743 420.504 957.382L405.691 943.833 403.558 942.076 402.55 940.959 388.886 928.462C384.232 923.264 379.901 917.888 375.915 912.351L372.857 907.559 298.786 907.568 288.221 909.467 270.306 910.418 270.061 910.472C241.449 914.285 209.7 911.12 178.294 899.865 152.124 890.485 129.289 876.597 110.95 859.983L104.969 853.316 100.872 850.516C74.6982 829.034 50.7421 794.766 35.2073 752.805L34.9493 751.961 34.8357 751.768C29.9962 742.319 25.5863 732.309 21.7025 721.819 17.8187 711.329 14.6454 700.855 12.1604 690.52L7.18188 662.486 6.4928 659.613C3.09851 639.917 1.96765 618.447 3.54492 596.109L6.84644 570.672 6.88196 567.645C9.2478 534.137 17.3698 503.431 29.3384 478.335L35.3912 467.715 36.3156 464.999C53.692 426.81 81.5085 396.836 118.395 380.811 124.543 378.141 130.797 375.921 137.135 374.138L144.217 372.646 144.503 371.888C212.332 213.767 373.905 126.522 519.672 175.022L533.268 180.436 538.286 171.931C597.08 83.5579 711.738 23.5569 843.545 23.5415Z" fill="#FFFFFF" fill-rule="evenodd"/><path d="M386.544 1023.45 472.839 1036.71 482.74 1123.45 402.565 1163.81 343.112 1102.01Z" fill="#A7B0BC" fill-rule="evenodd"/><path d="M651.875 1056.69 738.17 1069.95 748.071 1156.69 667.896 1197.05 608.443 1135.24Z" fill="#A7B0BC" fill-rule="evenodd"/><path d="M903.303 1007.13 989.598 1020.39 999.499 1107.13 919.324 1147.49 859.871 1085.69Z" fill="#A7B0BC" fill-rule="evenodd"/><path d="M469.346 1215.05 555.641 1228.3 565.543 1315.05 485.367 1355.4 425.915 1293.6Z" fill="#A7B0BC" fill-rule="evenodd"/><path d="M790.885 1210.21 877.18 1223.47 887.081 1310.21 806.906 1350.57 747.453 1288.76Z" fill="#A7B0BC" fill-rule="evenodd"/></g></svg>