<svg width="1434" height="1103" xmlns="http://www.w3.org/2000/svg" xmlns:xlink="http://www.w3.org/1999/xlink" xml:space="preserve" overflow="hidden"><defs><clipPath id="clip0"><rect x="49" y="1264" width="1434" height="1103"/></clipPath></defs><g clip-path="url(#clip0)" transform="translate(-49 -1264)"><path d="M890.371 1264.66C1047.64 1264.64 1180.48 1350.03 1223.12 1467.13L1227.5 1481.59 1230.35 1485.58C1235.34 1493.03 1240.16 1500.75 1244.79 1508.71L1257.06 1531.37 1272.78 1533.97C1328.07 1545.63 1377.9 1573.99 1414.24 1618.88 1432.03 1640.86 1445.33 1665.24 1454.28 1691.09L1461.06 1714.78 1463.49 1719.96C1488 1779.68 1489.56 1857.21 1462.37 1933.52 1446.41 1978.3 1422.55 2017.06 1394.11 2047.59L1377.25 2063.83 1372.12 2070.58C1344.89 2099.31 1300.5 2122.51 1247.33 2134.11L1238.21 2135.53 1236.17 2136.18C1223.76 2139.27 1210.73 2141.67 1197.22 2143.29L1156.32 2145.71 1147.28 2147.12 1134.25 2147.58 1133.87 2147.84C1132.59 2148.38 1131.19 2148.68 1129.71 2148.68L968.885 2148.64 967.513 2148.36 906.297 2148.37 883.878 2170.33C865.717 2185.67 843.917 2199.66 819.324 2211.33L801.775 2218.38 784.733 2227.41C745.575 2245.37 699.609 2255.71 650.444 2255.72 578.931 2255.73 514.191 2233.86 467.33 2198.5L452.517 2184.95 450.384 2183.19 449.376 2182.08 435.712 2169.58C431.058 2164.38 426.727 2159.01 422.741 2153.47L419.683 2148.68 345.612 2148.68 335.047 2150.58 317.132 2151.53 316.887 2151.59C288.276 2155.4 256.526 2152.24 225.12 2140.98 198.95 2131.6 176.115 2117.71 157.776 2101.1L151.795 2094.43 147.699 2091.63C121.524 2070.15 97.5681 2035.88 82.0333 1993.92L81.7754 1993.08 81.6617 1992.89C76.8226 1983.44 72.4124 1973.43 68.5289 1962.94 64.6448 1952.45 61.4714 1941.97 58.9865 1931.64L54.0079 1903.6 53.3188 1900.73C49.9246 1881.03 48.7937 1859.56 50.371 1837.23L53.6725 1811.79 53.7084 1808.76C56.0739 1775.25 64.1958 1744.55 76.1644 1719.45L82.2173 1708.83 83.1416 1706.12C100.518 1667.93 128.335 1637.95 165.221 1621.93 171.369 1619.26 177.623 1617.04 183.961 1615.25L191.043 1613.76 191.329 1613C259.158 1454.88 420.731 1367.64 566.498 1416.14L580.094 1421.55 585.112 1413.05C643.906 1324.67 758.564 1264.67 890.371 1264.66Z" fill="#FFFFFF" fill-rule="evenodd"/><path d="M239 2308 538 2308 538 2337C538 2353.02 525.016 2366 509 2366L210 2366 210 2337C210 2320.98 222.984 2308 239 2308Z" fill="#A7B0BC" fill-rule="evenodd"/><path d="M630 2309 1322 2309 1322 2338C1322 2354.02 1309.02 2367 1293 2367L601 2367 601 2338C601 2321.98 613.984 2309 630 2309Z" fill="#A7B0BC" fill-rule="evenodd"/></g></svg>