<svg width="1434" height="1332" xmlns="http://www.w3.org/2000/svg" xmlns:xlink="http://www.w3.org/1999/xlink" xml:space="preserve" overflow="hidden"><defs><clipPath id="clip0"><rect x="1474" y="18" width="1434" height="1332"/></clipPath></defs><g clip-path="url(#clip0)" transform="translate(-1474 -18)"><path d="M2229.52 1062.95 2083.04 1330.35C2073.25 1348.22 2050.82 1354.77 2032.95 1344.98L2000.6 1327.25 2147.08 1059.85C2156.87 1041.98 2179.3 1035.43 2197.17 1045.22L2229.52 1062.95Z" fill="#5F96CD" fill-rule="evenodd"/><path d="M2581.71 1062.52 2435.22 1329.93C2425.43 1347.8 2403.01 1354.35 2385.13 1344.56L2352.78 1326.83 2499.27 1059.43C2509.06 1041.56 2531.48 1035.01 2549.35 1044.8L2581.71 1062.52Z" fill="#5F96CD" fill-rule="evenodd"/><path d="M1882.66 1062.31 1736.17 1329.72C1726.39 1347.59 1703.96 1354.14 1686.09 1344.35L1653.73 1326.62 1800.22 1059.22C1810.01 1041.35 1832.43 1034.8 1850.31 1044.59L1882.66 1062.31Z" fill="#5F96CD" fill-rule="evenodd"/><path d="M2408.09 1064.35 2347.39 1175.15C2337.6 1193.02 2315.18 1199.57 2297.31 1189.78L2264.95 1172.06 2325.65 1061.26C2335.44 1043.38 2357.86 1036.83 2375.73 1046.62L2408.09 1064.35Z" fill="#5F96CD" fill-rule="evenodd"/><path d="M2055.23 1073.23 1994.53 1184.04C1984.74 1201.91 1962.32 1208.46 1944.45 1198.67L1912.09 1180.94 1972.79 1070.14C1982.58 1052.27 2005 1045.72 2022.87 1055.51L2055.23 1073.23Z" fill="#5F96CD" fill-rule="evenodd"/><path d="M2315.31 18.7146C2472.58 18.6957 2605.42 104.083 2648.06 221.191L2652.44 235.65 2655.29 239.638C2660.28 247.091 2665.1 254.803 2669.73 262.762L2682 285.427 2697.72 288.027C2753.01 299.682 2802.84 328.049 2839.18 372.932 2856.97 394.916 2870.26 419.301 2879.22 445.15L2886 468.838 2888.42 474.015C2912.94 533.738 2914.5 611.271 2887.31 687.58 2871.35 732.358 2847.49 771.119 2819.05 801.644L2802.19 817.883 2797.06 824.639C2769.83 853.368 2725.44 876.564 2672.27 888.165L2663.15 889.583 2661.11 890.235C2648.7 893.326 2635.67 895.725 2622.16 897.351L2581.26 899.77 2572.22 901.174 2559.19 901.636 2558.81 901.895C2557.53 902.437 2556.13 902.735 2554.65 902.735L2393.82 902.695 2392.45 902.417 2331.24 902.424 2308.82 924.386C2290.66 939.729 2268.86 953.72 2244.26 965.382L2226.71 972.435 2209.67 981.465C2170.51 999.424 2124.55 1009.77 2075.38 1009.77 2003.87 1009.78 1939.13 987.916 1892.27 952.555L1877.46 939.006 1875.32 937.249 1874.31 936.132 1860.65 923.635C1856 918.437 1851.67 913.061 1847.68 907.524L1844.62 902.732 1770.55 902.741 1759.99 904.64 1742.07 905.591 1741.83 905.645C1713.21 909.458 1681.47 906.293 1650.06 895.038 1623.89 885.658 1601.05 871.771 1582.72 855.157L1576.73 848.489 1572.64 845.689C1546.46 824.207 1522.51 789.939 1506.97 747.979L1506.71 747.134 1506.6 746.941C1501.76 737.492 1497.35 727.482 1493.47 716.993 1489.58 706.502 1486.41 696.028 1483.93 685.693L1478.95 657.659 1478.26 654.786C1474.86 635.09 1473.73 613.62 1475.31 591.282L1478.61 565.845 1478.65 562.818C1481.01 529.31 1489.14 498.604 1501.1 473.508L1507.16 462.888 1508.08 460.172C1525.46 421.983 1553.27 392.009 1590.16 375.984 1596.31 373.314 1602.56 371.094 1608.9 369.311L1615.98 367.819 1616.27 367.061C1684.1 208.94 1845.67 121.695 1991.44 170.195L2005.03 175.609 2010.05 167.104C2068.85 78.731 2183.5 18.7299 2315.31 18.7146Z" fill="#FFFFFF" fill-rule="evenodd"/></g></svg>