<svg width="1434" height="1313" xmlns="http://www.w3.org/2000/svg" xmlns:xlink="http://www.w3.org/1999/xlink" xml:space="preserve" overflow="hidden"><defs><clipPath id="clip0"><rect x="19" y="25" width="1434" height="1313"/></clipPath></defs><g clip-path="url(#clip0)" transform="translate(-19 -25)"><path d="M860.53 25.3629C1017.8 25.344 1150.63 110.732 1193.28 227.839L1197.66 242.299 1200.51 246.287C1205.49 253.739 1210.31 261.452 1214.95 269.411L1227.22 292.076 1242.94 294.676C1298.23 306.331 1348.06 334.697 1384.4 379.581 1402.19 401.565 1415.48 425.949 1424.44 451.798L1431.22 475.486 1433.64 480.664C1458.16 540.386 1459.72 617.919 1432.53 694.228 1416.57 739.007 1392.71 777.767 1364.27 808.292L1347.41 824.532 1342.28 831.288C1315.05 860.016 1270.66 883.213 1217.49 894.813L1208.37 896.232 1206.33 896.884C1193.92 899.974 1180.89 902.374 1167.38 903.999L1126.48 906.419 1117.44 907.822 1104.41 908.285 1104.03 908.543C1102.75 909.085 1101.35 909.384 1099.87 909.383L939.044 909.344 937.672 909.065 876.456 909.073 854.037 931.034C835.876 946.378 814.076 960.368 789.483 972.03L771.934 979.084 754.892 988.113C715.734 1006.07 669.768 1016.42 620.603 1016.42 549.09 1016.43 484.349 994.564 437.489 959.203L422.676 945.654 420.543 943.897 419.535 942.781 405.871 930.284C401.217 925.086 396.886 919.71 392.9 914.172L389.842 909.381 315.771 909.389 305.206 911.288 287.291 912.239 287.046 912.294C258.434 916.107 226.685 912.941 195.279 901.686 169.109 892.306 146.274 878.419 127.935 861.805L121.954 855.137 117.857 852.337C91.6832 830.855 67.7271 796.588 52.1923 754.627L51.9343 753.782 51.8207 753.589C46.9812 744.141 42.5713 734.131 38.6875 723.641 34.8037 713.15 31.6304 702.676 29.1454 692.341L24.1669 664.308 23.4778 661.434C20.0835 641.738 18.9526 620.268 20.5299 597.93L23.8314 572.494 23.8669 569.466C26.2328 535.958 34.3547 505.253 46.3234 480.156L52.3762 469.536 53.3005 466.82C70.677 428.632 98.4935 398.657 135.38 382.633 141.528 379.962 147.782 377.743 154.12 375.959L161.202 374.468 161.488 373.709C229.317 215.588 390.89 128.343 536.657 176.843L550.253 182.257 555.271 173.753C614.065 85.3793 728.723 25.3783 860.53 25.3629Z" fill="#FFFFFF" fill-rule="evenodd"/><path d="M896.527 1207.48 835.828 1318.28C826.038 1336.15 803.615 1342.7 785.744 1332.91L753.387 1315.18 814.087 1204.38C823.876 1186.51 846.299 1179.96 864.17 1189.75L896.527 1207.48Z" fill="#5F96CD" fill-rule="evenodd"/><path d="M555.962 1207.48 495.262 1318.28C485.473 1336.15 463.049 1342.7 445.179 1332.91L412.822 1315.18 473.521 1204.38C483.311 1186.51 505.734 1179.96 523.604 1189.75L555.962 1207.48Z" fill="#5F96CD" fill-rule="evenodd"/><path d="M788.243 1071.95 727.544 1182.76C717.754 1200.63 695.331 1207.18 677.46 1197.39L645.103 1179.66 705.802 1068.86C715.592 1050.99 738.015 1044.44 755.886 1054.23L788.243 1071.95Z" fill="#5F96CD" fill-rule="evenodd"/><path d="M1117.18 1080.2 1056.48 1191C1046.69 1208.87 1024.27 1215.42 1006.4 1205.63L974.043 1187.91 1034.74 1077.11C1044.53 1059.24 1066.96 1052.68 1084.83 1062.47L1117.18 1080.2Z" fill="#5F96CD" fill-rule="evenodd"/><path d="M438.57 1072.43 377.871 1183.23C368.081 1201.1 345.658 1207.65 327.787 1197.86L295.43 1180.14 356.129 1069.34C365.919 1051.47 388.342 1044.91 406.213 1054.7L438.57 1072.43Z" fill="#5F96CD" fill-rule="evenodd"/></g></svg>