<svg width="1434" height="1315" xmlns="http://www.w3.org/2000/svg" xmlns:xlink="http://www.w3.org/1999/xlink" xml:space="preserve" overflow="hidden"><defs><clipPath id="clip0"><rect x="955" y="191" width="1434" height="1315"/></clipPath></defs><g clip-path="url(#clip0)" transform="translate(-955 -191)"><path d="M1796.43 191.737C1953.7 191.718 2086.53 277.106 2129.18 394.213L2133.55 408.673 2136.41 412.661C2141.39 420.113 2146.21 427.826 2150.84 435.785L2163.12 458.45 2178.83 461.05C2234.13 472.705 2283.96 501.071 2320.29 545.955 2338.09 567.939 2351.38 592.324 2360.34 618.173L2367.11 641.86 2369.54 647.038C2394.05 706.761 2395.61 784.293 2368.42 860.603 2352.47 905.381 2328.6 944.141 2300.17 974.666L2283.31 990.906 2278.18 997.662C2250.94 1026.39 2206.56 1049.59 2153.39 1061.19L2144.26 1062.61 2142.22 1063.26C2129.81 1066.35 2116.78 1068.75 2103.27 1070.37L2062.37 1072.79 2053.34 1074.2 2040.31 1074.66 2039.92 1074.92C2038.65 1075.46 2037.24 1075.76 2035.77 1075.76L1874.94 1075.72 1873.57 1075.44 1812.35 1075.45 1789.93 1097.41C1771.77 1112.75 1749.97 1126.74 1725.38 1138.4L1707.83 1145.46 1690.79 1154.49C1651.63 1172.45 1605.66 1182.79 1556.5 1182.8 1484.99 1182.81 1420.24 1160.94 1373.38 1125.58L1358.57 1112.03 1356.44 1110.27 1355.43 1109.16 1341.77 1096.66C1337.11 1091.46 1332.78 1086.08 1328.8 1080.55L1325.74 1075.76 1251.67 1075.76 1241.1 1077.66 1223.19 1078.61 1222.94 1078.67C1194.33 1082.48 1162.58 1079.32 1131.17 1068.06 1105 1058.68 1082.17 1044.79 1063.83 1028.18L1057.85 1021.51 1053.75 1018.71C1027.58 997.23 1003.62 962.962 988.088 921.001L987.83 920.157 987.716 919.964C982.876 910.515 978.467 900.505 974.583 890.015 970.699 879.524 967.526 869.05 965.041 858.715L960.062 830.682 959.373 827.809C955.979 808.112 954.848 786.643 956.425 764.304L959.727 738.868 959.762 735.84C962.128 702.333 970.25 671.627 982.219 646.53L988.271 635.91 989.196 633.195C1006.57 595.006 1034.39 565.031 1071.28 549.007 1077.42 546.337 1083.68 544.117 1090.01 542.334L1097.1 540.842 1097.38 540.083C1165.21 381.962 1326.79 294.718 1472.55 343.217L1486.15 348.632 1491.17 340.127C1549.96 251.754 1664.62 191.753 1796.43 191.737Z" fill="#FFFFFF" fill-rule="evenodd"/><path d="M1481.23 1302.84C1478.76 1302.31 1476.48 1300.86 1474.99 1298.57 1472.01 1293.99 1473.31 1287.88 1477.88 1284.9L1550.27 1237.73C1554.84 1234.75 1560.95 1236.04 1563.93 1240.61 1566.9 1245.17 1565.62 1251.29 1561.04 1254.27L1488.66 1301.45C1486.37 1302.94 1483.7 1303.36 1481.23 1302.84Z" fill="#A7B0BC" fill-rule="evenodd"/><path d="M1541.01 1315.44C1538.54 1314.92 1536.26 1313.46 1534.78 1311.17L1487.6 1238.78C1484.62 1234.21 1485.91 1228.1 1490.48 1225.12 1495.04 1222.15 1501.17 1223.43 1504.15 1228L1551.32 1300.39C1554.3 1304.96 1553.01 1311.08 1548.44 1314.06 1546.16 1315.54 1543.49 1315.96 1541.01 1315.44Z" fill="#A7B0BC" fill-rule="evenodd"/><path d="M1565.77 1289.28C1565.77 1289.28 1565.77 1289.28 1565.77 1289.28L1469.13 1268.99C1463.79 1267.86 1460.38 1262.6 1461.5 1257.27 1462.63 1251.94 1467.86 1248.51 1473.2 1249.63 1473.21 1249.63 1473.21 1249.63 1473.21 1249.63L1569.82 1270.06C1575.16 1271.19 1578.59 1276.37 1577.45 1281.71 1576.33 1287.05 1571.1 1290.41 1565.77 1289.28Z" fill="#A7B0BC" fill-rule="evenodd"/><path d="M1507.27 1327.44C1507.27 1327.44 1507.27 1327.44 1507.26 1327.43 1501.92 1326.31 1498.5 1321.13 1499.62 1315.8L1520.01 1219.14C1521.13 1213.81 1526.37 1210.36 1531.71 1211.48 1531.71 1211.48 1531.71 1211.48 1531.71 1211.48 1537.05 1212.61 1540.45 1217.91 1539.32 1223.25L1518.95 1319.84C1517.83 1325.18 1512.6 1328.56 1507.27 1327.44Z" fill="#A7B0BC" fill-rule="evenodd"/><path d="M1836.15 1302.28C1833.67 1301.76 1831.4 1300.3 1829.91 1298.01 1826.93 1293.43 1828.22 1287.32 1832.79 1284.34L1905.18 1237.17C1909.76 1234.19 1915.87 1235.48 1918.85 1240.05 1921.82 1244.61 1920.54 1250.73 1915.96 1253.71L1843.57 1300.89C1841.29 1302.38 1838.62 1302.8 1836.15 1302.28Z" fill="#A7B0BC" fill-rule="evenodd"/><path d="M1895.93 1314.88C1893.46 1314.36 1891.18 1312.9 1889.69 1310.61L1842.52 1238.22C1839.54 1233.65 1840.83 1227.54 1845.4 1224.56 1849.96 1221.59 1856.09 1222.88 1859.07 1227.44L1906.24 1299.83C1909.22 1304.4 1907.93 1310.52 1903.36 1313.5 1901.08 1314.99 1898.4 1315.4 1895.93 1314.88Z" fill="#A7B0BC" fill-rule="evenodd"/><path d="M1920.69 1288.73C1920.69 1288.73 1920.69 1288.73 1920.69 1288.73L1824.04 1268.43C1818.71 1267.3 1815.3 1262.05 1816.42 1256.71 1817.55 1251.38 1822.78 1247.95 1828.12 1249.07 1828.13 1249.07 1828.13 1249.07 1828.13 1249.07L1924.74 1269.5C1930.07 1270.63 1933.5 1275.81 1932.37 1281.15 1931.25 1286.49 1926.02 1289.85 1920.69 1288.73Z" fill="#A7B0BC" fill-rule="evenodd"/><path d="M1862.18 1326.88C1862.18 1326.88 1862.18 1326.88 1862.17 1326.87 1856.84 1325.75 1853.42 1320.57 1854.54 1315.24L1874.92 1218.58C1876.05 1213.25 1881.29 1209.8 1886.63 1210.92 1886.63 1210.92 1886.63 1210.92 1886.63 1210.92 1891.97 1212.05 1895.36 1217.35 1894.24 1222.69L1873.87 1319.28C1872.75 1324.62 1867.52 1328 1862.18 1326.88Z" fill="#A7B0BC" fill-rule="evenodd"/><path d="M1867.06 1370.25 1806.36 1481.06C1796.57 1498.93 1774.15 1505.48 1756.28 1495.69L1723.92 1477.96 1784.62 1367.16C1794.41 1349.29 1816.84 1342.74 1834.71 1352.53L1867.06 1370.25Z" fill="#5F96CD" fill-rule="evenodd"/><path d="M1526.5 1370.25 1465.8 1481.06C1456.01 1498.93 1433.59 1505.48 1415.72 1495.69L1383.36 1477.96 1444.06 1367.16C1453.85 1349.29 1476.27 1342.74 1494.14 1352.53L1526.5 1370.25Z" fill="#5F96CD" fill-rule="evenodd"/><path d="M1758.78 1234.73 1698.08 1345.53C1688.29 1363.4 1665.87 1369.95 1648 1360.16L1615.64 1342.44 1676.34 1231.64C1686.13 1213.77 1708.55 1207.22 1726.42 1217.01L1758.78 1234.73Z" fill="#5F96CD" fill-rule="evenodd"/><path d="M2087.72 1242.98 2027.02 1353.78C2017.23 1371.65 1994.81 1378.2 1976.94 1368.41L1944.58 1350.68 2005.28 1239.88C2015.07 1222.01 2037.49 1215.46 2055.36 1225.25L2087.72 1242.98Z" fill="#5F96CD" fill-rule="evenodd"/><path d="M1409.11 1235.21 1348.41 1346.01C1338.62 1363.88 1316.19 1370.43 1298.32 1360.64L1265.97 1342.91 1326.67 1232.11C1336.46 1214.24 1358.88 1207.69 1376.75 1217.48L1409.11 1235.21Z" fill="#5F96CD" fill-rule="evenodd"/><path d="M1582.4 1475.34C1579.93 1474.82 1577.65 1473.36 1576.17 1471.07 1573.18 1466.5 1574.48 1460.38 1579.05 1457.41L1651.44 1410.23C1656.01 1407.26 1662.13 1408.54 1665.1 1413.12 1668.08 1417.68 1666.79 1423.79 1662.22 1426.78L1589.83 1473.95C1587.55 1475.44 1584.88 1475.86 1582.4 1475.34Z" fill="#A7B0BC" fill-rule="evenodd"/><path d="M1642.19 1487.95C1639.71 1487.43 1637.44 1485.97 1635.95 1483.68L1588.77 1411.29C1585.8 1406.72 1587.09 1400.6 1591.66 1397.63 1596.22 1394.65 1602.35 1395.94 1605.32 1400.5L1652.5 1472.9C1655.47 1477.46 1654.18 1483.59 1649.61 1486.56 1647.33 1488.05 1644.66 1488.47 1642.19 1487.95Z" fill="#A7B0BC" fill-rule="evenodd"/><path d="M1666.94 1461.79C1666.94 1461.79 1666.94 1461.79 1666.94 1461.79L1570.3 1441.49C1564.97 1440.37 1561.55 1435.11 1562.67 1429.78 1563.81 1424.44 1569.04 1421.01 1574.37 1422.13 1574.38 1422.14 1574.38 1422.14 1574.38 1422.14L1671 1442.56C1676.33 1443.69 1679.76 1448.87 1678.63 1454.22 1677.51 1459.55 1672.28 1462.91 1666.94 1461.79Z" fill="#A7B0BC" fill-rule="evenodd"/><path d="M1608.44 1499.94C1608.44 1499.94 1608.44 1499.94 1608.43 1499.94 1603.1 1498.82 1599.68 1493.64 1600.8 1488.3L1621.18 1391.65C1622.3 1386.31 1627.55 1382.86 1632.88 1383.99 1632.88 1383.99 1632.88 1383.99 1632.88 1383.99 1638.23 1385.11 1641.62 1390.42 1640.5 1395.75L1620.13 1492.35C1619.01 1497.68 1613.78 1501.06 1608.44 1499.94Z" fill="#A7B0BC" fill-rule="evenodd"/><path d="M1208.29 1475.34C1205.82 1474.82 1203.54 1473.36 1202.06 1471.07 1199.07 1466.5 1200.37 1460.38 1204.94 1457.41L1277.33 1410.23C1281.9 1407.26 1288.02 1408.54 1290.99 1413.12 1293.97 1417.68 1292.68 1423.79 1288.11 1426.78L1215.72 1473.95C1213.44 1475.44 1210.77 1475.86 1208.29 1475.34Z" fill="#A7B0BC" fill-rule="evenodd"/><path d="M1268.08 1487.95C1265.6 1487.42 1263.33 1485.97 1261.84 1483.68L1214.66 1411.29C1211.69 1406.72 1212.98 1400.6 1217.55 1397.63 1222.11 1394.65 1228.24 1395.94 1231.21 1400.5L1278.39 1472.9C1281.36 1477.46 1280.07 1483.59 1275.5 1486.56 1273.22 1488.05 1270.55 1488.47 1268.08 1487.95Z" fill="#A7B0BC" fill-rule="evenodd"/><path d="M1292.83 1461.79C1292.83 1461.79 1292.83 1461.79 1292.83 1461.79L1196.19 1441.49C1190.86 1440.37 1187.44 1435.11 1188.56 1429.77 1189.69 1424.44 1194.93 1421.01 1200.26 1422.13 1200.27 1422.14 1200.27 1422.14 1200.27 1422.14L1296.89 1442.56C1302.22 1443.69 1305.65 1448.87 1304.52 1454.22 1303.39 1459.55 1298.17 1462.91 1292.83 1461.79Z" fill="#A7B0BC" fill-rule="evenodd"/><path d="M1234.33 1499.94C1234.33 1499.94 1234.33 1499.94 1234.32 1499.94 1228.99 1498.82 1225.57 1493.64 1226.69 1488.3L1247.07 1391.65C1248.19 1386.31 1253.44 1382.86 1258.77 1383.99 1258.77 1383.99 1258.77 1383.99 1258.77 1383.99 1264.12 1385.11 1267.51 1390.42 1266.39 1395.75L1246.02 1492.35C1244.9 1497.68 1239.66 1501.06 1234.33 1499.94Z" fill="#A7B0BC" fill-rule="evenodd"/><path d="M1897.85 1480.25C1895.38 1479.73 1893.1 1478.27 1891.62 1475.98 1888.63 1471.41 1889.93 1465.29 1894.5 1462.32L1966.89 1415.14C1971.46 1412.17 1977.58 1413.45 1980.55 1418.02 1983.53 1422.59 1982.24 1428.7 1977.67 1431.69L1905.28 1478.86C1903 1480.35 1900.33 1480.77 1897.85 1480.25Z" fill="#A7B0BC" fill-rule="evenodd"/><path d="M1957.64 1492.85C1955.16 1492.33 1952.88 1490.88 1951.4 1488.58L1904.22 1416.2C1901.25 1411.62 1902.53 1405.51 1907.11 1402.53 1911.67 1399.56 1917.79 1400.85 1920.77 1405.41L1967.94 1477.81C1970.92 1482.37 1969.63 1488.49 1965.06 1491.47 1962.78 1492.96 1960.11 1493.37 1957.64 1492.85Z" fill="#A7B0BC" fill-rule="evenodd"/><path d="M1982.39 1466.7C1982.39 1466.7 1982.39 1466.7 1982.39 1466.7L1885.75 1446.4C1880.41 1445.28 1877 1440.02 1878.12 1434.68 1879.25 1429.35 1884.49 1425.92 1889.82 1427.04 1889.83 1427.04 1889.83 1427.04 1889.83 1427.04L1986.45 1447.47C1991.78 1448.6 1995.21 1453.78 1994.08 1459.12 1992.95 1464.46 1987.73 1467.82 1982.39 1466.7Z" fill="#A7B0BC" fill-rule="evenodd"/><path d="M1923.89 1504.85C1923.89 1504.85 1923.89 1504.85 1923.88 1504.85 1918.55 1503.72 1915.12 1498.54 1916.25 1493.21L1936.63 1396.55C1937.75 1391.22 1943 1387.77 1948.33 1388.89 1948.33 1388.89 1948.33 1388.89 1948.33 1388.89 1953.67 1390.02 1957.07 1395.32 1955.95 1400.66L1935.58 1497.26C1934.46 1502.59 1929.22 1505.97 1923.89 1504.85Z" fill="#A7B0BC" fill-rule="evenodd"/></g></svg>