<svg width="1433" height="1353" xmlns="http://www.w3.org/2000/svg" xmlns:xlink="http://www.w3.org/1999/xlink" xml:space="preserve" overflow="hidden"><defs><clipPath id="clip0"><rect x="1476" y="140" width="1433" height="1353"/></clipPath></defs><g clip-path="url(#clip0)" transform="translate(-1476 -140)"><path d="M2316.92 140.788C2474.19 140.769 2607.03 226.157 2649.68 343.264L2654.05 357.724 2656.9 361.712C2661.89 369.164 2666.71 376.877 2671.34 384.836L2683.62 407.501 2699.33 410.101C2754.62 421.756 2804.46 450.122 2840.79 495.006 2858.59 516.99 2871.88 541.375 2880.84 567.224L2887.61 590.911 2890.04 596.089C2914.55 655.812 2916.11 733.344 2888.92 809.654 2872.96 854.432 2849.1 893.192 2820.67 923.717L2803.81 939.957 2798.67 946.713C2771.44 975.441 2727.06 998.638 2673.89 1010.24L2664.76 1011.66 2662.72 1012.31C2650.31 1015.4 2637.28 1017.8 2623.77 1019.42L2582.87 1021.84 2573.84 1023.25 2560.8 1023.71 2560.42 1023.97C2559.15 1024.51 2557.74 1024.81 2556.27 1024.81L2395.44 1024.77 2394.07 1024.49 2332.85 1024.5 2310.43 1046.46C2292.27 1061.8 2270.47 1075.79 2245.88 1087.46L2228.33 1094.51 2211.29 1103.54C2172.13 1121.5 2126.16 1131.84 2077 1131.85 2005.48 1131.86 1940.74 1109.99 1893.88 1074.63L1879.07 1061.08 1876.94 1059.32 1875.93 1058.21 1862.26 1045.71C1857.61 1040.51 1853.28 1035.14 1849.29 1029.6L1846.24 1024.81 1772.16 1024.81 1761.6 1026.71 1743.69 1027.66 1743.44 1027.72C1714.83 1031.53 1683.08 1028.37 1651.67 1017.11 1625.5 1007.73 1602.67 993.844 1584.33 977.23L1578.35 970.563 1574.25 967.763C1548.08 946.281 1524.12 912.013 1508.59 870.052L1508.33 869.208 1508.21 869.015C1503.38 859.566 1498.97 849.556 1495.08 839.066 1491.2 828.575 1488.02 818.101 1485.54 807.766L1480.56 779.733 1479.87 776.86C1476.48 757.163 1475.35 735.694 1476.92 713.355L1480.23 687.919 1480.26 684.891C1482.63 651.384 1490.75 620.678 1502.72 595.581L1508.77 584.961 1509.69 582.246C1527.07 544.057 1554.89 514.082 1591.77 498.058 1597.92 495.388 1604.18 493.168 1610.51 491.385L1617.6 489.893 1617.88 489.135C1685.71 331.013 1847.28 243.769 1993.05 292.268L2006.65 297.683 2011.67 289.178C2070.46 200.805 2185.12 140.804 2316.92 140.788Z" fill="#FFFFFF" fill-rule="evenodd"/><path d="M2514.27 1457.98C2511.12 1457.32 2508.23 1455.47 2506.34 1452.56 2502.54 1446.74 2504.19 1438.96 2510.01 1435.18L2602.07 1375.18C2607.88 1371.4 2615.66 1373.03 2619.45 1378.85 2623.23 1384.65 2621.59 1392.43 2615.78 1396.22L2523.71 1456.22C2520.81 1458.12 2517.42 1458.65 2514.27 1457.98Z" fill="#A7B0BC" fill-rule="evenodd"/><path d="M2590.3 1474.02C2587.16 1473.35 2584.26 1471.5 2582.37 1468.59L2522.37 1376.52C2518.59 1370.71 2520.23 1362.93 2526.04 1359.15 2531.84 1355.36 2539.63 1357 2543.42 1362.8L2603.41 1454.88C2607.2 1460.68 2605.56 1468.47 2599.75 1472.26 2596.85 1474.15 2593.45 1474.68 2590.3 1474.02Z" fill="#A7B0BC" fill-rule="evenodd"/><path d="M2621.79 1440.75C2621.79 1440.75 2621.79 1440.75 2621.79 1440.75L2498.88 1414.94C2492.09 1413.51 2487.75 1406.82 2489.18 1400.04 2490.62 1393.25 2497.27 1388.89 2504.06 1390.32 2504.07 1390.32 2504.07 1390.32 2504.07 1390.32L2626.94 1416.3C2633.72 1417.74 2638.09 1424.33 2636.65 1431.12 2635.22 1437.9 2628.57 1442.18 2621.79 1440.75Z" fill="#A7B0BC" fill-rule="evenodd"/><path d="M2547.38 1489.27C2547.38 1489.27 2547.38 1489.27 2547.37 1489.27 2540.59 1487.84 2536.24 1481.25 2537.66 1474.47L2563.59 1351.54C2565.01 1344.76 2571.69 1340.38 2578.47 1341.8 2578.47 1341.8 2578.47 1341.8 2578.47 1341.8 2585.27 1343.23 2589.58 1349.98 2588.16 1356.76L2562.25 1479.62C2560.82 1486.4 2554.17 1490.7 2547.38 1489.27Z" fill="#A7B0BC" fill-rule="evenodd"/><path d="M2695.55 1192.5C2698.7 1193.16 2701.6 1195.01 2703.48 1197.93 2707.28 1203.74 2705.63 1211.52 2699.82 1215.3L2607.75 1275.3C2601.94 1279.08 2594.16 1277.45 2590.38 1271.63 2586.59 1265.83 2588.23 1258.05 2594.05 1254.26L2686.11 1194.26C2689.01 1192.37 2692.41 1191.84 2695.55 1192.5Z" fill="#A7B0BC" fill-rule="evenodd"/><path d="M2619.52 1176.47C2622.67 1177.13 2625.56 1178.98 2627.45 1181.9L2687.45 1273.96C2691.24 1279.77 2689.6 1287.55 2683.78 1291.33 2677.98 1295.12 2670.19 1293.48 2666.41 1287.68L2606.41 1195.6C2602.62 1189.8 2604.26 1182.01 2610.08 1178.23 2612.98 1176.33 2616.38 1175.8 2619.52 1176.47Z" fill="#A7B0BC" fill-rule="evenodd"/><path d="M2588.04 1209.73C2588.04 1209.73 2588.04 1209.73 2588.04 1209.73L2710.95 1235.55C2717.73 1236.97 2722.07 1243.66 2720.65 1250.45 2719.21 1257.23 2712.55 1261.59 2705.77 1260.16 2705.76 1260.16 2705.76 1260.16 2705.76 1260.16L2582.88 1234.19C2576.1 1232.75 2571.74 1226.16 2573.18 1219.36 2574.6 1212.58 2581.25 1208.3 2588.04 1209.73Z" fill="#A7B0BC" fill-rule="evenodd"/><path d="M2662.44 1161.21C2662.44 1161.21 2662.44 1161.21 2662.45 1161.21 2669.24 1162.64 2673.59 1169.23 2672.16 1176.01L2646.24 1298.94C2644.81 1305.72 2638.14 1310.11 2631.35 1308.68 2631.35 1308.68 2631.35 1308.68 2631.35 1308.68 2624.56 1307.25 2620.24 1300.5 2621.67 1293.72L2647.57 1170.87C2649 1164.08 2655.66 1159.78 2662.44 1161.21Z" fill="#A7B0BC" fill-rule="evenodd"/><path d="M1919.88 1461.03C1916.73 1460.37 1913.84 1458.52 1911.95 1455.6 1908.15 1449.79 1909.8 1442.01 1915.62 1438.23L2007.68 1378.23C2013.49 1374.44 2021.27 1376.08 2025.06 1381.89 2028.84 1387.7 2027.2 1395.48 2021.39 1399.27L1929.32 1459.27C1926.42 1461.16 1923.03 1461.69 1919.88 1461.03Z" fill="#A7B0BC" fill-rule="evenodd"/><path d="M1995.91 1477.06C1992.77 1476.4 1989.87 1474.55 1987.98 1471.63L1927.98 1379.57C1924.2 1373.76 1925.83 1365.98 1931.65 1362.2 1937.45 1358.41 1945.24 1360.05 1949.03 1365.85L2009.02 1457.93C2012.81 1463.73 2011.17 1471.52 2005.36 1475.3 2002.45 1477.19 1999.06 1477.72 1995.91 1477.06Z" fill="#A7B0BC" fill-rule="evenodd"/><path d="M2027.4 1443.8C2027.4 1443.8 2027.4 1443.8 2027.4 1443.8L1904.49 1417.98C1897.7 1416.55 1893.36 1409.87 1894.79 1403.08 1896.23 1396.3 1902.88 1391.94 1909.66 1393.36 1909.68 1393.37 1909.68 1393.37 1909.68 1393.37L2032.55 1419.34C2039.33 1420.78 2043.7 1427.37 2042.26 1434.17 2040.83 1440.95 2034.18 1445.22 2027.4 1443.8Z" fill="#A7B0BC" fill-rule="evenodd"/><path d="M1952.99 1492.32C1952.99 1492.32 1952.99 1492.32 1952.98 1492.31 1946.2 1490.89 1941.85 1484.3 1943.27 1477.52L1969.2 1354.59C1970.62 1347.81 1977.29 1343.42 1984.08 1344.85 1984.08 1344.85 1984.08 1344.85 1984.08 1344.85 1990.88 1346.28 1995.19 1353.03 1993.77 1359.81L1967.86 1482.66C1966.43 1489.45 1959.78 1493.74 1952.99 1492.32Z" fill="#A7B0BC" fill-rule="evenodd"/><path d="M2101.16 1195.54C2104.31 1196.21 2107.2 1198.06 2109.09 1200.97 2112.89 1206.79 2111.24 1214.57 2105.43 1218.35L2013.36 1278.35C2007.55 1282.13 1999.77 1280.49 1995.99 1274.68 1992.2 1268.88 1993.84 1261.1 1999.66 1257.3L2091.72 1197.31C2094.62 1195.41 2098.02 1194.88 2101.16 1195.54Z" fill="#A7B0BC" fill-rule="evenodd"/><path d="M2025.13 1179.51C2028.28 1180.17 2031.17 1182.03 2033.06 1184.94L2093.06 1277C2096.84 1282.82 2095.21 1290.6 2089.39 1294.38 2083.59 1298.16 2075.8 1296.53 2072.02 1290.72L2012.02 1198.65C2008.23 1192.85 2009.87 1185.06 2015.69 1181.27 2018.59 1179.38 2021.98 1178.85 2025.13 1179.51Z" fill="#A7B0BC" fill-rule="evenodd"/><path d="M1993.65 1212.78C1993.65 1212.78 1993.65 1212.78 1993.65 1212.78L2116.56 1238.59C2123.34 1240.02 2127.68 1246.71 2126.26 1253.49 2124.82 1260.28 2118.16 1264.64 2111.38 1263.21 2111.37 1263.21 2111.37 1263.21 2111.37 1263.21L1988.49 1237.23C1981.71 1235.79 1977.34 1229.2 1978.79 1222.41 1980.21 1215.62 1986.86 1211.35 1993.65 1212.78Z" fill="#A7B0BC" fill-rule="evenodd"/><path d="M2068.05 1164.26C2068.05 1164.26 2068.05 1164.26 2068.06 1164.26 2074.84 1165.69 2079.2 1172.28 2077.77 1179.06L2051.85 1301.98C2050.42 1308.77 2043.75 1313.15 2036.96 1311.73 2036.96 1311.73 2036.96 1311.73 2036.96 1311.73 2030.17 1310.3 2025.85 1303.55 2027.28 1296.77L2053.18 1173.91C2054.61 1167.13 2061.26 1162.83 2068.05 1164.26Z" fill="#A7B0BC" fill-rule="evenodd"/><path d="M2228.39 1459.2C2225.24 1458.54 2222.34 1456.69 2220.45 1453.78 2216.66 1447.96 2218.31 1440.18 2224.12 1436.4L2316.18 1376.4C2322 1372.62 2329.78 1374.25 2333.56 1380.07 2337.35 1385.87 2335.71 1393.65 2329.89 1397.44L2237.83 1457.44C2234.93 1459.34 2231.53 1459.87 2228.39 1459.2Z" fill="#A7B0BC" fill-rule="evenodd"/><path d="M2304.42 1475.24C2301.27 1474.57 2298.38 1472.72 2296.49 1469.81L2236.49 1377.74C2232.7 1371.93 2234.34 1364.15 2240.15 1360.37 2245.96 1356.58 2253.75 1358.22 2257.53 1364.02L2317.53 1456.1C2321.31 1461.9 2319.67 1469.69 2313.86 1473.48 2310.96 1475.37 2307.56 1475.9 2304.42 1475.24Z" fill="#A7B0BC" fill-rule="evenodd"/><path d="M2335.9 1441.97C2335.9 1441.97 2335.9 1441.97 2335.9 1441.97L2212.99 1416.16C2206.21 1414.73 2201.86 1408.04 2203.29 1401.26 2204.73 1394.47 2211.39 1390.11 2218.17 1391.54 2218.18 1391.54 2218.18 1391.54 2218.18 1391.54L2341.06 1417.52C2347.84 1418.96 2352.2 1425.55 2350.76 1432.34 2349.33 1439.12 2342.69 1443.4 2335.9 1441.97Z" fill="#A7B0BC" fill-rule="evenodd"/><path d="M2261.5 1490.49C2261.5 1490.49 2261.5 1490.49 2261.49 1490.49 2254.7 1489.06 2250.35 1482.47 2251.78 1475.69L2277.7 1352.76C2279.13 1345.98 2285.8 1341.59 2292.58 1343.02 2292.58 1343.02 2292.58 1343.02 2292.58 1343.02 2299.38 1344.45 2303.7 1351.2 2302.27 1357.98L2276.36 1480.84C2274.94 1487.62 2268.28 1491.92 2261.5 1490.49Z" fill="#A7B0BC" fill-rule="evenodd"/><path d="M2409.67 1193.72C2412.81 1194.38 2415.71 1196.23 2417.6 1199.15 2421.39 1204.96 2419.75 1212.74 2413.93 1216.52L2321.87 1276.52C2316.05 1280.3 2308.28 1278.67 2304.49 1272.85 2300.71 1267.05 2302.34 1259.27 2308.16 1255.48L2400.22 1195.48C2403.12 1193.59 2406.52 1193.06 2409.67 1193.72Z" fill="#A7B0BC" fill-rule="evenodd"/><path d="M2333.64 1177.69C2336.78 1178.35 2339.68 1180.2 2341.57 1183.11L2401.57 1275.18C2405.35 1280.99 2403.71 1288.77 2397.9 1292.55 2392.1 1296.34 2384.31 1294.7 2380.52 1288.9L2320.52 1196.82C2316.74 1191.02 2318.38 1183.23 2324.19 1179.45 2327.09 1177.55 2330.49 1177.02 2333.64 1177.69Z" fill="#A7B0BC" fill-rule="evenodd"/><path d="M2302.15 1210.95C2302.15 1210.95 2302.15 1210.95 2302.15 1210.95L2425.06 1236.77C2431.85 1238.19 2436.19 1244.88 2434.76 1251.67 2433.32 1258.45 2426.67 1262.81 2419.88 1261.38 2419.87 1261.38 2419.87 1261.38 2419.87 1261.38L2297 1235.41C2290.21 1233.97 2285.85 1227.38 2287.29 1220.58 2288.72 1213.8 2295.37 1209.52 2302.15 1210.95Z" fill="#A7B0BC" fill-rule="evenodd"/><path d="M2376.55 1162.43C2376.55 1162.43 2376.55 1162.43 2376.57 1162.43 2383.35 1163.86 2387.7 1170.45 2386.27 1177.23L2360.35 1300.16C2358.93 1306.94 2352.25 1311.33 2345.47 1309.9 2345.47 1309.9 2345.47 1309.9 2345.47 1309.9 2338.67 1308.47 2334.36 1301.72 2335.78 1294.94L2361.69 1172.09C2363.12 1165.3 2369.77 1161 2376.55 1162.43Z" fill="#A7B0BC" fill-rule="evenodd"/><path d="M1615.12 1455.62C1611.98 1454.96 1609.08 1453.1 1607.19 1450.19 1603.4 1444.38 1605.05 1436.6 1610.86 1432.82L1702.92 1372.82C1708.74 1369.03 1716.52 1370.67 1720.3 1376.48 1724.08 1382.29 1722.45 1390.07 1716.63 1393.86L1624.57 1453.86C1621.67 1455.75 1618.27 1456.28 1615.12 1455.62Z" fill="#A7B0BC" fill-rule="evenodd"/><path d="M1691.15 1471.65C1688.01 1470.99 1685.11 1469.14 1683.22 1466.22L1623.22 1374.16C1619.44 1368.35 1621.08 1360.57 1626.89 1356.78 1632.69 1353 1640.48 1354.64 1644.27 1360.44L1704.27 1452.52C1708.05 1458.32 1706.41 1466.11 1700.6 1469.89 1697.7 1471.78 1694.3 1472.31 1691.15 1471.65Z" fill="#A7B0BC" fill-rule="evenodd"/><path d="M1722.64 1438.39C1722.64 1438.39 1722.64 1438.39 1722.64 1438.39L1599.73 1412.57C1592.95 1411.14 1588.6 1404.46 1590.03 1397.67 1591.47 1390.89 1598.12 1386.53 1604.91 1387.95 1604.92 1387.96 1604.92 1387.96 1604.92 1387.96L1727.8 1413.93C1734.58 1415.37 1738.94 1421.96 1737.5 1428.76 1736.07 1435.54 1729.42 1439.81 1722.64 1438.39Z" fill="#A7B0BC" fill-rule="evenodd"/><path d="M1648.24 1486.91C1648.24 1486.91 1648.24 1486.91 1648.22 1486.9 1641.44 1485.48 1637.09 1478.89 1638.52 1472.11L1664.44 1349.18C1665.87 1342.4 1672.54 1338.01 1679.32 1339.44 1679.32 1339.44 1679.32 1339.44 1679.32 1339.44 1686.12 1340.87 1690.43 1347.62 1689.01 1354.4L1663.1 1477.25C1661.67 1484.04 1655.02 1488.33 1648.24 1486.91Z" fill="#A7B0BC" fill-rule="evenodd"/><path d="M1796.41 1190.13C1799.55 1190.8 1802.45 1192.65 1804.34 1195.56 1808.13 1201.38 1806.48 1209.16 1800.67 1212.94L1708.61 1272.94C1702.79 1276.72 1695.01 1275.08 1691.23 1269.27 1687.45 1263.47 1689.08 1255.69 1694.9 1251.89L1786.96 1191.9C1789.86 1190 1793.26 1189.47 1796.41 1190.13Z" fill="#A7B0BC" fill-rule="evenodd"/><path d="M1720.37 1174.1C1723.52 1174.76 1726.42 1176.62 1728.31 1179.53L1788.31 1271.59C1792.09 1277.41 1790.45 1285.19 1784.64 1288.97 1778.84 1292.75 1771.04 1291.12 1767.26 1285.31L1707.26 1193.24C1703.48 1187.44 1705.12 1179.65 1710.93 1175.86 1713.83 1173.97 1717.23 1173.44 1720.37 1174.1Z" fill="#A7B0BC" fill-rule="evenodd"/><path d="M1688.89 1207.37C1688.89 1207.37 1688.89 1207.37 1688.89 1207.37L1811.8 1233.18C1818.58 1234.61 1822.93 1241.3 1821.5 1248.08 1820.06 1254.86 1813.4 1259.23 1806.62 1257.8 1806.61 1257.8 1806.61 1257.8 1806.61 1257.8L1683.73 1231.82C1676.95 1230.38 1672.59 1223.79 1674.03 1217 1675.46 1210.21 1682.11 1205.94 1688.89 1207.37Z" fill="#A7B0BC" fill-rule="evenodd"/><path d="M1763.29 1158.85C1763.29 1158.85 1763.29 1158.85 1763.3 1158.85 1770.09 1160.28 1774.44 1166.87 1773.01 1173.65L1747.09 1296.57C1745.66 1303.36 1738.99 1307.74 1732.21 1306.32 1732.21 1306.32 1732.21 1306.32 1732.21 1306.32 1725.41 1304.89 1721.09 1298.14 1722.52 1291.35L1748.43 1168.5C1749.85 1161.72 1756.51 1157.42 1763.29 1158.85Z" fill="#A7B0BC" fill-rule="evenodd"/></g></svg>