<svg width="1434" height="1351" xmlns="http://www.w3.org/2000/svg" xmlns:xlink="http://www.w3.org/1999/xlink" xml:space="preserve" overflow="hidden"><defs><clipPath id="clip0"><rect x="16" y="148" width="1434" height="1351"/></clipPath></defs><g clip-path="url(#clip0)" transform="translate(-16 -148)"><path d="M857.195 148.221C1014.47 148.202 1147.3 233.59 1189.95 350.697L1194.32 365.156 1197.18 369.145C1202.16 376.597 1206.98 384.309 1211.61 392.269L1223.89 414.934 1239.6 417.534C1294.9 429.188 1344.73 457.555 1381.06 502.439 1398.86 524.423 1412.15 548.807 1421.11 574.656L1427.88 598.344 1430.31 603.521C1454.82 663.244 1456.38 740.777 1429.19 817.086 1413.24 861.865 1389.37 900.625 1360.94 931.15L1344.08 947.39 1338.95 954.146C1311.71 982.874 1267.33 1006.07 1214.16 1017.67L1205.03 1019.09 1202.99 1019.74C1190.58 1022.83 1177.55 1025.23 1164.04 1026.86L1123.14 1029.28 1114.11 1030.68 1101.08 1031.14 1100.69 1031.4C1099.42 1031.94 1098.01 1032.24 1096.54 1032.24L935.709 1032.2 934.337 1031.92 873.121 1031.93 850.702 1053.89C832.541 1069.24 810.74 1083.23 786.148 1094.89L768.598 1101.94 751.557 1110.97C712.399 1128.93 666.433 1139.27 617.268 1139.28 545.755 1139.29 481.014 1117.42 434.154 1082.06L419.341 1068.51 417.208 1066.76 416.199 1065.64 402.535 1053.14C397.881 1047.94 393.551 1042.57 389.565 1037.03L386.507 1032.24 312.435 1032.25 301.871 1034.15 283.956 1035.1 283.71 1035.15C255.099 1038.96 223.35 1035.8 191.944 1024.54 165.773 1015.16 142.938 1001.28 124.6 984.663L118.619 977.995 114.522 975.195C88.3479 953.713 64.3917 919.445 48.8569 877.485L48.599 876.64 48.4854 876.447C43.6459 866.998 39.236 856.989 35.3522 846.499 31.4684 836.008 28.295 825.534 25.8101 815.199L20.8315 787.166 20.1425 784.292C16.7482 764.596 15.6173 743.126 17.1946 720.788L20.4961 695.352 20.5316 692.324C22.8975 658.816 31.0194 628.111 42.988 603.014L49.0409 592.394 49.9652 589.678C67.3417 551.49 95.1582 521.515 132.045 505.491 138.193 502.82 144.447 500.601 150.784 498.817L157.866 497.326 158.153 496.567C225.982 338.446 387.555 251.201 533.322 299.701L546.918 305.115 551.936 296.611C610.73 208.237 725.387 148.236 857.195 148.221Z" fill="#FFFFFF" fill-rule="evenodd"/><path d="M1092.35 1458.54C1089.21 1457.88 1086.31 1456.03 1084.42 1453.11 1080.63 1447.3 1082.28 1439.52 1088.09 1435.74L1180.15 1375.74C1185.97 1371.96 1193.75 1373.59 1197.53 1379.41 1201.31 1385.21 1199.68 1392.99 1193.86 1396.78L1101.8 1456.78C1098.9 1458.67 1095.5 1459.2 1092.35 1458.54Z" fill="#A7B0BC" fill-rule="evenodd"/><path d="M1168.39 1474.57C1165.24 1473.91 1162.34 1472.06 1160.45 1469.14L1100.45 1377.08C1096.67 1371.27 1098.31 1363.49 1104.12 1359.71 1109.92 1355.92 1117.72 1357.56 1121.5 1363.36L1181.5 1455.44C1185.28 1461.24 1183.64 1469.03 1177.83 1472.81 1174.93 1474.71 1171.53 1475.24 1168.39 1474.57Z" fill="#A7B0BC" fill-rule="evenodd"/><path d="M1199.87 1441.31C1199.87 1441.31 1199.87 1441.31 1199.87 1441.31L1076.96 1415.49C1070.18 1414.07 1065.83 1407.38 1067.26 1400.59 1068.7 1393.81 1075.35 1389.45 1082.14 1390.88 1082.15 1390.88 1082.15 1390.88 1082.15 1390.88L1205.03 1416.85C1211.81 1418.29 1216.17 1424.88 1214.73 1431.68 1213.3 1438.46 1206.65 1442.74 1199.87 1441.31Z" fill="#A7B0BC" fill-rule="evenodd"/><path d="M1125.47 1489.83C1125.47 1489.83 1125.47 1489.83 1125.46 1489.83 1118.67 1488.4 1114.32 1481.81 1115.75 1475.03L1141.67 1352.1C1143.1 1345.32 1149.77 1340.93 1156.55 1342.36 1156.55 1342.36 1156.55 1342.36 1156.55 1342.36 1163.35 1343.79 1167.67 1350.54 1166.24 1357.32L1140.33 1480.17C1138.91 1486.96 1132.25 1491.26 1125.47 1489.83Z" fill="#A7B0BC" fill-rule="evenodd"/><path d="M1273.64 1193.06C1276.78 1193.72 1279.68 1195.57 1281.57 1198.48 1285.36 1204.3 1283.71 1212.08 1277.9 1215.86L1185.84 1275.86C1180.02 1279.64 1172.24 1278.01 1168.46 1272.19 1164.68 1266.39 1166.31 1258.61 1172.13 1254.82L1264.19 1194.82C1267.09 1192.92 1270.49 1192.39 1273.64 1193.06Z" fill="#A7B0BC" fill-rule="evenodd"/><path d="M1197.6 1177.02C1200.75 1177.69 1203.65 1179.54 1205.54 1182.45L1265.54 1274.52C1269.32 1280.33 1267.68 1288.11 1261.87 1291.89 1256.07 1295.68 1248.27 1294.04 1244.49 1288.24L1184.49 1196.16C1180.71 1190.36 1182.35 1182.57 1188.16 1178.78 1191.06 1176.89 1194.46 1176.36 1197.6 1177.02Z" fill="#A7B0BC" fill-rule="evenodd"/><path d="M1166.12 1210.29C1166.12 1210.29 1166.12 1210.29 1166.12 1210.29L1289.03 1236.1C1295.81 1237.53 1300.16 1244.22 1298.73 1251 1297.29 1257.79 1290.64 1262.15 1283.85 1260.72 1283.84 1260.72 1283.84 1260.72 1283.84 1260.72L1160.96 1234.74C1154.18 1233.3 1149.82 1226.71 1151.26 1219.92 1152.69 1213.14 1159.34 1208.86 1166.12 1210.29Z" fill="#A7B0BC" fill-rule="evenodd"/><path d="M1240.52 1161.77C1240.52 1161.77 1240.52 1161.77 1240.53 1161.77 1247.32 1163.2 1251.67 1169.79 1250.24 1176.57L1224.32 1299.5C1222.89 1306.28 1216.22 1310.67 1209.44 1309.24 1209.44 1309.24 1209.44 1309.24 1209.44 1309.24 1202.64 1307.81 1198.32 1301.06 1199.75 1294.28L1225.66 1171.42C1227.08 1164.64 1233.74 1160.34 1240.52 1161.77Z" fill="#A7B0BC" fill-rule="evenodd"/><path d="M361.957 1460.32C358.81 1459.66 355.915 1457.81 354.026 1454.89 350.231 1449.08 351.88 1441.3 357.693 1437.52L449.757 1377.52C455.57 1373.74 463.35 1375.37 467.132 1381.19 470.917 1386.99 469.281 1394.77 463.464 1398.56L371.401 1458.56C368.5 1460.45 365.103 1460.98 361.957 1460.32Z" fill="#A7B0BC" fill-rule="evenodd"/><path d="M437.989 1476.35C434.843 1475.69 431.947 1473.84 430.057 1470.92L370.057 1378.86C366.275 1373.05 367.911 1365.27 373.725 1361.49 379.527 1357.7 387.319 1359.34 391.104 1365.14L451.1 1457.22C454.885 1463.02 453.246 1470.81 447.433 1474.59 444.532 1476.48 441.135 1477.01 437.989 1476.35Z" fill="#A7B0BC" fill-rule="evenodd"/><path d="M469.473 1443.09C469.473 1443.09 469.473 1443.09 469.473 1443.09L346.564 1417.27C339.78 1415.85 335.437 1409.16 336.864 1402.37 338.303 1395.59 344.958 1391.23 351.742 1392.66 351.754 1392.66 351.754 1392.66 351.754 1392.66L474.63 1418.63C481.411 1420.07 485.775 1426.66 484.333 1433.46 482.906 1440.24 476.257 1444.51 469.473 1443.09Z" fill="#A7B0BC" fill-rule="evenodd"/><path d="M395.071 1491.61C395.071 1491.61 395.071 1491.61 395.059 1491.6 388.275 1490.18 383.924 1483.59 385.351 1476.81L411.273 1353.88C412.7 1347.1 419.372 1342.71 426.156 1344.14 426.156 1344.14 426.156 1344.14 426.156 1344.14 432.952 1345.57 437.269 1352.32 435.842 1359.1L409.936 1481.95C408.509 1488.74 401.855 1493.03 395.071 1491.61Z" fill="#A7B0BC" fill-rule="evenodd"/><path d="M543.24 1194.83C546.386 1195.5 549.282 1197.35 551.171 1200.26 554.966 1206.08 553.317 1213.86 547.504 1217.64L455.44 1277.64C449.626 1281.42 441.847 1279.78 438.065 1273.97 434.28 1268.17 435.916 1260.39 441.733 1256.6L533.796 1196.6C536.697 1194.7 540.094 1194.17 543.24 1194.83Z" fill="#A7B0BC" fill-rule="evenodd"/><path d="M467.208 1178.8C470.354 1179.46 473.25 1181.32 475.14 1184.23L535.139 1276.29C538.922 1282.11 537.285 1289.89 531.471 1293.67 525.67 1297.46 517.878 1295.82 514.093 1290.01L454.096 1197.94C450.312 1192.14 451.951 1184.35 457.764 1180.56 460.665 1178.67 464.062 1178.14 467.208 1178.8Z" fill="#A7B0BC" fill-rule="evenodd"/><path d="M435.724 1212.07C435.724 1212.07 435.724 1212.07 435.724 1212.07L558.633 1237.88C565.417 1239.31 569.76 1246 568.333 1252.78 566.893 1259.57 560.239 1263.93 553.455 1262.5 553.443 1262.5 553.443 1262.5 553.443 1262.5L430.567 1236.52C423.785 1235.08 419.422 1228.49 420.864 1221.7 422.291 1214.92 428.94 1210.64 435.724 1212.07Z" fill="#A7B0BC" fill-rule="evenodd"/><path d="M510.126 1163.55C510.126 1163.55 510.126 1163.55 510.138 1163.55 516.922 1164.98 521.273 1171.57 519.846 1178.35L493.924 1301.28C492.497 1308.06 485.825 1312.44 479.041 1311.02 479.041 1311.02 479.041 1311.02 479.041 1311.02 472.245 1309.59 467.928 1302.84 469.355 1296.06L495.261 1173.2C496.688 1166.42 503.342 1162.12 510.126 1163.55Z" fill="#A7B0BC" fill-rule="evenodd"/><path d="M610.188 1467.18C607.041 1466.52 604.146 1464.67 602.256 1461.75 598.461 1455.94 600.11 1448.16 605.923 1444.38L697.987 1384.38C703.801 1380.6 711.58 1382.23 715.363 1388.05 719.147 1393.85 717.511 1401.63 711.694 1405.42L619.632 1465.42C616.731 1467.31 613.334 1467.84 610.188 1467.18Z" fill="#A7B0BC" fill-rule="evenodd"/><path d="M686.219 1483.21C683.073 1482.55 680.177 1480.7 678.288 1477.79L618.288 1385.72C614.505 1379.91 616.142 1372.13 621.956 1368.35 627.757 1364.56 635.549 1366.2 639.334 1372L699.331 1464.08C703.116 1469.88 701.477 1477.67 695.663 1481.45 692.762 1483.35 689.365 1483.88 686.219 1483.21Z" fill="#A7B0BC" fill-rule="evenodd"/><path d="M717.703 1449.95C717.703 1449.95 717.703 1449.95 717.703 1449.95L594.794 1424.13C588.01 1422.71 583.667 1416.02 585.094 1409.23 586.534 1402.45 593.188 1398.09 599.972 1399.52 599.985 1399.52 599.985 1399.52 599.985 1399.52L722.86 1425.49C729.642 1426.93 734.005 1433.52 732.563 1440.32 731.136 1447.1 724.487 1451.38 717.703 1449.95Z" fill="#A7B0BC" fill-rule="evenodd"/><path d="M643.302 1498.47C643.302 1498.47 643.302 1498.47 643.289 1498.47 636.505 1497.04 632.154 1490.45 633.581 1483.67L659.503 1360.74C660.93 1353.96 667.602 1349.57 674.386 1351 674.386 1351 674.386 1351 674.386 1351 681.182 1352.43 685.5 1359.18 684.073 1365.96L658.167 1488.81C656.74 1495.6 650.086 1499.9 643.302 1498.47Z" fill="#A7B0BC" fill-rule="evenodd"/><path d="M791.47 1201.7C794.617 1202.36 797.512 1204.21 799.402 1207.12 803.196 1212.94 801.548 1220.72 795.734 1224.5L703.671 1284.5C697.857 1288.28 690.077 1286.65 686.295 1280.83 682.51 1275.03 684.147 1267.25 689.963 1263.46L782.026 1203.46C784.927 1201.56 788.324 1201.03 791.47 1201.7Z" fill="#A7B0BC" fill-rule="evenodd"/><path d="M715.438 1185.66C718.584 1186.33 721.48 1188.18 723.37 1191.09L783.37 1283.16C787.152 1288.97 785.516 1296.75 779.702 1300.53 773.9 1304.32 766.109 1302.68 762.324 1296.88L702.327 1204.8C698.542 1199 700.181 1191.21 705.994 1187.43 708.895 1185.53 712.292 1185 715.438 1185.66Z" fill="#A7B0BC" fill-rule="evenodd"/><path d="M683.954 1218.93C683.954 1218.93 683.954 1218.93 683.954 1218.93L806.864 1244.75C813.648 1246.17 817.99 1252.86 816.563 1259.64 815.124 1266.43 808.469 1270.79 801.685 1269.36 801.673 1269.36 801.673 1269.36 801.673 1269.36L678.797 1243.38C672.016 1241.94 667.652 1235.35 669.095 1228.56 670.522 1221.78 677.17 1217.5 683.954 1218.93Z" fill="#A7B0BC" fill-rule="evenodd"/><path d="M758.356 1170.41C758.356 1170.41 758.356 1170.41 758.369 1170.41 765.152 1171.84 769.503 1178.43 768.076 1185.21L742.155 1308.14C740.728 1314.92 734.056 1319.31 727.272 1317.88 727.272 1317.88 727.272 1317.88 727.272 1317.88 720.475 1316.45 716.158 1309.7 717.585 1302.92L743.491 1180.07C744.918 1173.28 751.572 1168.98 758.356 1170.41Z" fill="#A7B0BC" fill-rule="evenodd"/><path d="M850.752 1460.64C847.605 1459.98 844.71 1458.12 842.82 1455.21 839.026 1449.39 840.674 1441.62 846.488 1437.83L938.551 1377.83C944.365 1374.05 952.145 1375.69 955.927 1381.5 959.712 1387.3 958.075 1395.08 952.259 1398.88L860.196 1458.88C857.295 1460.77 853.898 1461.3 850.752 1460.64Z" fill="#A7B0BC" fill-rule="evenodd"/><path d="M926.784 1476.67C923.638 1476.01 920.742 1474.15 918.852 1471.24L858.852 1379.18C855.07 1373.36 856.706 1365.58 862.52 1361.8 868.322 1358.02 876.114 1359.66 879.898 1365.46L939.895 1457.53C943.68 1463.33 942.041 1471.13 936.228 1474.91 933.327 1476.8 929.93 1477.33 926.784 1476.67Z" fill="#A7B0BC" fill-rule="evenodd"/><path d="M958.268 1443.4C958.268 1443.4 958.268 1443.4 958.268 1443.4L835.358 1417.59C828.574 1416.16 824.232 1409.47 825.659 1402.69 827.098 1395.91 833.753 1391.55 840.537 1392.97 840.549 1392.97 840.549 1392.97 840.549 1392.97L963.425 1418.95C970.206 1420.39 974.57 1426.98 973.127 1433.77 971.7 1440.56 965.052 1444.83 958.268 1443.4Z" fill="#A7B0BC" fill-rule="evenodd"/><path d="M883.866 1491.92C883.866 1491.92 883.866 1491.92 883.854 1491.92 877.07 1490.49 872.719 1483.91 874.146 1477.12L900.067 1354.2C901.494 1347.41 908.166 1343.03 914.95 1344.46 914.95 1344.46 914.95 1344.46 914.95 1344.46 921.747 1345.89 926.064 1352.63 924.637 1359.42L898.731 1482.27C897.304 1489.05 890.65 1493.35 883.866 1491.92Z" fill="#A7B0BC" fill-rule="evenodd"/><path d="M1032.03 1195.15C1035.18 1195.81 1038.08 1197.67 1039.97 1200.58 1043.76 1206.4 1042.11 1214.17 1036.3 1217.96L944.235 1277.96C938.421 1281.74 930.642 1280.1 926.859 1274.29 923.075 1268.49 924.711 1260.71 930.528 1256.91L1022.59 1196.91C1025.49 1195.02 1028.89 1194.49 1032.03 1195.15Z" fill="#A7B0BC" fill-rule="evenodd"/><path d="M956.003 1179.12C959.149 1179.78 962.045 1181.64 963.934 1184.55L1023.93 1276.61C1027.72 1282.43 1026.08 1290.2 1020.27 1293.99 1014.46 1297.77 1006.67 1296.13 1002.89 1290.33L942.891 1198.26C939.106 1192.45 940.745 1184.66 946.559 1180.88 949.46 1178.99 952.857 1178.46 956.003 1179.12Z" fill="#A7B0BC" fill-rule="evenodd"/><path d="M924.519 1212.39C924.519 1212.39 924.519 1212.39 924.519 1212.39L1047.43 1238.2C1054.21 1239.63 1058.55 1246.32 1057.13 1253.1 1055.69 1259.88 1049.03 1264.24 1042.25 1262.82 1042.24 1262.82 1042.24 1262.82 1042.24 1262.82L919.362 1236.84C912.58 1235.4 908.217 1228.81 909.659 1222.02 911.086 1215.23 917.735 1210.96 924.519 1212.39Z" fill="#A7B0BC" fill-rule="evenodd"/><path d="M998.92 1163.87C998.92 1163.87 998.92 1163.87 998.933 1163.87 1005.72 1165.29 1010.07 1171.88 1008.64 1178.67L982.719 1301.59C981.292 1308.38 974.62 1312.76 967.836 1311.33 967.836 1311.33 967.836 1311.33 967.836 1311.33 961.04 1309.9 956.722 1303.16 958.149 1296.37L984.056 1173.52C985.483 1166.74 992.137 1162.44 998.92 1163.87Z" fill="#A7B0BC" fill-rule="evenodd"/><path d="M117.581 1463.05C114.434 1462.39 111.539 1460.54 109.649 1457.62 105.855 1451.81 107.504 1444.03 113.317 1440.25L205.38 1380.25C211.194 1376.47 218.974 1378.1 222.756 1383.92 226.541 1389.72 224.904 1397.5 219.088 1401.29L127.025 1461.29C124.124 1463.18 120.727 1463.72 117.581 1463.05Z" fill="#A7B0BC" fill-rule="evenodd"/><path d="M193.613 1479.08C190.467 1478.42 187.571 1476.57 185.681 1473.66L125.681 1381.59C121.899 1375.78 123.535 1368 129.349 1364.22 135.151 1360.43 142.943 1362.07 146.728 1367.87L206.724 1459.95C210.509 1465.75 208.87 1473.54 203.057 1477.32 200.156 1479.22 196.759 1479.75 193.613 1479.08Z" fill="#A7B0BC" fill-rule="evenodd"/><path d="M225.097 1445.82C225.097 1445.82 225.097 1445.82 225.097 1445.82L102.187 1420C95.4035 1418.58 91.0607 1411.89 92.4877 1405.1 93.9274 1398.32 100.582 1393.96 107.366 1395.39 107.378 1395.39 107.378 1395.39 107.378 1395.39L230.254 1421.37C237.035 1422.8 241.399 1429.4 239.957 1436.19 238.53 1442.97 231.881 1447.25 225.097 1445.82Z" fill="#A7B0BC" fill-rule="evenodd"/><path d="M150.695 1494.34C150.695 1494.34 150.695 1494.34 150.683 1494.34 143.899 1492.91 139.548 1486.32 140.975 1479.54L166.896 1356.61C168.323 1349.83 174.996 1345.44 181.779 1346.87 181.779 1346.87 181.779 1346.87 181.779 1346.87 188.576 1348.3 192.893 1355.05 191.466 1361.83L165.56 1484.68C164.133 1491.47 157.479 1495.77 150.695 1494.34Z" fill="#A7B0BC" fill-rule="evenodd"/><path d="M298.864 1197.57C302.01 1198.23 304.906 1200.08 306.795 1203 310.59 1208.81 308.941 1216.59 303.128 1220.37L211.064 1280.37C205.25 1284.15 197.471 1282.52 193.689 1276.7 189.904 1270.9 191.54 1263.12 197.357 1259.33L289.419 1199.33C292.321 1197.44 295.717 1196.9 298.864 1197.57Z" fill="#A7B0BC" fill-rule="evenodd"/><path d="M222.832 1181.54C225.978 1182.2 228.874 1184.05 230.763 1186.96L290.763 1279.03C294.546 1284.84 292.909 1292.62 287.095 1296.4 281.294 1300.19 273.502 1298.55 269.717 1292.75L209.72 1200.67C205.935 1194.87 207.574 1187.08 213.388 1183.3 216.289 1181.4 219.686 1180.87 222.832 1181.54Z" fill="#A7B0BC" fill-rule="evenodd"/><path d="M191.348 1214.8C191.348 1214.8 191.348 1214.8 191.348 1214.8L314.257 1240.62C321.041 1242.04 325.384 1248.73 323.957 1255.52 322.517 1262.3 315.863 1266.66 309.079 1265.23 309.066 1265.23 309.066 1265.23 309.066 1265.23L186.191 1239.25C179.409 1237.82 175.046 1231.22 176.488 1224.43 177.915 1217.65 184.564 1213.37 191.348 1214.8Z" fill="#A7B0BC" fill-rule="evenodd"/><path d="M265.749 1166.28C265.749 1166.28 265.749 1166.28 265.762 1166.28 272.546 1167.71 276.897 1174.3 275.47 1181.08L249.548 1304.01C248.121 1310.79 241.449 1315.18 234.665 1313.75 234.665 1313.75 234.665 1313.75 234.665 1313.75 227.869 1312.32 223.551 1305.57 224.978 1298.79L250.885 1175.94C252.312 1169.15 258.966 1164.85 265.749 1166.28Z" fill="#A7B0BC" fill-rule="evenodd"/></g></svg>