<svg width="1434" height="1401" xmlns="http://www.w3.org/2000/svg" xmlns:xlink="http://www.w3.org/1999/xlink" xml:space="preserve" overflow="hidden"><defs><clipPath id="clip0"><rect x="49" y="-149" width="1434" height="1401"/></clipPath></defs><g clip-path="url(#clip0)" transform="translate(-49 149)"><path d="M890.371-148.036C1047.64-148.055 1180.48-62.6676 1223.12 54.4396L1227.5 68.8992 1230.35 72.8873C1235.34 80.3396 1240.16 88.0521 1244.79 96.0114L1257.06 118.676 1272.78 121.276C1328.07 132.931 1377.9 161.298 1414.24 206.181 1432.03 228.165 1445.33 252.55 1454.28 278.399L1461.06 302.087 1463.48 307.264C1488 366.987 1489.56 444.52 1462.37 520.829 1446.41 565.607 1422.55 604.367 1394.11 634.893L1377.25 651.132 1372.12 657.888C1344.89 686.617 1300.5 709.813 1247.33 721.414L1238.21 722.832 1236.17 723.484C1223.76 726.575 1210.73 728.974 1197.22 730.599L1156.32 733.019 1147.28 734.423 1134.25 734.885 1133.87 735.144C1132.59 735.685 1131.19 735.984 1129.71 735.984L968.885 735.944 967.513 735.666 906.297 735.673 883.878 757.635C865.717 772.978 843.916 786.969 819.324 798.631L801.774 805.684 784.733 814.714C745.575 832.672 699.609 843.017 650.444 843.023 578.931 843.031 514.19 821.165 467.33 785.804L452.517 772.255 450.384 770.498 449.375 769.381 435.711 756.884C431.057 751.686 426.727 746.31 422.741 740.773L419.683 735.981 345.611 735.99 335.047 737.889 317.132 738.84 316.886 738.894C288.275 742.707 256.526 739.542 225.12 728.287 198.949 718.907 176.114 705.019 157.776 688.405L151.795 681.738 147.698 678.938C121.524 657.456 97.5677 623.188 82.033 581.227L81.775 580.383 81.6614 580.19C76.8219 570.741 72.412 560.731 68.5282 550.241 64.6444 539.751 61.4711 529.277 58.9861 518.942L54.0076 490.908 53.3185 488.035C49.9242 468.339 48.7933 446.869 50.3706 424.531L53.6721 399.094 53.7076 396.067C56.0735 362.559 64.1954 331.853 76.1641 306.757L82.2169 296.137 83.1412 293.421C100.518 255.232 128.334 225.258 165.221 209.233 171.369 206.563 177.623 204.343 183.96 202.56L191.042 201.068 191.329 200.31C259.158 42.1886 420.731-45.0562 566.498 3.44365L580.094 8.85786 585.112 0.353394C643.906-88.0201 758.563-148.021 890.371-148.036Z" fill="#FFFFFF" fill-rule="evenodd"/><path d="M550.406 1050.71 489.706 1161.51C479.917 1179.38 457.493 1185.93 439.623 1176.14L407.266 1158.41 467.965 1047.61C477.755 1029.74 500.178 1023.19 518.049 1032.98L550.406 1050.71Z" fill="#5F96CD" fill-rule="evenodd"/><path d="M761.647 913.681 700.947 1024.48C691.157 1042.35 668.734 1048.9 650.864 1039.11L618.507 1021.39 679.206 910.586C688.996 892.716 711.419 886.165 729.289 895.955L761.647 913.681Z" fill="#5F96CD" fill-rule="evenodd"/><path d="M1187.75 1028.62 1127.05 1139.42C1117.26 1157.29 1094.83 1163.84 1076.96 1154.05L1044.6 1136.32 1105.3 1025.52C1115.09 1007.65 1137.52 1001.1 1155.39 1010.89L1187.75 1028.62Z" fill="#5F96CD" fill-rule="evenodd"/><path d="M447.253 913.369 386.553 1024.17C376.763 1042.04 354.34 1048.59 336.47 1038.8L304.113 1021.08 364.812 910.275C374.602 892.404 397.025 885.854 414.895 895.643L447.253 913.369Z" fill="#5F96CD" fill-rule="evenodd"/><path d="M965.675 750.637 911.34 981.611 1043.43 981.293 860.561 1251.05 900.355 1025.29 783.974 1021.98Z" fill="#F1A21B" fill-rule="evenodd"/></g></svg>