<svg width="800" height="800" viewBox="0 0 800 800" fill="none" xmlns="http://www.w3.org/2000/svg">
<circle cx="400" cy="400" r="391" transform="matrix(-1 0 0 1 800 0)" fill="#A7B0BC" stroke="#010202" stroke-width="18" stroke-miterlimit="1" stroke-linecap="round"/>
<ellipse cx="93.7272" cy="77" rx="93.7272" ry="77" transform="matrix(-0.679653 -0.733534 -0.733534 0.679653 714 194.504)" fill="#979EA9"/>
<circle cx="97.1319" cy="97.1319" r="97.1319" transform="matrix(-0.766892 -0.641776 -0.641776 0.766892 628 129.311)" fill="#979EA9"/>
<circle cx="87.5" cy="87.5" r="87.5" transform="matrix(-0.766892 -0.641776 -0.641776 0.766892 789 298.311)" fill="#979EA9"/>
<circle cx="82.3792" cy="82.3792" r="82.3792" transform="matrix(-0.766892 -0.641776 -0.641776 0.766892 737 512.311)" fill="#979EA9"/>
<circle cx="55.5736" cy="55.5736" r="55.5736" transform="matrix(-0.766892 -0.641776 -0.641776 0.766892 590 578.332)" fill="#979EA9"/>
<circle cx="36.6574" cy="36.6574" r="36.6574" transform="matrix(-0.766892 -0.641776 -0.641776 0.766892 655 639.052)" fill="#979EA9"/>
<circle cx="64.7929" cy="64.7929" r="64.7929" transform="matrix(-0.766892 -0.641776 -0.641776 0.766892 505 374.165)" fill="#979EA9"/>
<circle cx="64.7929" cy="64.7929" r="64.7929" transform="matrix(-0.766892 -0.641776 -0.641776 0.766892 336 301.165)" fill="#979EA9"/>
<circle cx="49.3917" cy="49.3917" r="49.3917" transform="matrix(-0.766892 -0.641776 -0.641776 0.766892 342 202.397)" fill="#979EA9"/>
<circle cx="53.3956" cy="53.3956" r="53.3956" transform="matrix(-0.766892 -0.641776 -0.641776 0.766892 255 352.536)" fill="#979EA9"/>
<circle cx="17.4598" cy="17.4598" r="17.4598" transform="matrix(-0.766892 -0.641776 -0.641776 0.766892 147.959 260.854)" fill="#979EA9"/>
<circle cx="22.9928" cy="22.9928" r="22.9928" transform="matrix(-0.766892 -0.641776 -0.641776 0.766892 202 447.411)" fill="#979EA9"/>
<circle cx="26.6793" cy="26.6793" r="26.6793" transform="matrix(-0.766892 -0.641776 -0.641776 0.766892 483 678.244)" fill="#979EA9"/>
<circle cx="36.752" cy="36.752" r="36.752" transform="matrix(-0.766892 -0.641776 -0.641776 0.766892 512 309.173)" fill="#979EA9"/>
<circle cx="18.7873" cy="18.7873" r="18.7873" transform="matrix(-0.766892 -0.641776 -0.641776 0.766892 375 451.114)" fill="#979EA9"/>
<circle cx="11.5" cy="11.5" r="11.5" transform="matrix(-0.766892 -0.641776 -0.641776 0.766892 408 280.761)" fill="#979EA9"/>
<path d="M400 0C347.471 0 295.457 10.3463 246.927 30.4482C198.396 50.5501 154.301 80.0139 117.157 117.157C80.0138 154.301 50.5501 198.396 30.4482 246.927C10.3463 295.457 -2.2961e-06 347.471 0 400C2.2961e-06 452.529 10.3463 504.543 30.4482 553.073C50.5501 601.604 80.0139 645.699 117.157 682.843C154.301 719.986 198.396 749.45 246.927 769.552C295.457 789.654 347.471 800 400 800L400 400L400 0Z" fill="black" fill-opacity="0.5"/>
</svg>
