<svg width="1434" height="1334" xmlns="http://www.w3.org/2000/svg" xmlns:xlink="http://www.w3.org/1999/xlink" xml:space="preserve" overflow="hidden"><defs><clipPath id="clip0"><rect x="1373" y="68" width="1434" height="1334"/></clipPath></defs><g clip-path="url(#clip0)" transform="translate(-1373 -68)"><path d="M2214.28 68.2885C2371.55 68.2697 2504.39 153.657 2547.04 270.765L2551.41 285.224 2554.26 289.212C2559.25 296.665 2564.07 304.377 2568.7 312.336L2580.98 335.001 2596.69 337.601C2651.98 349.256 2701.82 377.623 2738.15 422.506 2755.95 444.49 2769.24 468.875 2778.2 494.724L2784.97 518.412 2787.4 523.589C2811.91 583.312 2813.47 660.845 2786.28 737.154 2770.32 781.932 2746.46 820.693 2718.03 851.218L2701.17 867.457 2696.03 874.213C2668.8 902.942 2624.42 926.138 2571.25 937.739L2562.12 939.157 2560.08 939.809C2547.67 942.9 2534.64 945.299 2521.13 946.925L2480.23 949.344 2471.2 950.748 2458.16 951.21 2457.78 951.469C2456.51 952.011 2455.1 952.309 2453.63 952.309L2292.8 952.269 2291.43 951.991 2230.21 951.998 2207.79 973.96C2189.63 989.303 2167.83 1003.29 2143.24 1014.96L2125.69 1022.01 2108.65 1031.04C2069.49 1049 2023.52 1059.34 1974.36 1059.35 1902.84 1059.36 1838.1 1037.49 1791.24 1002.13L1776.43 988.58 1774.3 986.823 1773.29 985.706 1759.62 973.209C1754.97 968.011 1750.64 962.635 1746.65 957.098L1743.6 952.306 1669.52 952.315 1658.96 954.214 1641.04 955.165 1640.8 955.219C1612.19 959.032 1580.44 955.867 1549.03 944.612 1522.86 935.232 1500.03 921.344 1481.69 904.731L1475.71 898.063 1471.61 895.263C1445.44 873.781 1421.48 839.513 1405.95 797.552L1405.69 796.708 1405.57 796.515C1400.73 787.066 1396.32 777.056 1392.44 766.567 1388.56 756.076 1385.38 745.602 1382.9 735.267L1377.92 707.233 1377.23 704.36C1373.84 684.664 1372.71 663.194 1374.28 640.856L1377.59 615.419 1377.62 612.392C1379.99 578.884 1388.11 548.178 1400.08 523.082L1406.13 512.462 1407.05 509.746C1424.43 471.557 1452.25 441.583 1489.13 425.558 1495.28 422.888 1501.54 420.668 1507.87 418.885L1514.96 417.393 1515.24 416.635C1583.07 258.514 1744.64 171.269 1890.41 219.769L1904.01 225.183 1909.03 216.678C1967.82 128.305 2082.48 68.3039 2214.28 68.2885Z" fill="#223552" fill-rule="evenodd"/><path d="M1605.49 1268.7 2351.91 1255.36C2358.06 1255.25 2363.89 1255.82 2369.15 1256.95L2370.36 1257.38 2387.34 1258.71C2405.17 1260.62 2425.05 1263.62 2442.92 1266.73 2467.05 1272.39 2485.65 1277.67 2499.12 1286.38 2512.59 1295.09 2525.83 1309.83 2526.95 1321.67 2528.07 1333.51 2518.84 1346.5 2505.82 1357.42 2486.79 1369.53 2470.02 1375.24 2441.98 1383.68 2428.99 1386.7 2417.85 1389.09 2407.96 1390.99L2406.33 1391.26 2405.28 1391.58C2396.44 1393.57 2385.89 1395.35 2374.14 1396.81L2364.71 1397.61 2358.27 1398.82C2348.4 1399.98 2337.54 1400.62 2326.13 1400.71L2325.55 1400.68 2324.86 1400.81C2309.21 1402.37 2288.67 1402.21 2266.97 1399.95 2256.12 1398.82 2246.01 1397.28 2237 1395.45L2229.4 1393.42 2228.39 1393.4C2215.21 1391.92 2199.81 1387.96 2185.31 1381.88 2170.81 1375.8 2159.97 1368.76 2154.15 1362.29L2154.03 1362.06 2149.44 1358.27C2148.05 1356.38 2147.35 1354.29 2147.49 1352.07L2148.47 1336.05 2238.77 1334.44C2242.86 1334.37 2246.73 1334.75 2250.22 1335.49L2258.5 1338.43 2258.64 1337.87C2261.74 1341.75 2266.8 1345.35 2273.31 1348.45L2280.68 1351.33 2292.18 1353.56 2301.57 1354.45 2337.04 1351.98C2371.59 1348.51 2395.19 1341.94 2394.58 1327.58 2393.97 1313.22 2375.37 1305.57 2343.4 1303.74L2343.12 1303.74 1647.15 1316.18C1622.52 1316.62 1603.21 1306.17 1604.02 1292.84 1604.51 1284.79 1605 1276.75 1605.49 1268.7Z" fill="#A7B0BC" fill-rule="evenodd"/><path d="M159.543 1.47212C151.475 250.186 152.24 216.419 144.172 465.132 143.972 471.287 143.109 477.077 141.72 482.275L141.23 483.463 139.047 500.354C136.239 518.067 132.248 537.764 128.248 555.459 121.382 579.275 115.168 597.587 105.792 610.601 96.4172 623.614 81.0315 636.1 69.1498 636.621 57.268 637.141 44.7596 627.271 34.5014 613.721 23.3679 594.11 18.5083 577.071 11.4904 548.635 9.12997 535.514 7.29904 524.271 5.89854 514.291L5.71468 512.657 5.44184 511.591C3.90005 502.662 2.65233 492.03 1.78999 480.224L1.46019 470.763 0.57307 464.273C-0.0830993 454.357-0.181395 443.481 0.306796 432.082 0.324457 431.89 0.342254 431.698 0.359914 431.506L0.266274 430.806C-0.504072 415.094 0.692448 394.595 4.03846 373.035 5.71153 362.255 7.76355 352.23 10.0419 343.332L12.4456 335.84 12.5154 334.835C14.6659 321.744 19.3943 306.56 26.1913 292.387 32.9882 278.214 40.5665 267.734 47.3245 262.249L47.5625 262.138 51.5767 257.744C53.5337 256.459 55.6587 255.866 57.861 256.111L73.8128 257.892 70.8842 348.167C70.7517 352.254 70.179 356.096 69.257 359.547L65.9067 367.668 66.457 367.839C62.4329 370.733 58.5733 375.611 55.1568 381.956L51.9044 389.17 49.1007 400.544 47.7435 409.873 48.4213 445.423C50.1547 480.104 55.5244 504.008 69.901 504.122 84.2777 504.237 92.848 486.044 96.2872 454.202 96.2918 454.109 96.2964 454.015 96.3009 453.921L109.533 34.1908C110.332 9.56856 125.813-1.34894 139.085 0.132583 147.095 1.02713 151.533 0.577573 159.543 1.47212Z" fill="#A7B0BC" fill-rule="evenodd" transform="matrix(-0.0502786 0.998735 0.998735 0.0502786 1822.87 1065.16)"/></g></svg>