<svg width="440" height="417" xmlns="http://www.w3.org/2000/svg" xmlns:xlink="http://www.w3.org/1999/xlink" xml:space="preserve" overflow="hidden"><defs><clipPath id="clip0"><rect x="2499" y="198" width="440" height="417"/></clipPath></defs><g clip-path="url(#clip0)" transform="translate(-2499 -198)"><path d="M2576 408.5C2576 329.799 2640.02 266 2719 266 2797.98 266 2862 329.799 2862 408.5 2862 487.201 2797.98 551 2719 551 2640.02 551 2576 487.201 2576 408.5Z" fill-rule="evenodd"/><path d="M2848.02 400.227C2845.71 403.594 2846.14 368.598 2837.82 352.387 2829.5 336.175 2814.41 315.557 2798.09 302.956 2781.77 290.354 2758.84 280.606 2739.88 276.775 2720.93 272.945 2700.98 275.425 2684.34 279.974 2663.24 285.84 2644.16 295.834 2635.18 303.177 2626.21 310.52 2618.2 320.145 2610.81 331.892 2603.41 343.64 2595.04 357.943 2590.81 373.663 2586.57 389.384 2583.64 408.54 2587.01 426.333 2590.84 450.179 2604.12 468.6 2613.55 483.331 2619.41 488.415 2627.43 502.751 2644.91 511.54 2662.39 520.329 2630.97 518.038 2625.1 512.967 2571.04 466.174 2560.86 386.398 2601.42 327.388 2645.27 263.601 2732.84 247.382 2796.63 291.235 2831.64 315.299 2853.66 353.42 2857.05 395.798 2857.32 399.15 2849.78 397.671 2848.02 400.227Z" fill="#010202" fill-rule="evenodd"/><path d="M2675.14 267.322C2674.08 267.15 2673.19 265.886 2672.74 263.571L2663.68 217.638C2662.76 213.007 2663.91 205.924 2666.24 201.817 2668.56 197.711 2671.19 198.136 2672.1 202.766L2681.16 248.7C2682.07 253.331 2680.93 260.413 2678.6 264.52 2677.44 266.573 2676.2 267.494 2675.14 267.322Z" fill="#010202" fill-rule="evenodd"/><path d="M2535.41 525.985C2535.15 524.94 2535.97 523.632 2537.93 522.309L2576.68 496.046C2580.59 493.396 2587.56 491.688 2592.25 492.23 2596.94 492.769 2597.57 495.356 2593.66 498.002L2554.91 524.265C2551 526.911 2544.03 528.619 2539.34 528.081 2537 527.812 2535.67 527.03 2535.41 525.985Z" fill="#010202" fill-rule="evenodd"/><path d="M2779.59 275.618C2778.82 274.865 2778.82 273.322 2779.79 271.168L2798.87 228.415C2800.79 224.103 2805.81 218.977 2810.08 216.964 2814.35 214.949 2816.25 216.814 2814.32 221.122L2795.24 263.876C2793.32 268.184 2788.3 273.311 2784.03 275.326 2781.9 276.333 2780.35 276.371 2779.59 275.618Z" fill="#010202" fill-rule="evenodd"/><path d="M2849.33 335.51C2849.2 334.442 2850.16 333.24 2852.26 332.159L2893.87 310.698C2898.06 308.532 2905.19 307.666 2909.78 308.763 2914.37 309.856 2914.69 312.5 2910.5 314.662L2868.89 336.123C2864.69 338.285 2857.57 339.151 2852.98 338.058 2850.68 337.512 2849.46 336.578 2849.33 335.51Z" fill="#010202" fill-rule="evenodd"/><path d="M2567.73 408.494C2567.32 409.49 2565.89 410.068 2563.53 409.991L2516.74 408.474C2512.02 408.323 2505.38 405.611 2501.9 402.417 2498.42 399.227 2499.43 396.761 2504.15 396.915L2550.94 398.432C2555.66 398.588 2562.3 401.299 2565.78 404.489 2567.52 406.084 2568.13 407.498 2567.73 408.494Z" fill="#010202" fill-rule="evenodd"/><path d="M2596.16 323.762C2595.27 324.373 2593.76 324.074 2591.83 322.718L2553.5 295.833C2549.63 293.124 2545.56 287.218 2544.4 282.642 2543.23 278.069 2545.43 276.556 2549.29 279.267L2587.62 306.152C2591.48 308.864 2595.55 314.77 2596.72 319.343 2597.3 321.63 2597.04 323.151 2596.16 323.762Z" fill="#010202" fill-rule="evenodd"/><path d="M2585 407.5C2585 333.77 2644.99 274 2719 274 2793.01 274 2853 333.77 2853 407.5 2853 481.23 2793.01 541 2719 541 2644.99 541 2585 481.23 2585 407.5Z" fill="#FFDB69" fill-rule="evenodd"/><path d="M2635.95 609.413C2635.2 608.638 2635.25 607.096 2636.27 604.97L2656.57 562.781C2658.62 558.527 2663.78 553.546 2668.11 551.657 2672.43 549.765 2674.28 551.683 2672.23 555.934L2651.94 598.124C2649.89 602.375 2644.72 607.356 2640.4 609.248 2638.24 610.194 2636.69 610.187 2635.95 609.413Z" fill="#010202" fill-rule="evenodd"/><path d="M2786.75 615.001C2785.66 615.001 2784.57 613.887 2783.74 611.659L2767.25 567.473C2765.58 563.019 2765.58 555.796 2767.25 551.34 2768.91 546.886 2771.61 546.886 2773.27 551.34L2789.75 595.528C2791.41 599.982 2791.41 607.205 2789.75 611.659 2788.93 613.887 2787.84 615.001 2786.75 615.001Z" fill="#010202" fill-rule="evenodd"/><path d="M2870.25 413.405C2870.59 412.384 2871.97 411.709 2874.33 411.625L2921.12 409.935C2925.84 409.763 2932.65 412.013 2936.34 414.962 2940.02 417.906 2939.19 420.436 2934.47 420.604L2887.69 422.294C2882.97 422.463 2876.16 420.212 2872.47 417.268 2870.62 415.795 2869.91 414.427 2870.25 413.405Z" fill="#010202" fill-rule="evenodd"/><path d="M2900.91 525.666C2900.1 526.372 2898.56 526.244 2896.49 525.112L2855.4 502.682C2851.25 500.422 2846.55 495.009 2844.88 490.591 2843.21 486.177 2845.22 484.428 2849.36 486.691L2890.46 509.121C2894.6 511.384 2899.31 516.797 2900.98 521.212 2901.81 523.419 2901.73 524.96 2900.91 525.666Z" fill="#010202" fill-rule="evenodd"/></g></svg>