<svg width="680" height="795" xmlns="http://www.w3.org/2000/svg" xmlns:xlink="http://www.w3.org/1999/xlink" xml:space="preserve" overflow="hidden"><defs><clipPath id="clip0"><rect x="3499" y="105" width="680" height="795"/></clipPath></defs><g clip-path="url(#clip0)" transform="translate(-3499 -105)"><path d="M3869.83 105C3879.75 105 3889.89 105.429 3899.99 106.325 3911.06 107.251 3920.79 114.507 3925.49 125.24 3930.22 136.004 3929.17 148.659 3922.8 158.364 3886.12 214.279 3866.74 280.065 3866.74 348.634 3866.74 432.407 3895.98 512.37 3949.1 573.751 4001.91 634.834 4073.45 672.132 4150.58 678.791 4161.62 679.751 4171.35 686.973 4176.08 697.738 4180.78 708.504 4179.76 721.159 4173.39 730.862 4103.92 836.763 3990.45 900 3869.83 900 3665.35 900 3499 721.687 3499 502.5 3499 283.311 3665.35 105 3869.83 105Z" fill="#010202" fill-rule="evenodd"/><path d="M3857.64 121.259C3915.62 128.793 3917.07 131.9 3900.39 166.62 3881 206.985 3849.76 276.079 3853.07 352.8 3856.51 432.477 3886.13 517.937 3931.55 574.09 3979.71 633.621 4066.73 681.371 4116.4 685.069 4157.42 688.123 4185.23 707.557 4145.14 745.976 4104.18 785.225 4012.03 896.776 3849.35 883.304 3657.6 872.059 3503.01 686.486 3515.24 478.025 3527.46 269.564 3680.98 128.643 3857.64 121.259Z" fill="#A7B0BC" fill-rule="evenodd"/></g></svg>