<svg width="1591" height="1174" xmlns="http://www.w3.org/2000/svg" xmlns:xlink="http://www.w3.org/1999/xlink" xml:space="preserve" overflow="hidden"><defs><clipPath id="clip0"><rect x="1753" y="131" width="1591" height="1174"/></clipPath></defs><g clip-path="url(#clip0)" transform="translate(-1753 -131)"><path d="M278.138 0C285.578 0 293.18 0.321993 300.76 0.993872 309.057 1.6885 316.358 7.12934 319.882 15.1783 323.427 23.2512 322.639 32.7412 317.865 40.0195 290.353 81.9514 275.82 131.286 275.82 182.708 275.82 245.532 297.747 305.498 337.589 351.53 377.202 397.337 430.859 425.308 488.711 430.302 496.985 431.022 504.287 436.437 507.833 444.51 511.356 452.584 510.591 462.074 505.816 469.352 453.712 548.769 368.602 596.192 278.138 596.192 124.768 596.192 0 462.471 0 298.096 0 133.72 124.768 0 278.138 0Z" fill-rule="evenodd" transform="matrix(-0.933936 -0.357441 -0.357441 0.933936 2393.85 239.217)"/><path d="M240.821 0C284.586 3.09686 285.805 5.36116 274.836 32.1024 262.084 63.1913 241.721 116.322 247.57 173.649 253.644 233.184 279.585 295.901 316.079 335.97 354.768 378.45 422.054 410.396 459.426 410.984 490.292 411.47 511.978 424.806 483.631 455.348 454.672 486.548 390.546 574.159 268.087 571.214 123.957 571.214 0 438.992 0 282.297 0 125.6 108.807 13.2925 240.821 0Z" fill="#A7B0BC" fill-rule="evenodd" transform="matrix(-0.95326 -0.302153 -0.302153 0.95326 2367.83 227.039)"/><path d="M2752.45 311.344C2909.32 311.402 3041.85 397.07 3084.45 514.495L3088.82 528.993 3091.67 532.993C3096.65 540.466 3101.46 548.201 3106.08 556.182L3118.34 578.911 3134.01 581.525C3189.17 593.236 3238.89 621.699 3275.15 666.714 3292.91 688.762 3306.19 713.215 3315.13 739.134L3321.9 762.885 3324.32 768.077C3348.8 827.963 3350.4 905.693 3323.31 982.182 3307.42 1027.07 3283.64 1065.91 3255.29 1096.5L3238.48 1112.77 3233.36 1119.54C3206.21 1148.33 3161.96 1171.57 3108.93 1183.17L3099.82 1184.59 3097.79 1185.24C3085.41 1188.33 3072.42 1190.73 3058.94 1192.35L3018.15 1194.76 3009.14 1196.16 2996.14 1196.62 2995.76 1196.88C2994.48 1197.42 2993.08 1197.72 2991.61 1197.72L2831.19 1197.6 2829.82 1197.32 2768.76 1197.3 2746.41 1219.31C2728.3 1234.68 2706.57 1248.69 2682.04 1260.37L2664.54 1267.44 2647.55 1276.48C2608.5 1294.47 2562.65 1304.81 2513.61 1304.8 2442.28 1304.77 2377.69 1282.82 2330.94 1247.34L2316.15 1233.75 2314.03 1231.99 2313.02 1230.87 2299.38 1218.34C2294.74 1213.12 2290.42 1207.73 2286.44 1202.18L2283.39 1197.37 2209.5 1197.34 2198.97 1199.24 2181.1 1200.19 2180.85 1200.24C2152.32 1204.05 2120.65 1200.86 2089.31 1189.56 2063.21 1180.15 2040.42 1166.21 2022.12 1149.55L2016.15 1142.86 2012.07 1140.05C1985.95 1118.5 1962.04 1084.14 1946.52 1042.06L1946.26 1041.21 1946.15 1041.02C1941.32 1031.55 1936.91 1021.51 1933.03 1010.99 1929.16 1000.47 1925.98 989.969 1923.5 979.606L1918.52 951.5 1917.83 948.618C1914.44 928.871 1913.3 907.346 1914.86 884.952L1918.14 859.453 1918.18 856.417C1920.52 822.826 1928.61 792.047 1940.53 766.892L1946.56 756.249 1947.48 753.526C1964.8 715.25 1992.53 685.212 2029.31 669.165 2035.45 666.491 2041.68 664.269 2048 662.484L2055.07 660.992 2055.35 660.232C2122.93 501.743 2284.05 414.356 2429.47 463.05L2443.03 468.485 2448.04 459.961C2506.64 371.392 2620.97 311.295 2752.45 311.344Z" fill="#223552" fill-rule="evenodd"/></g></svg>