<svg width="1433" height="1290" xmlns="http://www.w3.org/2000/svg" xmlns:xlink="http://www.w3.org/1999/xlink" xml:space="preserve" overflow="hidden"><defs><clipPath id="clip0"><rect x="1383" y="1235" width="1433" height="1290"/></clipPath></defs><g clip-path="url(#clip0)" transform="translate(-1383 -1235)"><path d="M2224.06 1235.31C2381.33 1235.29 2514.16 1320.67 2556.81 1437.78L2561.19 1452.24 2564.04 1456.23C2569.02 1463.68 2573.84 1471.39 2578.48 1479.35L2590.75 1502.02 2606.47 1504.62C2661.76 1516.27 2711.59 1544.64 2747.92 1589.52 2765.72 1611.51 2779.01 1635.89 2787.97 1661.74L2794.74 1685.43 2797.17 1690.61C2821.68 1750.33 2823.24 1827.86 2796.05 1904.17 2780.1 1948.95 2756.24 1987.71 2727.8 2018.24L2710.94 2034.47 2705.81 2041.23C2678.57 2069.96 2634.19 2093.16 2581.02 2104.76L2571.89 2106.17 2569.85 2106.83C2557.44 2109.92 2544.41 2112.32 2530.91 2113.94L2490.01 2116.36 2480.97 2117.77 2467.94 2118.23 2467.56 2118.49C2466.28 2119.03 2464.87 2119.33 2463.4 2119.33L2302.57 2119.29 2301.2 2119.01 2239.98 2119.02 2217.56 2140.98C2199.4 2156.32 2177.6 2170.31 2153.01 2181.97L2135.46 2189.03 2118.42 2198.06C2079.26 2216.01 2033.29 2226.36 1984.13 2226.36 1912.62 2226.37 1847.88 2204.51 1801.02 2169.15L1786.2 2155.6 1784.07 2153.84 1783.06 2152.72 1769.4 2140.23C1764.74 2135.03 1760.41 2129.65 1756.43 2124.12L1753.37 2119.32 1679.3 2119.33 1668.73 2121.23 1650.82 2122.18 1650.57 2122.24C1621.96 2126.05 1590.21 2122.88 1558.81 2111.63 1532.64 2102.25 1509.8 2088.36 1491.46 2071.75L1485.48 2065.08 1481.38 2062.28C1455.21 2040.8 1431.25 2006.53 1415.72 1964.57L1415.46 1963.73 1415.35 1963.53C1410.51 1954.08 1406.1 1944.07 1402.21 1933.58 1398.33 1923.09 1395.16 1912.62 1392.67 1902.28L1387.69 1874.25 1387 1871.38C1383.61 1851.68 1382.48 1830.21 1384.06 1807.87L1387.36 1782.44 1387.39 1779.41C1389.76 1745.9 1397.88 1715.2 1409.85 1690.1L1415.9 1679.48 1416.83 1676.76C1434.2 1638.57 1462.02 1608.6 1498.91 1592.58 1505.05 1589.91 1511.31 1587.69 1517.65 1585.9L1524.73 1584.41 1525.01 1583.65C1592.84 1425.53 1754.42 1338.29 1900.18 1386.79L1913.78 1392.2 1918.8 1383.7C1977.59 1295.32 2092.25 1235.32 2224.06 1235.31Z" fill="#223552" fill-rule="evenodd"/><path d="M1723.44 2417.27C1719.91 2423.58 1709.09 2423.58 1705.56 2417.27L1631.93 2285.6C1628.9 2280.19 1633.67 2274 1640.86 2274L1788.14 2274C1795.33 2274 1800.1 2280.19 1797.07 2285.6L1723.44 2417.27Z" fill="#A7B0BC" fill-rule="evenodd"/><path d="M2308.19 2394.56 2247.49 2505.36C2237.7 2523.23 2215.28 2529.78 2197.41 2519.99L2165.05 2502.27 2225.75 2391.47C2235.54 2373.6 2257.97 2367.04 2275.84 2376.83L2308.19 2394.56Z" fill="#5F96CD" fill-rule="evenodd"/><path d="M1967.63 2394.56 1906.93 2505.36C1897.14 2523.23 1874.72 2529.78 1856.85 2519.99L1824.49 2502.27 1885.19 2391.47C1894.98 2373.6 1917.4 2367.04 1935.27 2376.83L1967.63 2394.56Z" fill="#5F96CD" fill-rule="evenodd"/><path d="M2199.91 2259.04 2139.21 2369.84C2129.42 2387.71 2107 2394.26 2089.13 2384.47L2056.77 2366.75 2117.47 2255.94C2127.26 2238.07 2149.68 2231.52 2167.55 2241.31L2199.91 2259.04Z" fill="#5F96CD" fill-rule="evenodd"/><path d="M2528.85 2267.28 2468.15 2378.09C2458.36 2395.96 2435.94 2402.51 2418.07 2392.72L2385.71 2374.99 2446.41 2264.19C2456.2 2246.32 2478.62 2239.77 2496.49 2249.56L2528.85 2267.28Z" fill="#5F96CD" fill-rule="evenodd"/></g></svg>