<svg width="1433" height="1343" xmlns="http://www.w3.org/2000/svg" xmlns:xlink="http://www.w3.org/1999/xlink" xml:space="preserve" overflow="hidden"><defs><clipPath id="clip0"><rect x="2932" y="1" width="1433" height="1343"/></clipPath></defs><g clip-path="url(#clip0)" transform="translate(-2932 -1)"><path d="M3773.05 1.17879C3930.32 1.1599 4063.16 86.5477 4105.8 203.655L4110.18 218.115 4113.03 222.103C4118.02 229.555 4122.84 237.267 4127.47 245.227L4139.74 267.892 4155.46 270.492C4210.75 282.146 4260.58 310.513 4296.92 355.397 4314.71 377.381 4328.01 401.765 4336.96 427.614L4343.74 451.302 4346.17 456.479C4370.68 516.202 4372.24 593.735 4345.05 670.044 4329.09 714.823 4305.23 753.583 4276.79 784.108L4259.93 800.348 4254.8 807.104C4227.57 835.832 4183.18 859.029 4130.01 870.629L4120.89 872.047 4118.85 872.7C4106.44 875.79 4093.41 878.19 4079.9 879.815L4039 882.235 4029.96 883.638 4016.93 884.101 4016.55 884.359C4015.27 884.901 4013.87 885.2 4012.39 885.199L3851.57 885.159 3850.19 884.881 3788.98 884.888 3766.56 906.85C3748.4 922.194 3726.6 936.184 3702 947.846L3684.45 954.9 3667.41 963.929C3628.26 981.888 3582.29 992.232 3533.12 992.238 3461.61 992.247 3396.87 970.38 3350.01 935.019L3335.2 921.47 3333.06 919.713 3332.06 918.597 3318.39 906.099C3313.74 900.902 3309.41 895.526 3305.42 889.988L3302.36 885.197 3228.29 885.205 3217.73 887.104 3199.81 888.055 3199.57 888.109C3170.96 891.923 3139.21 888.757 3107.8 877.502 3081.63 868.122 3058.79 854.235 3040.46 837.621L3034.48 830.953 3030.38 828.153C3004.2 806.671 2980.25 772.404 2964.71 730.443L2964.46 729.598 2964.34 729.405C2959.5 719.956 2955.09 709.947 2951.21 699.457 2947.32 688.966 2944.15 678.492 2941.67 668.157L2936.69 640.124 2936 637.25C2932.6 617.554 2931.47 596.084 2933.05 573.746L2936.35 548.31 2936.39 545.282C2938.75 511.774 2946.88 481.069 2958.84 455.972L2964.9 445.352 2965.82 442.636C2983.2 404.448 3011.01 374.473 3047.9 358.449 3054.05 355.778 3060.3 353.559 3066.64 351.775L3073.72 350.284 3074.01 349.525C3141.84 191.404 3303.41 104.159 3449.18 152.659L3462.77 158.073 3467.79 149.569C3526.59 61.1952 3641.24 1.19416 3773.05 1.17879Z" fill="#223552" fill-rule="evenodd"/><path d="M3229.02 997.465 3315.31 1010.72 3325.21 1097.47 3245.04 1137.82 3185.59 1076.02Z" fill="#A7B0BC" fill-rule="evenodd"/><path d="M3497.97 1045.21 3584.27 1058.47 3594.17 1145.21 3513.99 1185.57 3454.54 1123.76Z" fill="#A7B0BC" fill-rule="evenodd"/><path d="M3777.81 1016.81 3864.1 1030.06 3874 1116.81 3793.83 1157.16 3734.38 1095.36Z" fill="#A7B0BC" fill-rule="evenodd"/><path d="M4006.87 955.761 4093.17 969.017 4103.07 1055.76 4022.9 1096.12 3963.44 1034.31Z" fill="#A7B0BC" fill-rule="evenodd"/><path d="M3637.59 1202.96 3723.88 1216.21 3733.78 1302.96 3653.61 1343.31 3594.16 1281.51Z" fill="#A7B0BC" fill-rule="evenodd"/><path d="M3319.07 1185.43 3405.37 1198.69 3415.27 1285.43 3335.09 1325.79 3275.64 1263.98Z" fill="#A7B0BC" fill-rule="evenodd"/><path d="M3912.59 1166.09 3998.88 1179.35 4008.79 1266.09 3928.61 1306.45 3869.16 1244.64Z" fill="#A7B0BC" fill-rule="evenodd"/></g></svg>