<svg width="1434" height="1318" xmlns="http://www.w3.org/2000/svg" xmlns:xlink="http://www.w3.org/1999/xlink" xml:space="preserve" overflow="hidden"><defs><clipPath id="clip0"><rect x="2491" y="184" width="1434" height="1318"/></clipPath></defs><g clip-path="url(#clip0)" transform="translate(-2491 -184)"><path d="M3332.29 184.628C3489.56 184.609 3622.4 269.997 3665.05 387.104L3669.42 401.564 3672.27 405.552C3677.26 413.004 3682.08 420.717 3686.71 428.676L3698.99 451.341 3714.7 453.941C3769.99 465.596 3819.83 493.962 3856.16 538.846 3873.96 560.83 3887.25 585.215 3896.21 611.064L3902.98 634.751 3905.41 639.929C3929.92 699.652 3931.48 777.185 3904.29 853.494 3888.33 898.272 3864.47 937.032 3836.04 967.557L3819.18 983.797 3814.04 990.553C3786.81 1019.28 3742.43 1042.48 3689.26 1054.08L3680.13 1055.5 3678.09 1056.15C3665.68 1059.24 3652.65 1061.64 3639.14 1063.26L3598.24 1065.68 3589.21 1067.09 3576.17 1067.55 3575.79 1067.81C3574.52 1068.35 3573.11 1068.65 3571.64 1068.65L3410.81 1068.61 3409.44 1068.33 3348.22 1068.34 3325.8 1090.3C3307.64 1105.64 3285.84 1119.63 3261.25 1131.3L3243.7 1138.35 3226.66 1147.38C3187.5 1165.34 3141.53 1175.68 3092.37 1175.69 3020.85 1175.7 2956.11 1153.83 2909.25 1118.47L2894.44 1104.92 2892.31 1103.16 2891.3 1102.05 2877.63 1089.55C2872.98 1084.35 2868.65 1078.98 2864.66 1073.44L2861.61 1068.65 2787.53 1068.65 2776.97 1070.55 2759.06 1071.5 2758.81 1071.56C2730.2 1075.37 2698.45 1072.21 2667.04 1060.95 2640.87 1051.57 2618.04 1037.68 2599.7 1021.07L2593.72 1014.4 2589.62 1011.6C2563.45 990.121 2539.49 955.853 2523.96 913.892L2523.7 913.048 2523.58 912.855C2518.75 903.406 2514.34 893.396 2510.45 882.906 2506.57 872.416 2503.39 861.941 2500.91 851.607L2495.93 823.573 2495.24 820.7C2491.85 801.003 2490.72 779.534 2492.29 757.195L2495.6 731.759 2495.63 728.732C2498 695.224 2506.12 664.518 2518.09 639.421L2524.14 628.802 2525.06 626.086C2542.44 587.897 2570.26 557.923 2607.14 541.898 2613.29 539.228 2619.55 537.008 2625.88 535.225L2632.97 533.733 2633.25 532.975C2701.08 374.853 2862.65 287.609 3008.42 336.108L3022.02 341.523 3027.04 333.018C3085.83 244.645 3200.49 184.644 3332.29 184.628Z" fill="#223552" fill-rule="evenodd"/><path d="M3184.8 1296.2C3182.32 1295.68 3180.05 1294.22 3178.56 1291.93 3175.58 1287.36 3176.87 1281.25 3181.44 1278.27L3253.83 1231.09C3258.4 1228.12 3264.52 1229.41 3267.49 1233.98 3270.47 1238.54 3269.18 1244.66 3264.61 1247.64L3192.22 1294.82C3189.94 1296.31 3187.27 1296.72 3184.8 1296.2Z" fill="#A7B0BC" fill-rule="evenodd"/><path d="M3244.58 1308.81C3242.11 1308.29 3239.83 1306.83 3238.34 1304.54L3191.17 1232.15C3188.19 1227.58 3189.48 1221.46 3194.05 1218.49 3198.61 1215.51 3204.74 1216.8 3207.71 1221.36L3254.89 1293.76C3257.87 1298.32 3256.58 1304.45 3252.01 1307.42 3249.72 1308.91 3247.05 1309.33 3244.58 1308.81Z" fill="#A7B0BC" fill-rule="evenodd"/><path d="M3269.34 1282.65C3269.34 1282.65 3269.34 1282.65 3269.34 1282.65L3172.69 1262.35C3167.36 1261.23 3163.94 1255.97 3165.07 1250.64 3166.2 1245.3 3171.43 1241.87 3176.76 1243 3176.77 1243 3176.77 1243 3176.77 1243L3273.39 1263.42C3278.72 1264.55 3282.15 1269.74 3281.02 1275.08 3279.9 1280.41 3274.67 1283.77 3269.34 1282.65Z" fill="#A7B0BC" fill-rule="evenodd"/><path d="M3210.83 1320.8C3210.83 1320.8 3210.83 1320.8 3210.82 1320.8 3205.49 1319.68 3202.07 1314.5 3203.19 1309.16L3223.57 1212.51C3224.69 1207.17 3229.94 1203.73 3235.28 1204.85 3235.28 1204.85 3235.28 1204.85 3235.28 1204.85 3240.62 1205.97 3244.01 1211.28 3242.89 1216.61L3222.52 1313.21C3221.4 1318.54 3216.17 1321.92 3210.83 1320.8Z" fill="#A7B0BC" fill-rule="evenodd"/><path d="M3230.07 1363.62 3169.37 1474.42C3159.58 1492.29 3137.15 1498.84 3119.28 1489.05L3086.93 1471.33 3147.62 1360.53C3157.41 1342.65 3179.84 1336.1 3197.71 1345.89L3230.07 1363.62Z" fill="#5F96CD" fill-rule="evenodd"/><path d="M3572.65 1225.12 3511.95 1335.92C3502.16 1353.79 3479.73 1360.35 3461.86 1350.56L3429.51 1332.83 3490.21 1222.03C3500 1204.16 3522.42 1197.61 3540.29 1207.4L3572.65 1225.12Z" fill="#5F96CD" fill-rule="evenodd"/><path d="M2976.07 1236.95 2915.37 1347.75C2905.58 1365.62 2883.16 1372.17 2865.29 1362.38L2832.93 1344.66 2893.63 1233.85C2903.42 1215.98 2925.85 1209.43 2943.72 1219.22L2976.07 1236.95Z" fill="#5F96CD" fill-rule="evenodd"/><path d="M3366 1474.81C3363.53 1474.29 3361.25 1472.83 3359.77 1470.54 3356.78 1465.97 3358.08 1459.85 3362.65 1456.88L3435.04 1409.7C3439.61 1406.73 3445.73 1408.01 3448.7 1412.59 3451.68 1417.15 3450.39 1423.26 3445.82 1426.25L3373.43 1473.42C3371.15 1474.91 3368.48 1475.33 3366 1474.81Z" fill="#A7B0BC" fill-rule="evenodd"/><path d="M3425.79 1487.42C3423.31 1486.89 3421.04 1485.44 3419.55 1483.15L3372.37 1410.76C3369.4 1406.19 3370.69 1400.07 3375.26 1397.1 3379.82 1394.12 3385.95 1395.41 3388.92 1399.97L3436.1 1472.37C3439.07 1476.93 3437.78 1483.06 3433.21 1486.03 3430.93 1487.52 3428.26 1487.94 3425.79 1487.42Z" fill="#A7B0BC" fill-rule="evenodd"/><path d="M3450.54 1461.26C3450.54 1461.26 3450.54 1461.26 3450.54 1461.26L3353.9 1440.96C3348.57 1439.84 3345.15 1434.58 3346.27 1429.24 3347.41 1423.91 3352.64 1420.48 3357.97 1421.6 3357.98 1421.61 3357.98 1421.61 3357.98 1421.61L3454.6 1442.03C3459.93 1443.16 3463.36 1448.34 3462.23 1453.69 3461.11 1459.02 3455.88 1462.38 3450.54 1461.26Z" fill="#A7B0BC" fill-rule="evenodd"/><path d="M3392.04 1499.41C3392.04 1499.41 3392.04 1499.41 3392.03 1499.41 3386.7 1498.29 3383.28 1493.11 3384.4 1487.77L3404.78 1391.12C3405.9 1385.78 3411.15 1382.33 3416.48 1383.46 3416.48 1383.46 3416.48 1383.46 3416.48 1383.46 3421.83 1384.58 3425.22 1389.89 3424.1 1395.22L3403.73 1491.82C3402.61 1497.15 3397.38 1500.53 3392.04 1499.41Z" fill="#A7B0BC" fill-rule="evenodd"/><path d="M2782.41 1476.61C2779.94 1476.09 2777.66 1474.63 2776.18 1472.34 2773.19 1467.77 2774.49 1461.66 2779.06 1458.68L2851.45 1411.5C2856.02 1408.53 2862.14 1409.82 2865.11 1414.39 2868.09 1418.95 2866.8 1425.07 2862.23 1428.05L2789.84 1475.23C2787.56 1476.72 2784.89 1477.13 2782.41 1476.61Z" fill="#A7B0BC" fill-rule="evenodd"/><path d="M2842.2 1489.22C2839.72 1488.7 2837.45 1487.24 2835.96 1484.95L2788.78 1412.56C2785.81 1407.99 2787.1 1401.87 2791.67 1398.9 2796.23 1395.92 2802.36 1397.21 2805.33 1401.77L2852.51 1474.17C2855.48 1478.73 2854.19 1484.86 2849.62 1487.83 2847.34 1489.32 2844.67 1489.74 2842.2 1489.22Z" fill="#A7B0BC" fill-rule="evenodd"/><path d="M2866.95 1463.06C2866.95 1463.06 2866.95 1463.06 2866.95 1463.06L2770.31 1442.76C2764.98 1441.64 2761.56 1436.38 2762.68 1431.05 2763.82 1425.71 2769.05 1422.28 2774.38 1423.41 2774.39 1423.41 2774.39 1423.41 2774.39 1423.41L2871.01 1443.83C2876.34 1444.96 2879.77 1450.15 2878.64 1455.49 2877.51 1460.82 2872.29 1464.18 2866.95 1463.06Z" fill="#A7B0BC" fill-rule="evenodd"/><path d="M2808.45 1501.21C2808.45 1501.21 2808.45 1501.21 2808.44 1501.21 2803.11 1500.09 2799.69 1494.91 2800.81 1489.57L2821.19 1392.92C2822.31 1387.58 2827.56 1384.14 2832.89 1385.26 2832.89 1385.26 2832.89 1385.26 2832.89 1385.26 2838.24 1386.38 2841.63 1391.69 2840.51 1397.02L2820.14 1493.62C2819.02 1498.95 2813.78 1502.33 2808.45 1501.21Z" fill="#A7B0BC" fill-rule="evenodd"/></g></svg>