<svg width="1433" height="1343" xmlns="http://www.w3.org/2000/svg" xmlns:xlink="http://www.w3.org/1999/xlink" xml:space="preserve" overflow="hidden"><defs><clipPath id="clip0"><rect x="2932" y="25" width="1433" height="1343"/></clipPath></defs><g clip-path="url(#clip0)" transform="translate(-2932 -25)"><path d="M3722.02 1079.78 3575.53 1347.19C3565.74 1365.06 3543.32 1371.61 3525.45 1361.82L3493.09 1344.09 3639.58 1076.69C3649.37 1058.82 3671.79 1052.27 3689.66 1062.06L3722.02 1079.78Z" fill="#5F96CD" fill-rule="evenodd"/><path d="M4074.2 1079.36 3927.71 1346.76C3917.92 1364.63 3895.5 1371.18 3877.63 1361.39L3845.27 1343.67 3991.76 1076.27C4001.55 1058.4 4023.97 1051.84 4041.84 1061.63L4074.2 1079.36Z" fill="#5F96CD" fill-rule="evenodd"/><path d="M3898.15 1080.51 3751.66 1347.91C3741.87 1365.78 3719.45 1372.33 3701.58 1362.54L3669.22 1344.81 3815.71 1077.41C3825.5 1059.54 3847.92 1052.99 3865.79 1062.78L3898.15 1080.51Z" fill="#5F96CD" fill-rule="evenodd"/><path d="M3551.21 1078.01 3404.72 1345.41C3394.93 1363.28 3372.51 1369.83 3354.64 1360.04L3322.28 1342.31 3468.77 1074.91C3478.56 1057.04 3500.98 1050.49 3518.85 1060.28L3551.21 1078.01Z" fill="#5F96CD" fill-rule="evenodd"/><path d="M3375.16 1079.15 3228.67 1346.55C3218.88 1364.42 3196.46 1370.97 3178.59 1361.18L3146.23 1343.46 3292.72 1076.06C3302.51 1058.19 3324.93 1051.64 3342.8 1061.43L3375.16 1079.15Z" fill="#5F96CD" fill-rule="evenodd"/><path d="M3773.05 25.9678C3930.32 25.9489 4063.16 111.337 4105.8 228.444L4110.18 242.903 4113.03 246.892C4118.02 254.344 4122.84 262.056 4127.47 270.016L4139.75 292.681 4155.46 295.281C4210.75 306.935 4260.58 335.302 4296.92 380.186 4314.71 402.17 4328.01 426.554 4336.96 452.403L4343.74 476.091 4346.17 481.268C4370.68 540.991 4372.24 618.524 4345.05 694.833 4329.09 739.612 4305.23 778.372 4276.79 808.897L4259.93 825.137 4254.8 831.893C4227.57 860.621 4183.19 883.818 4130.01 895.418L4120.89 896.836 4118.85 897.489C4106.44 900.579 4093.41 902.979 4079.9 904.604L4039 907.024 4029.96 908.427 4016.93 908.89 4016.55 909.148C4015.27 909.69 4013.87 909.989 4012.4 909.988L3851.57 909.948 3850.19 909.67 3788.98 909.677 3766.56 931.639C3748.4 946.983 3726.6 960.973 3702 972.635L3684.45 979.689 3667.41 988.718C3628.26 1006.68 3582.29 1017.02 3533.12 1017.03 3461.61 1017.04 3396.87 995.169 3350.01 959.808L3335.2 946.259 3333.06 944.502 3332.06 943.386 3318.39 930.888C3313.74 925.69 3309.41 920.315 3305.42 914.777L3302.36 909.986 3228.29 909.994 3217.73 911.893 3199.81 912.844 3199.57 912.898C3170.96 916.712 3139.21 913.546 3107.8 902.291 3081.63 892.911 3058.79 879.024 3040.46 862.41L3034.48 855.742 3030.38 852.942C3004.2 831.46 2980.25 797.192 2964.71 755.232L2964.46 754.387 2964.34 754.194C2959.5 744.745 2955.09 734.736 2951.21 724.246 2947.32 713.755 2944.15 703.281 2941.67 692.946L2936.69 664.913 2936 662.039C2932.6 642.343 2931.47 620.873 2933.05 598.535L2936.35 573.099 2936.39 570.071C2938.75 536.563 2946.88 505.858 2958.84 480.761L2964.9 470.141 2965.82 467.425C2983.2 429.237 3011.01 399.262 3047.9 383.237 3054.05 380.567 3060.3 378.347 3066.64 376.564L3073.72 375.073 3074.01 374.314C3141.84 216.193 3303.41 128.948 3449.18 177.448L3462.77 182.862 3467.79 174.358C3526.59 85.9842 3641.24 25.9831 3773.05 25.9678Z" fill="#223552" fill-rule="evenodd"/></g></svg>