<svg width="1433" height="1422" xmlns="http://www.w3.org/2000/svg" xmlns:xlink="http://www.w3.org/1999/xlink" xml:space="preserve" overflow="hidden"><defs><clipPath id="clip0"><rect x="3064" y="1030" width="1433" height="1422"/></clipPath></defs><g clip-path="url(#clip0)" transform="translate(-3064 -1030)"><path d="M3904.82 1030.8C4062.09 1030.78 4194.92 1116.17 4237.57 1233.28L4241.95 1247.74 4244.8 1251.72C4249.78 1259.18 4254.6 1266.89 4259.24 1274.85L4271.51 1297.51 4287.23 1300.11C4342.52 1311.77 4392.35 1340.13 4428.68 1385.02 4446.48 1407 4459.77 1431.39 4468.73 1457.24L4475.5 1480.92 4477.93 1486.1C4502.44 1545.82 4504 1623.36 4476.81 1699.67 4460.86 1744.44 4437 1783.2 4408.56 1813.73L4391.7 1829.97 4386.57 1836.72C4359.33 1865.45 4314.95 1888.65 4261.78 1900.25L4252.65 1901.67 4250.61 1902.32C4238.2 1905.41 4225.17 1907.81 4211.67 1909.44L4170.77 1911.86 4161.73 1913.26 4148.7 1913.72 4148.32 1913.98C4147.04 1914.52 4145.63 1914.82 4144.16 1914.82L3983.33 1914.78 3981.96 1914.5 3920.74 1914.51 3898.32 1936.47C3880.16 1951.81 3858.36 1965.8 3833.77 1977.47L3816.22 1984.52 3799.18 1993.55C3760.02 2011.51 3714.06 2021.85 3664.89 2021.86 3593.38 2021.87 3528.64 2000 3481.78 1964.64L3466.96 1951.09 3464.83 1949.33 3463.82 1948.22 3450.16 1935.72C3445.5 1930.52 3441.17 1925.15 3437.19 1919.61L3434.13 1914.82 3360.06 1914.83 3349.49 1916.72 3331.58 1917.68 3331.33 1917.73C3302.72 1921.54 3270.97 1918.38 3239.57 1907.12 3213.4 1897.74 3190.56 1883.86 3172.22 1867.24L3166.24 1860.57 3162.14 1857.77C3135.97 1836.29 3112.01 1802.02 3096.48 1760.06L3096.22 1759.22 3096.11 1759.03C3091.27 1749.58 3086.86 1739.57 3082.97 1729.08 3079.09 1718.59 3075.92 1708.11 3073.43 1697.78L3068.45 1669.74 3067.77 1666.87C3064.37 1647.17 3063.24 1625.71 3064.82 1603.37L3068.12 1577.93 3068.15 1574.9C3070.52 1541.4 3078.64 1510.69 3090.61 1485.59L3096.66 1474.97 3097.59 1472.26C3114.96 1434.07 3142.78 1404.09 3179.67 1388.07 3185.82 1385.4 3192.07 1383.18 3198.41 1381.4L3205.49 1379.9 3205.78 1379.15C3273.6 1221.02 3435.18 1133.78 3580.94 1182.28L3594.54 1187.69 3599.56 1179.19C3658.35 1090.82 3773.01 1030.82 3904.82 1030.8Z" fill="#223552" fill-rule="evenodd"/><path d="M3386.7 2158.49C3383.56 2157.83 3380.66 2155.97 3378.77 2153.06 3374.98 2147.24 3376.62 2139.47 3382.44 2135.68L3474.5 2075.69C3480.31 2071.9 3488.09 2073.54 3491.88 2079.35 3495.66 2085.15 3494.03 2092.93 3488.21 2096.73L3396.15 2156.73C3393.24 2158.62 3389.85 2159.15 3386.7 2158.49Z" fill="#A7B0BC" fill-rule="evenodd"/><path d="M3462.73 2174.52C3459.59 2173.86 3456.69 2172.01 3454.8 2169.09L3394.8 2077.03C3391.02 2071.22 3392.66 2063.44 3398.47 2059.65 3404.27 2055.87 3412.06 2057.51 3415.85 2063.31L3475.84 2155.38C3479.63 2161.19 3477.99 2168.98 3472.18 2172.76 3469.28 2174.65 3465.88 2175.18 3462.73 2174.52Z" fill="#A7B0BC" fill-rule="evenodd"/><path d="M3494.22 2141.26C3494.22 2141.26 3494.22 2141.26 3494.22 2141.26L3371.31 2115.44C3364.52 2114.01 3360.18 2107.32 3361.61 2100.54 3363.05 2093.76 3369.7 2089.4 3376.49 2090.82 3376.5 2090.83 3376.5 2090.83 3376.5 2090.83L3499.37 2116.8C3506.16 2118.24 3510.52 2124.83 3509.08 2131.62 3507.65 2138.41 3501 2142.68 3494.22 2141.26Z" fill="#A7B0BC" fill-rule="evenodd"/><path d="M3419.82 2189.78C3419.82 2189.78 3419.82 2189.78 3419.8 2189.77 3413.02 2188.35 3408.67 2181.76 3410.1 2174.97L3436.02 2052.05C3437.44 2045.26 3444.12 2040.88 3450.9 2042.31 3450.9 2042.31 3450.9 2042.31 3450.9 2042.31 3457.7 2043.74 3462.01 2050.48 3460.59 2057.27L3434.68 2180.12C3433.25 2186.9 3426.6 2191.2 3419.82 2189.78Z" fill="#A7B0BC" fill-rule="evenodd"/><path d="M3514.14 2359.7C3510.99 2359.04 3508.1 2357.19 3506.21 2354.27 3502.41 2348.46 3504.06 2340.68 3509.88 2336.9L3601.94 2276.9C3607.75 2273.12 3615.53 2274.75 3619.32 2280.57 3623.1 2286.37 3621.46 2294.15 3615.65 2297.94L3523.58 2357.94C3520.68 2359.83 3517.29 2360.36 3514.14 2359.7Z" fill="#A7B0BC" fill-rule="evenodd"/><path d="M3590.17 2375.73C3587.03 2375.07 3584.13 2373.22 3582.24 2370.31L3522.24 2278.24C3518.46 2272.43 3520.1 2264.65 3525.91 2260.87 3531.71 2257.08 3539.5 2258.72 3543.29 2264.52L3603.28 2356.6C3607.07 2362.4 3605.43 2370.19 3599.62 2373.97 3596.72 2375.87 3593.32 2376.4 3590.17 2375.73Z" fill="#A7B0BC" fill-rule="evenodd"/><path d="M3621.66 2342.47C3621.66 2342.47 3621.66 2342.47 3621.66 2342.47L3498.75 2316.65C3491.96 2315.23 3487.62 2308.54 3489.05 2301.75 3490.49 2294.97 3497.14 2290.61 3503.93 2292.04 3503.94 2292.04 3503.94 2292.04 3503.94 2292.04L3626.81 2318.02C3633.6 2319.45 3637.96 2326.04 3636.52 2332.84 3635.09 2339.62 3628.44 2343.9 3621.66 2342.47Z" fill="#A7B0BC" fill-rule="evenodd"/><path d="M3547.26 2390.99C3547.26 2390.99 3547.26 2390.99 3547.24 2390.99 3540.46 2389.56 3536.11 2382.97 3537.53 2376.19L3563.46 2253.26C3564.88 2246.48 3571.56 2242.09 3578.34 2243.52 3578.34 2243.52 3578.34 2243.52 3578.34 2243.52 3585.14 2244.95 3589.45 2251.7 3588.03 2258.48L3562.12 2381.33C3560.69 2388.12 3554.04 2392.42 3547.26 2390.99Z" fill="#A7B0BC" fill-rule="evenodd"/><path d="M3754.16 2089.89C3757.3 2090.55 3760.2 2092.4 3762.09 2095.32 3765.88 2101.13 3764.23 2108.91 3758.42 2112.69L3666.36 2172.69C3660.54 2176.48 3652.76 2174.84 3648.98 2169.02 3645.2 2163.22 3646.83 2155.44 3652.65 2151.65L3744.71 2091.65C3747.61 2089.76 3751.01 2089.23 3754.16 2089.89Z" fill="#A7B0BC" fill-rule="evenodd"/><path d="M3678.12 2073.86C3681.27 2074.52 3684.17 2076.37 3686.06 2079.29L3746.06 2171.35C3749.84 2177.16 3748.2 2184.94 3742.39 2188.72 3736.59 2192.51 3728.79 2190.87 3725.01 2185.07L3665.01 2092.99C3661.23 2087.19 3662.87 2079.4 3668.68 2075.62 3671.58 2073.73 3674.98 2073.2 3678.12 2073.86Z" fill="#A7B0BC" fill-rule="evenodd"/><path d="M3646.64 2107.12C3646.64 2107.12 3646.64 2107.12 3646.64 2107.12L3769.55 2132.94C3776.33 2134.37 3780.68 2141.05 3779.25 2147.84 3777.81 2154.62 3771.16 2158.98 3764.37 2157.56 3764.36 2157.55 3764.36 2157.55 3764.36 2157.55L3641.48 2131.58C3634.7 2130.14 3630.34 2123.55 3631.78 2116.75 3633.21 2109.97 3639.86 2105.7 3646.64 2107.12Z" fill="#A7B0BC" fill-rule="evenodd"/><path d="M3721.04 2058.6C3721.04 2058.6 3721.04 2058.6 3721.05 2058.61 3727.84 2060.03 3732.19 2066.62 3730.76 2073.4L3704.84 2196.33C3703.41 2203.11 3696.74 2207.5 3689.96 2206.07 3689.96 2206.07 3689.96 2206.07 3689.96 2206.07 3683.16 2204.64 3678.84 2197.89 3680.27 2191.11L3706.18 2068.26C3707.6 2061.47 3714.26 2057.18 3721.04 2058.6Z" fill="#A7B0BC" fill-rule="evenodd"/><path d="M4124.98 2124.76C4121.83 2124.1 4118.93 2122.24 4117.04 2119.33 4113.25 2113.52 4114.9 2105.74 4120.71 2101.96L4212.78 2041.96C4218.59 2038.17 4226.37 2039.81 4230.15 2045.62 4233.94 2051.43 4232.3 2059.21 4226.48 2063L4134.42 2123C4131.52 2124.89 4128.12 2125.42 4124.98 2124.76Z" fill="#A7B0BC" fill-rule="evenodd"/><path d="M4201.01 2140.79C4197.86 2140.13 4194.97 2138.28 4193.08 2135.36L4133.08 2043.3C4129.29 2037.49 4130.93 2029.71 4136.75 2025.92 4142.55 2022.14 4150.34 2023.78 4154.12 2029.58L4214.12 2121.66C4217.9 2127.46 4216.27 2135.25 4210.45 2139.03 4207.55 2140.92 4204.15 2141.45 4201.01 2140.79Z" fill="#A7B0BC" fill-rule="evenodd"/><path d="M4232.49 2107.53C4232.49 2107.53 4232.49 2107.53 4232.49 2107.53L4109.58 2081.71C4102.8 2080.28 4098.46 2073.6 4099.88 2066.81 4101.32 2060.03 4107.98 2055.67 4114.76 2057.09 4114.77 2057.1 4114.77 2057.1 4114.77 2057.1L4237.65 2083.07C4244.43 2084.51 4248.79 2091.1 4247.35 2097.9 4245.93 2104.68 4239.28 2108.95 4232.49 2107.53Z" fill="#A7B0BC" fill-rule="evenodd"/><path d="M4158.09 2156.05C4158.09 2156.05 4158.09 2156.05 4158.08 2156.04 4151.29 2154.62 4146.94 2148.03 4148.37 2141.25L4174.29 2018.32C4175.72 2011.54 4182.39 2007.15 4189.17 2008.58 4189.17 2008.58 4189.17 2008.58 4189.17 2008.58 4195.97 2010.01 4200.29 2016.76 4198.86 2023.54L4172.96 2146.39C4171.53 2153.18 4164.87 2157.47 4158.09 2156.05Z" fill="#A7B0BC" fill-rule="evenodd"/><path d="M4005.85 1951.05 3951.51 2182.03 4083.6 2181.71 3900.73 2451.47 3940.53 2225.7 3824.15 2222.4Z" fill="#F1A21B" fill-rule="evenodd"/></g></svg>