<svg width="1433" height="1409" xmlns="http://www.w3.org/2000/svg" xmlns:xlink="http://www.w3.org/1999/xlink" xml:space="preserve" overflow="hidden"><defs><clipPath id="clip0"><rect x="1088" y="1269" width="1433" height="1409"/></clipPath></defs><g clip-path="url(#clip0)" transform="translate(-1088 -1269)"><path d="M1928.94 1269.36C2086.21 1269.34 2219.04 1354.72 2261.69 1471.83L2266.06 1486.29 2268.92 1490.28C2273.9 1497.73 2278.72 1505.44 2283.35 1513.4L2295.63 1536.07 2311.34 1538.67C2366.64 1550.32 2416.47 1578.69 2452.8 1623.57 2470.6 1645.56 2483.89 1669.94 2492.85 1695.79L2499.62 1719.48 2502.05 1724.66C2526.56 1784.38 2528.12 1861.91 2500.93 1938.22 2484.98 1983 2461.11 2021.76 2432.68 2052.28L2415.82 2068.52 2410.69 2075.28C2383.45 2104.01 2339.07 2127.21 2285.9 2138.81L2276.77 2140.22 2274.73 2140.88C2262.32 2143.97 2249.29 2146.37 2235.78 2147.99L2194.88 2150.41 2185.85 2151.82 2172.82 2152.28 2172.43 2152.54C2171.16 2153.08 2169.75 2153.38 2168.28 2153.38L2007.45 2153.34 2006.08 2153.06 1944.86 2153.07 1922.44 2175.03C1904.28 2190.37 1882.48 2204.36 1857.89 2216.02L1840.34 2223.08 1823.3 2232.11C1784.14 2250.06 1738.17 2260.41 1689.01 2260.41 1617.5 2260.42 1552.75 2238.56 1505.89 2203.2L1491.08 2189.65 1488.95 2187.89 1487.94 2186.77 1474.28 2174.28C1469.62 2169.08 1465.29 2163.7 1461.31 2158.17L1458.25 2153.37 1384.18 2153.38 1373.61 2155.28 1355.7 2156.23 1355.45 2156.29C1326.84 2160.1 1295.09 2156.93 1263.68 2145.68 1237.51 2136.3 1214.68 2122.41 1196.34 2105.8L1190.36 2099.13 1186.26 2096.33C1160.09 2074.85 1136.13 2040.58 1120.6 1998.62L1120.34 1997.78 1120.23 1997.58C1115.39 1988.13 1110.98 1978.12 1107.09 1967.63 1103.21 1957.14 1100.04 1946.67 1097.55 1936.33L1092.57 1908.3 1091.88 1905.43C1088.49 1885.73 1087.36 1864.26 1088.94 1841.92L1092.24 1816.49 1092.27 1813.46C1094.64 1779.95 1102.76 1749.25 1114.73 1724.15L1120.78 1713.53 1121.71 1710.81C1139.08 1672.62 1166.9 1642.65 1203.79 1626.63 1209.93 1623.96 1216.19 1621.74 1222.52 1619.95L1229.61 1618.46 1229.89 1617.7C1297.72 1459.58 1459.3 1372.34 1605.06 1420.84L1618.66 1426.25 1623.68 1417.75C1682.47 1329.37 1797.13 1269.37 1928.94 1269.36Z" fill="#223552" fill-rule="evenodd"/><path d="M1393.75 2595.61C1390.6 2594.95 1387.71 2593.09 1385.82 2590.18 1382.02 2584.36 1383.67 2576.59 1389.48 2572.8L1481.55 2512.81C1487.36 2509.02 1495.14 2510.66 1498.92 2516.47 1502.71 2522.27 1501.07 2530.05 1495.25 2533.85L1403.19 2593.85C1400.29 2595.74 1396.89 2596.27 1393.75 2595.61Z" fill="#A7B0BC" fill-rule="evenodd"/><path d="M1469.78 2611.64C1466.63 2610.98 1463.74 2609.13 1461.85 2606.21L1401.85 2514.15C1398.06 2508.33 1399.7 2500.56 1405.52 2496.77 1411.32 2492.99 1419.11 2494.63 1422.89 2500.43L1482.89 2592.5C1486.68 2598.31 1485.04 2606.1 1479.22 2609.88 1476.32 2611.77 1472.92 2612.3 1469.78 2611.64Z" fill="#A7B0BC" fill-rule="evenodd"/><path d="M1501.26 2578.38C1501.26 2578.38 1501.26 2578.38 1501.26 2578.38L1378.35 2552.56C1371.57 2551.13 1367.23 2544.44 1368.65 2537.66 1370.09 2530.88 1376.75 2526.52 1383.53 2527.94 1383.54 2527.95 1383.54 2527.95 1383.54 2527.95L1506.42 2553.92C1513.2 2555.36 1517.56 2561.95 1516.12 2568.74 1514.7 2575.53 1508.05 2579.8 1501.26 2578.38Z" fill="#A7B0BC" fill-rule="evenodd"/><path d="M1426.86 2626.9C1426.86 2626.9 1426.86 2626.9 1426.85 2626.89 1420.06 2625.47 1415.71 2618.88 1417.14 2612.09L1443.06 2489.17C1444.49 2482.38 1451.16 2478 1457.95 2479.43 1457.95 2479.43 1457.95 2479.43 1457.95 2479.43 1464.74 2480.86 1469.06 2487.6 1467.63 2494.39L1441.73 2617.24C1440.3 2624.02 1433.65 2628.32 1426.86 2626.9Z" fill="#A7B0BC" fill-rule="evenodd"/><path d="M2080.3 2590.27C2077.16 2589.61 2074.26 2587.75 2072.37 2584.84 2068.58 2579.02 2070.23 2571.25 2076.04 2567.46L2168.1 2507.46C2173.92 2503.68 2181.7 2505.32 2185.48 2511.13 2189.26 2516.93 2187.63 2524.71 2181.81 2528.51L2089.75 2588.51C2086.85 2590.4 2083.45 2590.93 2080.3 2590.27Z" fill="#A7B0BC" fill-rule="evenodd"/><path d="M2156.34 2606.3C2153.19 2605.64 2150.29 2603.78 2148.4 2600.87L2088.4 2508.81C2084.62 2502.99 2086.26 2495.21 2092.07 2491.43 2097.87 2487.65 2105.67 2489.29 2109.45 2495.09L2169.45 2587.16C2173.23 2592.96 2171.59 2600.76 2165.78 2604.54 2162.88 2606.43 2159.48 2606.96 2156.34 2606.3Z" fill="#A7B0BC" fill-rule="evenodd"/><path d="M2187.82 2573.03C2187.82 2573.03 2187.82 2573.03 2187.82 2573.03L2064.91 2547.22C2058.13 2545.79 2053.78 2539.1 2055.21 2532.32 2056.65 2525.54 2063.31 2521.17 2070.09 2522.6 2070.1 2522.6 2070.1 2522.6 2070.1 2522.6L2192.98 2548.58C2199.76 2550.02 2204.12 2556.61 2202.68 2563.4 2201.25 2570.19 2194.6 2574.46 2187.82 2573.03Z" fill="#A7B0BC" fill-rule="evenodd"/><path d="M2113.42 2621.55C2113.42 2621.55 2113.42 2621.55 2113.41 2621.55 2106.62 2620.12 2102.27 2613.54 2103.7 2606.75L2129.62 2483.83C2131.05 2477.04 2137.72 2472.66 2144.5 2474.09 2144.5 2474.09 2144.5 2474.09 2144.5 2474.09 2151.3 2475.52 2155.62 2482.26 2154.19 2489.05L2128.28 2611.9C2126.86 2618.68 2120.2 2622.98 2113.42 2621.55Z" fill="#A7B0BC" fill-rule="evenodd"/><path d="M1619.95 2620.46C1616.8 2619.8 1613.91 2617.95 1612.02 2615.04 1608.22 2609.22 1609.87 2601.44 1615.69 2597.66L1707.75 2537.66C1713.56 2533.88 1721.34 2535.51 1725.12 2541.33 1728.91 2547.13 1727.27 2554.91 1721.46 2558.7L1629.39 2618.7C1626.49 2620.6 1623.1 2621.13 1619.95 2620.46Z" fill="#A7B0BC" fill-rule="evenodd"/><path d="M1695.98 2636.5C1692.83 2635.83 1689.94 2633.98 1688.05 2631.07L1628.05 2539C1624.27 2533.19 1625.9 2525.41 1631.72 2521.63 1637.52 2517.84 1645.31 2519.48 1649.1 2525.28L1709.09 2617.36C1712.88 2623.16 1711.24 2630.95 1705.43 2634.73 1702.52 2636.63 1699.13 2637.16 1695.98 2636.5Z" fill="#A7B0BC" fill-rule="evenodd"/><path d="M1727.46 2603.23C1727.46 2603.23 1727.46 2603.23 1727.46 2603.23L1604.56 2577.41C1597.77 2575.99 1593.43 2569.3 1594.86 2562.52 1596.3 2555.73 1602.95 2551.37 1609.73 2552.8 1609.75 2552.8 1609.75 2552.8 1609.75 2552.8L1732.62 2578.78C1739.4 2580.22 1743.77 2586.81 1742.32 2593.6 1740.9 2600.38 1734.25 2604.66 1727.46 2603.23Z" fill="#A7B0BC" fill-rule="evenodd"/><path d="M1653.06 2651.75C1653.06 2651.75 1653.06 2651.75 1653.05 2651.75 1646.27 2650.32 1641.92 2643.73 1643.34 2636.95L1669.26 2514.02C1670.69 2507.24 1677.36 2502.85 1684.15 2504.28 1684.15 2504.28 1684.15 2504.28 1684.15 2504.28 1690.94 2505.71 1695.26 2512.46 1693.83 2519.24L1667.93 2642.09C1666.5 2648.88 1659.85 2653.18 1653.06 2651.75Z" fill="#A7B0BC" fill-rule="evenodd"/><path d="M1648.11 2343.3C1651.26 2343.96 1654.15 2345.81 1656.04 2348.73 1659.84 2354.54 1658.19 2362.32 1652.38 2366.1L1560.31 2426.1C1554.5 2429.88 1546.72 2428.25 1542.94 2422.43 1539.15 2416.63 1540.79 2408.85 1546.6 2405.06L1638.67 2345.06C1641.57 2343.17 1644.97 2342.64 1648.11 2343.3Z" fill="#A7B0BC" fill-rule="evenodd"/><path d="M1572.08 2327.27C1575.23 2327.93 1578.12 2329.78 1580.01 2332.7L1640.01 2424.76C1643.79 2430.57 1642.16 2438.35 1636.34 2442.13 1630.54 2445.92 1622.75 2444.28 1618.96 2438.48L1558.97 2346.4C1555.18 2340.6 1556.82 2332.81 1562.64 2329.03 1565.54 2327.13 1568.93 2326.6 1572.08 2327.27Z" fill="#A7B0BC" fill-rule="evenodd"/><path d="M1540.6 2360.53C1540.6 2360.53 1540.6 2360.53 1540.6 2360.53L1663.5 2386.35C1670.29 2387.77 1674.63 2394.46 1673.2 2401.25 1671.76 2408.03 1665.11 2412.39 1658.33 2410.96 1658.31 2410.96 1658.31 2410.96 1658.31 2410.96L1535.44 2384.99C1528.66 2383.55 1524.29 2376.96 1525.74 2370.16 1527.16 2363.38 1533.81 2359.1 1540.6 2360.53Z" fill="#A7B0BC" fill-rule="evenodd"/><path d="M1615 2312.01C1615 2312.01 1615 2312.01 1615.01 2312.01 1621.79 2313.44 1626.14 2320.03 1624.72 2326.81L1598.8 2449.74C1597.37 2456.52 1590.7 2460.91 1583.91 2459.48 1583.91 2459.48 1583.91 2459.48 1583.91 2459.48 1577.12 2458.05 1572.8 2451.3 1574.23 2444.52L1600.13 2321.67C1601.56 2314.88 1608.21 2310.58 1615 2312.01Z" fill="#A7B0BC" fill-rule="evenodd"/><path d="M2180.64 2284.31C2183.79 2284.97 2186.69 2286.83 2188.57 2289.74 2192.37 2295.55 2190.72 2303.33 2184.91 2307.11L2092.84 2367.11C2087.03 2370.9 2079.25 2369.26 2075.47 2363.45 2071.68 2357.64 2073.32 2349.86 2079.14 2346.07L2171.2 2286.07C2174.1 2284.18 2177.5 2283.65 2180.64 2284.31Z" fill="#A7B0BC" fill-rule="evenodd"/><path d="M2104.61 2268.28C2107.76 2268.94 2110.65 2270.79 2112.54 2273.71L2172.54 2365.77C2176.33 2371.58 2174.69 2379.36 2168.87 2383.15 2163.07 2386.93 2155.28 2385.29 2151.5 2379.49L2091.5 2287.41C2087.72 2281.61 2089.35 2273.82 2095.17 2270.04 2098.07 2268.15 2101.47 2267.62 2104.61 2268.28Z" fill="#A7B0BC" fill-rule="evenodd"/><path d="M2073.13 2301.54C2073.13 2301.54 2073.13 2301.54 2073.13 2301.54L2196.04 2327.36C2202.82 2328.79 2207.16 2335.47 2205.74 2342.26 2204.3 2349.04 2197.64 2353.4 2190.86 2351.98 2190.85 2351.97 2190.85 2351.97 2190.85 2351.97L2067.97 2326C2061.19 2324.56 2056.83 2317.97 2058.27 2311.17 2059.69 2304.39 2066.34 2300.12 2073.13 2301.54Z" fill="#A7B0BC" fill-rule="evenodd"/><path d="M2147.53 2253.02C2147.53 2253.02 2147.53 2253.02 2147.54 2253.03 2154.33 2254.45 2158.68 2261.04 2157.25 2267.82L2131.33 2390.75C2129.9 2397.53 2123.23 2401.92 2116.44 2400.49 2116.44 2400.49 2116.44 2400.49 2116.44 2400.49 2109.65 2399.06 2105.33 2392.31 2106.76 2385.53L2132.66 2262.68C2134.09 2255.89 2140.75 2251.6 2147.53 2253.02Z" fill="#A7B0BC" fill-rule="evenodd"/><path d="M1422.96 2266.03C1426.11 2266.69 1429 2268.55 1430.89 2271.46 1434.69 2277.28 1433.04 2285.05 1427.23 2288.84L1335.16 2348.84C1329.35 2352.62 1321.57 2350.98 1317.79 2345.17 1314 2339.37 1315.64 2331.59 1321.46 2327.79L1413.52 2267.79C1416.42 2265.9 1419.82 2265.37 1422.96 2266.03Z" fill="#A7B0BC" fill-rule="evenodd"/><path d="M1346.93 2250C1350.08 2250.66 1352.97 2252.52 1354.86 2255.43L1414.86 2347.49C1418.64 2353.31 1417.01 2361.09 1411.19 2364.87 1405.39 2368.65 1397.6 2367.01 1393.82 2361.21L1333.82 2269.14C1330.03 2263.34 1331.67 2255.54 1337.49 2251.76 1340.39 2249.87 1343.78 2249.34 1346.93 2250Z" fill="#A7B0BC" fill-rule="evenodd"/><path d="M1315.45 2283.27C1315.45 2283.27 1315.45 2283.27 1315.45 2283.27L1438.36 2309.08C1445.14 2310.51 1449.48 2317.2 1448.06 2323.98 1446.62 2330.76 1439.96 2335.12 1433.18 2333.7 1433.16 2333.7 1433.16 2333.7 1433.16 2333.7L1310.29 2307.72C1303.51 2306.28 1299.14 2299.69 1300.59 2292.9 1302.01 2286.11 1308.66 2281.84 1315.45 2283.27Z" fill="#A7B0BC" fill-rule="evenodd"/><path d="M1389.85 2234.75C1389.85 2234.75 1389.85 2234.75 1389.86 2234.75 1396.64 2236.18 1401 2242.76 1399.57 2249.55L1373.65 2372.47C1372.22 2379.26 1365.55 2383.64 1358.76 2382.21 1358.76 2382.21 1358.76 2382.21 1358.76 2382.21 1351.97 2380.78 1347.65 2374.04 1349.08 2367.25L1374.98 2244.4C1376.41 2237.62 1383.06 2233.32 1389.85 2234.75Z" fill="#A7B0BC" fill-rule="evenodd"/><path d="M1963.26 2176.84 1908.93 2407.82 2041.01 2407.5 1858.15 2677.26 1897.94 2451.49 1781.56 2448.19Z" fill="#F1A21B" fill-rule="evenodd"/></g></svg>