<svg width="1434" height="1355" xmlns="http://www.w3.org/2000/svg" xmlns:xlink="http://www.w3.org/1999/xlink" xml:space="preserve" overflow="hidden"><defs><clipPath id="clip0"><rect x="2964" y="135" width="1434" height="1355"/></clipPath></defs><g clip-path="url(#clip0)" transform="translate(-2964 -135)"><path d="M3805.09 135.37C3962.36 135.351 4095.2 220.739 4137.84 337.846L4142.22 352.306 4145.07 356.294C4150.06 363.746 4154.88 371.459 4159.51 379.418L4171.79 402.083 4187.5 404.683C4242.79 416.338 4292.62 444.704 4328.96 489.588 4346.75 511.572 4360.05 535.957 4369 561.805L4375.78 585.493 4378.21 590.671C4402.72 650.394 4404.28 727.926 4377.09 804.235 4361.13 849.014 4337.27 887.774 4308.83 918.299L4291.97 934.539 4286.84 941.295C4259.61 970.023 4215.23 993.22 4162.05 1004.82L4152.93 1006.24 4150.89 1006.89C4138.48 1009.98 4125.45 1012.38 4111.94 1014.01L4071.04 1016.43 4062 1017.83 4048.97 1018.29 4048.59 1018.55C4047.31 1019.09 4045.91 1019.39 4044.44 1019.39L3883.61 1019.35 3882.23 1019.07 3821.02 1019.08 3798.6 1041.04C3780.44 1056.38 3758.64 1070.38 3734.04 1082.04L3716.49 1089.09 3699.45 1098.12C3660.3 1116.08 3614.33 1126.42 3565.16 1126.43 3493.65 1126.44 3428.91 1104.57 3382.05 1069.21L3367.24 1055.66 3365.1 1053.9 3364.1 1052.79 3350.43 1040.29C3345.78 1035.09 3341.45 1029.72 3337.46 1024.18L3334.4 1019.39 3260.33 1019.4 3249.77 1021.3 3231.85 1022.25 3231.61 1022.3C3203 1026.11 3171.25 1022.95 3139.84 1011.69 3113.67 1002.31 3090.83 988.426 3072.5 971.812L3066.52 965.145 3062.42 962.345C3036.24 940.863 3012.29 906.595 2996.75 864.634L2996.5 863.79 2996.38 863.597C2991.54 854.148 2987.13 844.138 2983.25 833.648 2979.36 823.157 2976.19 812.683 2973.71 802.348L2968.73 774.315 2968.04 771.442C2964.64 751.745 2963.51 730.276 2965.09 707.937L2968.39 682.501 2968.43 679.473C2970.79 645.965 2978.92 615.26 2990.88 590.163L2996.94 579.543 2997.86 576.828C3015.24 538.639 3043.05 508.664 3079.94 492.64 3086.09 489.97 3092.34 487.75 3098.68 485.966L3105.76 484.475 3106.05 483.716C3173.88 325.595 3335.45 238.35 3481.22 286.85L3494.81 292.264 3499.83 283.76C3558.63 195.387 3673.28 135.385 3805.09 135.37Z" fill="#223552" fill-rule="evenodd"/><path d="M3870.17 1453.31C3867.03 1452.65 3864.13 1450.79 3862.24 1447.88 3858.45 1442.06 3860.1 1434.29 3865.91 1430.5L3957.97 1370.5C3963.79 1366.72 3971.57 1368.36 3975.35 1374.17 3979.13 1379.97 3977.5 1387.75 3971.68 1391.55L3879.62 1451.55C3876.72 1453.44 3873.32 1453.97 3870.17 1453.31Z" fill="#A7B0BC" fill-rule="evenodd"/><path d="M3946.21 1469.34C3943.06 1468.68 3940.16 1466.82 3938.27 1463.91L3878.27 1371.85C3874.49 1366.03 3876.13 1358.25 3881.94 1354.47 3887.74 1350.69 3895.54 1352.33 3899.32 1358.13L3959.32 1450.2C3963.1 1456 3961.46 1463.8 3955.65 1467.58 3952.75 1469.47 3949.35 1470 3946.21 1469.34Z" fill="#A7B0BC" fill-rule="evenodd"/><path d="M3977.69 1436.07C3977.69 1436.07 3977.69 1436.07 3977.69 1436.07L3854.78 1410.26C3848 1408.83 3843.65 1402.14 3845.08 1395.36 3846.52 1388.58 3853.17 1384.21 3859.96 1385.64 3859.97 1385.64 3859.97 1385.64 3859.97 1385.64L3982.85 1411.62C3989.63 1413.06 3993.99 1419.65 3992.55 1426.44 3991.12 1433.23 3984.47 1437.5 3977.69 1436.07Z" fill="#A7B0BC" fill-rule="evenodd"/><path d="M3903.29 1484.59C3903.29 1484.59 3903.29 1484.59 3903.28 1484.59 3896.49 1483.16 3892.14 1476.58 3893.57 1469.79L3919.49 1346.87C3920.92 1340.08 3927.59 1335.7 3934.37 1337.12 3934.37 1337.12 3934.37 1337.12 3934.37 1337.12 3941.17 1338.55 3945.49 1345.3 3944.06 1352.09L3918.15 1474.94C3916.73 1481.72 3910.07 1486.02 3903.29 1484.59Z" fill="#A7B0BC" fill-rule="evenodd"/><path d="M4051.46 1187.82C4054.6 1188.48 4057.5 1190.34 4059.39 1193.25 4063.18 1199.07 4061.53 1206.84 4055.72 1210.62L3963.66 1270.62C3957.84 1274.41 3950.06 1272.77 3946.28 1266.96 3942.5 1261.15 3944.13 1253.38 3949.95 1249.58L4042.01 1189.58C4044.91 1187.69 4048.31 1187.16 4051.46 1187.82Z" fill="#A7B0BC" fill-rule="evenodd"/><path d="M3975.42 1171.79C3978.57 1172.45 3981.47 1174.3 3983.36 1177.22L4043.36 1269.28C4047.14 1275.09 4045.5 1282.87 4039.69 1286.66 4033.89 1290.44 4026.09 1288.8 4022.31 1283L3962.31 1190.93C3958.53 1185.12 3960.17 1177.33 3965.98 1173.55 3968.88 1171.66 3972.28 1171.13 3975.42 1171.79Z" fill="#A7B0BC" fill-rule="evenodd"/><path d="M3943.94 1205.05C3943.94 1205.05 3943.94 1205.05 3943.94 1205.05L4066.85 1230.87C4073.63 1232.3 4077.98 1238.99 4076.55 1245.77 4075.11 1252.55 4068.46 1256.91 4061.67 1255.49 4061.66 1255.48 4061.66 1255.48 4061.66 1255.48L3938.78 1229.51C3932 1228.07 3927.64 1221.48 3929.08 1214.68 3930.51 1207.9 3937.16 1203.63 3943.94 1205.05Z" fill="#A7B0BC" fill-rule="evenodd"/><path d="M4018.34 1156.53C4018.34 1156.53 4018.34 1156.53 4018.35 1156.54 4025.14 1157.96 4029.49 1164.55 4028.06 1171.34L4002.14 1294.26C4000.71 1301.05 3994.04 1305.43 3987.26 1304 3987.26 1304 3987.26 1304 3987.26 1304 3980.46 1302.57 3976.14 1295.83 3977.57 1289.04L4003.48 1166.19C4004.9 1159.41 4011.56 1155.11 4018.34 1156.53Z" fill="#A7B0BC" fill-rule="evenodd"/><path d="M3558.08 1454.33C3554.94 1453.67 3552.04 1451.82 3550.15 1448.9 3546.36 1443.09 3548.01 1435.31 3553.82 1431.53L3645.88 1371.53C3651.7 1367.75 3659.48 1369.38 3663.26 1375.2 3667.04 1381 3665.41 1388.78 3659.59 1392.57L3567.53 1452.57C3564.63 1454.46 3561.23 1454.99 3558.08 1454.33Z" fill="#A7B0BC" fill-rule="evenodd"/><path d="M3634.12 1470.36C3630.97 1469.7 3628.07 1467.85 3626.18 1464.93L3566.18 1372.87C3562.4 1367.06 3564.04 1359.28 3569.85 1355.5 3575.65 1351.71 3583.45 1353.35 3587.23 1359.15L3647.23 1451.23C3651.01 1457.03 3649.37 1464.82 3643.56 1468.6 3640.66 1470.5 3637.26 1471.03 3634.12 1470.36Z" fill="#A7B0BC" fill-rule="evenodd"/><path d="M3665.6 1437.1C3665.6 1437.1 3665.6 1437.1 3665.6 1437.1L3542.69 1411.28C3535.91 1409.86 3531.56 1403.17 3532.99 1396.38 3534.43 1389.6 3541.08 1385.24 3547.87 1386.67 3547.88 1386.67 3547.88 1386.67 3547.88 1386.67L3670.76 1412.64C3677.54 1414.08 3681.9 1420.67 3680.46 1427.47 3679.03 1434.25 3672.38 1438.53 3665.6 1437.1Z" fill="#A7B0BC" fill-rule="evenodd"/><path d="M3591.2 1485.62C3591.2 1485.62 3591.2 1485.62 3591.19 1485.62 3584.4 1484.19 3580.05 1477.6 3581.48 1470.82L3607.4 1347.89C3608.83 1341.11 3615.5 1336.72 3622.28 1338.15 3622.28 1338.15 3622.28 1338.15 3622.28 1338.15 3629.08 1339.58 3633.4 1346.33 3631.97 1353.11L3606.06 1475.96C3604.64 1482.75 3597.98 1487.05 3591.2 1485.62Z" fill="#A7B0BC" fill-rule="evenodd"/><path d="M3739.37 1188.85C3742.51 1189.51 3745.41 1191.36 3747.3 1194.27 3751.09 1200.09 3749.44 1207.87 3743.63 1211.65L3651.57 1271.65C3645.75 1275.43 3637.97 1273.8 3634.19 1267.98 3630.41 1262.18 3632.04 1254.4 3637.86 1250.61L3729.92 1190.61C3732.82 1188.71 3736.22 1188.18 3739.37 1188.85Z" fill="#A7B0BC" fill-rule="evenodd"/><path d="M3663.34 1172.81C3666.48 1173.48 3669.38 1175.33 3671.27 1178.24L3731.27 1270.31C3735.05 1276.12 3733.41 1283.9 3727.6 1287.68 3721.8 1291.47 3714.01 1289.83 3710.22 1284.03L3650.22 1191.95C3646.44 1186.15 3648.08 1178.36 3653.89 1174.57 3656.79 1172.68 3660.19 1172.15 3663.34 1172.81Z" fill="#A7B0BC" fill-rule="evenodd"/><path d="M3631.85 1206.08C3631.85 1206.08 3631.85 1206.08 3631.85 1206.08L3754.76 1231.89C3761.54 1233.32 3765.89 1240.01 3764.46 1246.79 3763.02 1253.58 3756.37 1257.94 3749.58 1256.51 3749.57 1256.51 3749.57 1256.51 3749.57 1256.51L3626.69 1230.53C3619.91 1229.09 3615.55 1222.5 3616.99 1215.71 3618.42 1208.93 3625.07 1204.65 3631.85 1206.08Z" fill="#A7B0BC" fill-rule="evenodd"/><path d="M3706.25 1157.56C3706.25 1157.56 3706.25 1157.56 3706.27 1157.56 3713.05 1158.99 3717.4 1165.58 3715.97 1172.36L3690.05 1295.29C3688.62 1302.07 3681.95 1306.45 3675.17 1305.03 3675.17 1305.03 3675.17 1305.03 3675.17 1305.03 3668.37 1303.6 3664.05 1296.85 3665.48 1290.07L3691.39 1167.21C3692.81 1160.43 3699.47 1156.13 3706.25 1157.56Z" fill="#A7B0BC" fill-rule="evenodd"/><path d="M3210.17 1457.82C3207.02 1457.16 3204.13 1455.3 3202.24 1452.39 3198.44 1446.57 3200.09 1438.8 3205.91 1435.01L3297.97 1375.01C3303.78 1371.23 3311.56 1372.87 3315.34 1378.68 3319.13 1384.48 3317.49 1392.26 3311.68 1396.06L3219.61 1456.06C3216.71 1457.95 3213.32 1458.48 3210.17 1457.82Z" fill="#A7B0BC" fill-rule="evenodd"/><path d="M3286.2 1473.85C3283.06 1473.19 3280.16 1471.33 3278.27 1468.42L3218.27 1376.36C3214.49 1370.54 3216.12 1362.76 3221.94 1358.98 3227.74 1355.2 3235.53 1356.84 3239.32 1362.64L3299.31 1454.71C3303.1 1460.51 3301.46 1468.31 3295.65 1472.09 3292.74 1473.98 3289.35 1474.51 3286.2 1473.85Z" fill="#A7B0BC" fill-rule="evenodd"/><path d="M3317.69 1440.58C3317.69 1440.58 3317.69 1440.58 3317.69 1440.58L3194.78 1414.77C3187.99 1413.34 3183.65 1406.65 3185.08 1399.87 3186.52 1393.09 3193.17 1388.72 3199.95 1390.15 3199.97 1390.15 3199.97 1390.15 3199.97 1390.15L3322.84 1416.13C3329.62 1417.57 3333.99 1424.16 3332.55 1430.95 3331.12 1437.74 3324.47 1442.01 3317.69 1440.58Z" fill="#A7B0BC" fill-rule="evenodd"/><path d="M3243.28 1489.1C3243.28 1489.1 3243.28 1489.1 3243.27 1489.1 3236.49 1487.67 3232.14 1481.09 3233.56 1474.3L3259.49 1351.38C3260.91 1344.59 3267.58 1340.21 3274.37 1341.64 3274.37 1341.64 3274.37 1341.64 3274.37 1341.64 3281.16 1343.07 3285.48 1349.81 3284.05 1356.6L3258.15 1479.45C3256.72 1486.23 3250.07 1490.53 3243.28 1489.1Z" fill="#A7B0BC" fill-rule="evenodd"/><path d="M3391.45 1192.33C3394.6 1192.99 3397.49 1194.85 3399.38 1197.76 3403.18 1203.58 3401.53 1211.35 3395.72 1215.14L3303.65 1275.14C3297.84 1278.92 3290.06 1277.28 3286.28 1271.47 3282.49 1265.67 3284.13 1257.89 3289.95 1254.09L3382.01 1194.09C3384.91 1192.2 3388.31 1191.67 3391.45 1192.33Z" fill="#A7B0BC" fill-rule="evenodd"/><path d="M3315.42 1176.3C3318.57 1176.96 3321.46 1178.82 3323.35 1181.73L3383.35 1273.79C3387.13 1279.61 3385.5 1287.39 3379.68 1291.17 3373.88 1294.95 3366.09 1293.31 3362.31 1287.51L3302.31 1195.44C3298.52 1189.64 3300.16 1181.84 3305.98 1178.06 3308.88 1176.17 3312.27 1175.64 3315.42 1176.3Z" fill="#A7B0BC" fill-rule="evenodd"/><path d="M3283.94 1209.57C3283.94 1209.57 3283.94 1209.57 3283.94 1209.57L3406.85 1235.38C3413.63 1236.81 3417.97 1243.5 3416.55 1250.28 3415.11 1257.06 3408.45 1261.42 3401.67 1260 3401.66 1260 3401.66 1260 3401.66 1260L3278.78 1234.02C3272 1232.58 3267.64 1225.99 3269.08 1219.2 3270.5 1212.41 3277.15 1208.14 3283.94 1209.57Z" fill="#A7B0BC" fill-rule="evenodd"/><path d="M3358.34 1161.05C3358.34 1161.05 3358.34 1161.05 3358.35 1161.05 3365.14 1162.47 3369.49 1169.06 3368.06 1175.85L3342.14 1298.77C3340.71 1305.56 3334.04 1309.94 3327.25 1308.51 3327.25 1308.51 3327.25 1308.51 3327.25 1308.51 3320.46 1307.08 3316.14 1300.34 3317.57 1293.55L3343.47 1170.7C3344.9 1163.92 3351.55 1159.62 3358.34 1161.05Z" fill="#A7B0BC" fill-rule="evenodd"/></g></svg>