<svg width="1434" height="1394" xmlns="http://www.w3.org/2000/svg" xmlns:xlink="http://www.w3.org/1999/xlink" xml:space="preserve" overflow="hidden"><defs><clipPath id="clip0"><rect x="1572" y="-156" width="1434" height="1394"/></clipPath></defs><g clip-path="url(#clip0)" transform="translate(-1572 156)"><path d="M2785.46 792.241 2571.69 1182.47C2561.9 1200.34 2539.48 1206.89 2521.61 1197.1L2489.25 1179.37 2703.02 789.147C2712.81 771.276 2735.24 764.725 2753.11 774.515L2785.46 792.241Z" fill="#5F96CD" fill-rule="evenodd"/><path d="M2093.87 899.894 1947.38 1167.3C1937.59 1185.17 1915.17 1191.72 1897.3 1181.93L1864.94 1164.2 2011.43 896.8C2021.22 878.929 2043.64 872.378 2061.51 882.168L2093.87 899.894Z" fill="#5F96CD" fill-rule="evenodd"/><path d="M2413.27-155.751C2570.54-155.769 2703.37-70.3817 2746.02 46.7256L2750.4 61.1852 2753.25 65.1732C2758.23 72.6255 2763.05 80.338 2767.69 88.2973L2779.96 110.962 2795.68 113.562C2850.97 125.217 2900.8 153.584 2937.13 198.467 2954.93 220.451 2968.22 244.836 2977.18 270.685L2983.95 294.372 2986.38 299.55C3010.89 359.273 3012.46 436.806 2985.26 513.115 2969.31 557.893 2945.45 596.653 2917.01 627.179L2900.15 643.418 2895.02 650.174C2867.79 678.902 2823.4 702.099 2770.23 713.7L2761.11 715.118 2759.07 715.77C2746.65 718.861 2733.63 721.26 2720.12 722.885L2679.22 725.305 2670.18 726.709 2657.15 727.171 2656.77 727.43C2655.49 727.971 2654.09 728.27 2652.61 728.27L2491.78 728.23 2490.41 727.952 2429.19 727.959 2406.77 749.921C2388.61 765.264 2366.81 779.255 2342.22 790.917L2324.67 797.97 2307.63 807C2268.47 824.958 2222.51 835.303 2173.34 835.308 2101.83 835.317 2037.09 813.451 1990.23 778.09L1975.41 764.541 1973.28 762.784 1972.27 761.667 1958.61 749.17C1953.95 743.972 1949.62 738.596 1945.64 733.059L1942.58 728.267 1868.51 728.276 1857.94 730.175 1840.03 731.125 1839.78 731.18C1811.17 734.993 1779.42 731.828 1748.02 720.573 1721.85 711.193 1699.01 697.305 1680.67 680.691L1674.69 674.024 1670.6 671.224C1644.42 649.742 1620.47 615.474 1604.93 573.513L1604.67 572.669 1604.56 572.476C1599.72 563.027 1595.31 553.017 1591.43 542.527 1587.54 532.037 1584.37 521.562 1581.88 511.228L1576.9 483.194 1576.22 480.321C1572.82 460.625 1571.69 439.155 1573.27 416.816L1576.57 391.38 1576.6 388.353C1578.97 354.845 1587.09 324.139 1599.06 299.043L1605.11 288.423 1606.04 285.707C1623.42 247.518 1651.23 217.544 1688.12 201.519 1694.27 198.849 1700.52 196.629 1706.86 194.846L1713.94 193.354 1714.23 192.596C1782.06 34.4745 1943.63-52.7702 2089.4-4.27042L2102.99 1.1438 2108.01-7.36067C2166.8-95.7341 2281.46-155.735 2413.27-155.751Z" fill="#223552" fill-rule="evenodd"/><path d="M2245.36 901.51 2184.66 1012.31C2174.87 1030.18 2152.45 1036.73 2134.58 1026.94L2102.22 1009.22 2162.92 898.415C2172.71 880.545 2195.13 873.994 2213 883.784L2245.36 901.51Z" fill="#5F96CD" fill-rule="evenodd"/><path d="M1930.97 901.199 1870.27 1012C1860.48 1029.87 1838.05 1036.42 1820.18 1026.63L1787.83 1008.91 1848.52 898.104C1858.31 880.234 1880.74 873.683 1898.61 883.473L1930.97 901.199Z" fill="#5F96CD" fill-rule="evenodd"/><path d="M2458.26 737.361 2403.93 968.335 2536.01 968.017 2353.15 1237.77 2392.94 1012.01 2276.56 1008.7Z" fill="#F1A21B" fill-rule="evenodd"/></g></svg>