<svg width="2337" height="1771" xmlns="http://www.w3.org/2000/svg" xmlns:xlink="http://www.w3.org/1999/xlink" xml:space="preserve" overflow="hidden"><defs><clipPath id="clip0"><rect x="69" y="61" width="2337" height="1771"/></clipPath></defs><g clip-path="url(#clip0)" transform="translate(-69 -61)"><path d="M308.358 655.838C299.155 447.978 459.422 272.048 666.324 262.887 873.225 253.727 1048.41 414.804 1057.62 622.664 1066.82 830.523 906.553 1006.45 699.651 1015.61 492.749 1024.77 317.562 863.698 308.358 655.838Z" fill="#FFDB69" fill-rule="evenodd"/><path d="M1050.89 606.278C1044.79 616.05 1041.65 517.411 1016.18 472.78 990.712 428.148 945.642 371.948 898.089 338.485 850.536 305.021 784.741 280.418 730.856 271.993 676.971 263.567 621.095 273.042 574.779 287.933 516.062 307.089 463.57 337.622 439.195 359.427 414.822 381.232 393.478 409.344 374.107 443.361 354.737 477.379 332.952 518.714 322.975 563.528 312.999 608.342 307.136 662.673 318.852 712.375 332.625 779.073 372.329 829.311 400.73 869.633 417.867 883.224 442.259 922.609 492.587 945.189 542.915 967.769 454.13 965.234 436.973 951.679 278.832 826.603 240.192 603.137 347.111 431.843 462.687 246.681 707.357 190.067 892.527 305.648 994.141 369.074 1060.93 473.714 1075.76 592.675 1076.93 602.085 1055.52 598.858 1050.89 606.278Z" fill="#010202" fill-rule="evenodd"/><path d="M547.281 253.437C544.268 253.085 541.617 249.635 540.045 243.169L508.796 114.903C505.641 101.971 507.987 81.8756 514.036 70.0149 520.073 58.1576 527.536 59.0287 530.68 71.9578L561.928 200.227C565.072 213.158 562.726 233.253 556.689 245.112 553.67 251.042 550.295 253.789 547.281 253.437Z" fill="#010202" fill-rule="evenodd"/><path d="M185.919 999.539C185.067 996.628 187.209 992.84 192.549 988.87L298.455 910.05C309.131 902.099 328.549 896.418 341.83 897.359 355.103 898.292 357.212 905.502 346.535 913.442L240.626 992.263C229.947 1000.2 210.529 1005.88 197.254 1004.95 190.617 1004.49 186.771 1002.45 185.919 999.539Z" fill="#010202" fill-rule="evenodd"/><path d="M835.923 259.89C833.832 257.693 834.001 253.344 836.929 247.369L894.958 128.789C900.805 116.83 915.463 102.885 927.7 97.6376 939.925 92.3854 945.104 97.8286 939.25 109.778L881.218 228.36C875.363 240.31 860.705 254.256 848.479 259.509 842.366 262.136 838.015 262.089 835.923 259.89Z" fill="#010202" fill-rule="evenodd"/><path d="M1046.49 423.801C1045.99 420.808 1048.56 417.303 1054.34 413.997L1168.88 348.348C1180.42 341.725 1200.38 338.396 1213.45 340.913 1226.52 343.419 1227.76 350.829 1216.21 357.441L1101.67 423.09C1090.12 429.702 1070.16 433.031 1057.1 430.525 1050.56 429.272 1046.98 426.793 1046.49 423.801Z" fill="#010202" fill-rule="evenodd"/><path d="M262.307 664.528C261.286 667.385 257.327 669.191 250.674 669.267L118.665 670.831C105.355 670.993 86.3036 664.183 76.1097 655.619 65.9162 647.066 68.4453 639.992 81.7503 639.84L213.762 638.276C227.068 638.125 246.12 644.935 256.314 653.488 261.412 657.764 263.328 661.671 262.307 664.528Z" fill="#010202" fill-rule="evenodd"/><path d="M331.828 422.285C329.41 424.117 325.108 423.461 319.499 419.883L208.17 348.928C196.942 341.778 184.727 325.649 180.884 312.902 177.035 300.165 183.025 295.629 194.242 302.785L305.573 373.742C316.792 380.899 329.007 397.027 332.857 409.766 334.782 416.135 334.247 420.453 331.828 422.285Z" fill="#010202" fill-rule="evenodd"/><path d="M1577.7 438.319C1797.66 438.4 1983.49 558.52 2043.22 723.167L2049.35 743.496 2053.34 749.104C2060.32 759.583 2067.06 770.428 2073.55 781.619L2090.73 813.488 2112.72 817.153C2190.05 833.574 2259.77 873.483 2310.61 936.6 2335.52 967.516 2354.12 1001.8 2366.67 1038.14L2376.16 1071.45 2379.56 1078.73C2413.88 1162.7 2416.12 1271.68 2378.14 1378.93 2355.86 1441.87 2322.51 1496.34 2282.76 1539.23L2259.19 1562.04 2252.02 1571.54C2213.95 1611.9 2151.89 1644.48 2077.54 1660.75L2064.77 1662.74 2061.92 1663.65C2044.57 1667.99 2026.34 1671.35 2007.45 1673.63L1950.25 1677 1937.62 1678.97 1919.39 1679.61 1918.86 1679.97C1917.07 1680.73 1915.11 1681.15 1913.05 1681.15L1688.11 1680.98 1686.19 1680.59 1600.58 1680.56 1569.24 1711.42C1543.85 1732.97 1513.37 1752.62 1478.98 1769L1454.44 1778.9 1430.61 1791.58C1375.86 1816.8 1311.58 1831.31 1242.82 1831.29 1142.8 1831.25 1052.24 1800.47 986.681 1750.73L965.953 1731.67 962.969 1729.2 961.557 1727.63 942.439 1710.06C935.927 1702.75 929.866 1695.19 924.288 1687.4L920.008 1680.66 816.413 1680.62 801.639 1683.28 776.584 1684.61 776.24 1684.69C736.228 1690.03 691.821 1685.56 647.89 1669.71 611.282 1656.51 579.336 1636.97 553.677 1613.61L545.307 1604.23 539.576 1600.29C502.954 1570.07 469.426 1521.89 447.67 1462.89L447.309 1461.71 447.15 1461.43C440.376 1448.15 434.201 1434.08 428.762 1419.33 423.323 1404.58 418.877 1389.85 415.395 1375.32L408.413 1335.91 407.447 1331.87C402.686 1304.18 401.09 1274 403.281 1242.6L407.881 1206.85 407.929 1202.59C411.215 1155.49 422.553 1112.34 439.275 1077.07L447.734 1062.14 449.024 1058.32C473.3 1004.66 512.183 962.538 563.761 940.038 572.358 936.288 581.104 933.172 589.965 930.67L599.87 928.578 600.27 927.512C695.026 705.287 920.941 582.757 1124.84 651.033L1143.86 658.654 1150.87 646.703C1233.04 522.516 1393.36 438.251 1577.7 438.319Z" fill="#223552" fill-rule="evenodd"/></g></svg>