<svg width="1433" height="1183" xmlns="http://www.w3.org/2000/svg" xmlns:xlink="http://www.w3.org/1999/xlink" xml:space="preserve" overflow="hidden"><defs><clipPath id="clip0"><rect x="277" y="187" width="1433" height="1183"/></clipPath></defs><g clip-path="url(#clip0)" transform="translate(-277 -187)"><path d="M1118 187.945C1275.27 187.926 1408.11 273.314 1450.76 390.421L1455.13 404.881 1457.98 408.869C1462.97 416.321 1467.79 424.034 1472.42 431.993L1484.7 454.658 1500.41 457.258C1555.7 468.913 1605.54 497.279 1641.87 542.163 1659.66 564.147 1672.96 588.532 1681.92 614.381L1688.69 638.068 1691.12 643.246C1715.63 702.969 1717.19 780.502 1690 856.811 1674.04 901.589 1650.18 940.349 1621.75 970.874L1604.88 987.114 1599.75 993.87C1572.52 1022.6 1528.14 1045.8 1474.97 1057.4L1465.84 1058.81 1463.8 1059.47C1451.39 1062.56 1438.36 1064.96 1424.85 1066.58L1383.95 1069 1374.92 1070.4 1361.88 1070.87 1361.5 1071.13C1360.22 1071.67 1358.82 1071.97 1357.35 1071.97L1196.52 1071.93 1195.14 1071.65 1133.93 1071.65 1111.51 1093.62C1093.35 1108.96 1071.55 1122.95 1046.95 1134.61L1029.41 1141.67 1012.36 1150.7C973.206 1168.65 927.24 1179 878.075 1179 806.562 1179.01 741.822 1157.15 694.961 1121.79L680.148 1108.24 678.015 1106.48 677.007 1105.36 663.343 1092.87C658.689 1087.67 654.358 1082.29 650.373 1076.75L647.314 1071.96 573.243 1071.97 562.678 1073.87 544.763 1074.82 544.518 1074.88C515.907 1078.69 484.157 1075.52 452.751 1064.27 426.581 1054.89 403.746 1041 385.407 1024.39L379.427 1017.72 375.33 1014.92C349.155 993.438 325.199 959.17 309.664 917.209L309.406 916.365 309.293 916.172C304.454 906.723 300.043 896.713 296.16 886.223 292.276 875.733 289.103 865.258 286.618 854.924L281.639 826.89 280.95 824.017C277.556 804.32 276.425 782.851 278.002 760.512L281.304 735.076 281.339 732.049C283.705 698.541 291.827 667.835 303.796 642.738L309.848 632.119 310.773 629.403C328.149 591.214 355.966 561.24 392.852 545.215 399 542.545 405.254 540.325 411.592 538.542L418.674 537.05 418.96 536.292C486.789 378.17 648.363 290.926 794.129 339.425L807.725 344.84 812.744 336.336C871.538 247.962 986.195 187.961 1118 187.945Z" fill="#223552" fill-rule="evenodd"/><path d="M467 1220 766 1220 766 1249C766 1265.02 753.016 1278 737 1278L438 1278 438 1249C438 1232.98 450.984 1220 467 1220Z" fill="#A7B0BC" fill-rule="evenodd"/><path d="M858 1221 1550 1221 1550 1250C1550 1266.02 1537.02 1279 1521 1279L829 1279 829 1250C829 1233.98 841.984 1221 858 1221Z" fill="#A7B0BC" fill-rule="evenodd"/><path d="M1216 1312 1515 1312 1515 1341C1515 1357.02 1502.02 1370 1486 1370L1187 1370 1187 1341C1187 1324.98 1199.98 1312 1216 1312Z" fill="#A7B0BC" fill-rule="evenodd"/><path d="M427 1312 1119 1312 1119 1341C1119 1357.02 1106.02 1370 1090 1370L398 1370 398 1341C398 1324.98 410.984 1312 427 1312Z" fill="#A7B0BC" fill-rule="evenodd"/></g></svg>