<svg width="1434" height="1190" xmlns="http://www.w3.org/2000/svg" xmlns:xlink="http://www.w3.org/1999/xlink" xml:space="preserve" overflow="hidden"><defs><clipPath id="clip0"><rect x="1952" y="166" width="1434" height="1190"/></clipPath></defs><g clip-path="url(#clip0)" transform="translate(-1952 -166)"><path d="M2793.39 166.791C2950.66 166.772 3083.49 252.16 3126.14 369.267L3130.52 383.727 3133.37 387.715C3138.35 395.167 3143.17 402.88 3147.81 410.839L3160.08 433.504 3175.8 436.104C3231.09 447.759 3280.92 476.125 3317.25 521.009 3335.05 542.993 3348.34 567.378 3357.3 593.227L3364.07 616.914 3366.5 622.092C3391.01 681.815 3392.57 759.347 3365.38 835.657 3349.43 880.435 3325.57 919.195 3297.13 949.72L3280.27 965.96 3275.14 972.716C3247.9 1001.44 3203.52 1024.64 3150.35 1036.24L3141.22 1037.66 3139.18 1038.31C3126.77 1041.4 3113.74 1043.8 3100.24 1045.43L3059.34 1047.85 3050.3 1049.25 3037.27 1049.71 3036.89 1049.97C3035.61 1050.51 3034.2 1050.81 3032.73 1050.81L2871.9 1050.77 2870.53 1050.49 2809.31 1050.5 2786.89 1072.46C2768.73 1087.81 2746.93 1101.8 2722.34 1113.46L2704.79 1120.51 2687.75 1129.54C2648.59 1147.5 2602.62 1157.84 2553.46 1157.85 2481.95 1157.86 2417.21 1135.99 2370.35 1100.63L2355.53 1087.08 2353.4 1085.33 2352.39 1084.21 2338.73 1071.71C2334.07 1066.51 2329.74 1061.14 2325.76 1055.6L2322.7 1050.81 2248.63 1050.82 2238.06 1052.72 2220.15 1053.67 2219.9 1053.72C2191.29 1057.54 2159.54 1054.37 2128.14 1043.11 2101.97 1033.73 2079.13 1019.85 2060.79 1003.23L2054.81 996.566 2050.71 993.766C2024.54 972.284 2000.58 938.016 1985.05 896.055L1984.79 895.211 1984.68 895.018C1979.84 885.569 1975.43 875.559 1971.54 865.069 1967.66 854.578 1964.49 844.104 1962 833.769L1957.02 805.736 1956.33 802.863C1952.94 783.166 1951.81 761.697 1953.39 739.358L1956.69 713.922 1956.72 710.895C1959.09 677.387 1967.21 646.681 1979.18 621.584L1985.23 610.964 1986.16 608.249C2003.53 570.06 2031.35 540.085 2068.24 524.061 2074.39 521.391 2080.64 519.171 2086.98 517.388L2094.06 515.896 2094.34 515.138C2162.17 357.016 2323.75 269.772 2469.51 318.271L2483.11 323.686 2488.13 315.181C2546.92 226.808 2661.58 166.807 2793.39 166.791Z" fill="#223552" fill-rule="evenodd"/><path d="M2292.99 1348.27C2289.44 1354.58 2278.56 1354.58 2275.01 1348.27L2200.93 1216.6C2197.89 1211.19 2202.68 1205 2209.92 1205L2358.08 1205C2365.32 1205 2370.11 1211.19 2367.07 1216.6L2292.99 1348.27Z" fill="#A7B0BC" fill-rule="evenodd"/><path d="M2718.77 1225.01 2658.07 1335.81C2648.28 1353.68 2625.86 1360.23 2607.99 1350.44L2575.63 1332.72 2636.33 1221.92C2646.12 1204.05 2668.54 1197.5 2686.41 1207.28L2718.77 1225.01Z" fill="#5F96CD" fill-rule="evenodd"/><path d="M3070.95 1224.63 3010.25 1335.43C3000.46 1353.3 2978.04 1359.85 2960.17 1350.06L2927.81 1332.33 2988.51 1221.53C2998.3 1203.66 3020.72 1197.11 3038.59 1206.9L3070.95 1224.63Z" fill="#5F96CD" fill-rule="evenodd"/><path d="M2543.25 1225.67 2482.55 1336.47C2472.76 1354.34 2450.33 1360.89 2432.46 1351.1L2400.11 1333.38 2460.81 1222.57C2470.6 1204.7 2493.02 1198.15 2510.89 1207.94L2543.25 1225.67Z" fill="#5F96CD" fill-rule="evenodd"/><path d="M2894.9 1225.67 2834.2 1336.47C2824.41 1354.34 2801.99 1360.89 2784.12 1351.1L2751.76 1333.38 2812.46 1222.57C2822.25 1204.7 2844.67 1198.15 2862.54 1207.94L2894.9 1225.67Z" fill="#5F96CD" fill-rule="evenodd"/></g></svg>