<svg width="1433" height="1183" xmlns="http://www.w3.org/2000/svg" xmlns:xlink="http://www.w3.org/1999/xlink" xml:space="preserve" overflow="hidden"><defs><clipPath id="clip0"><rect x="277" y="187" width="1433" height="1183"/></clipPath></defs><g clip-path="url(#clip0)" transform="translate(-277 -187)"><path d="M1118 187.946C1275.27 187.927 1408.11 273.315 1450.76 390.422L1455.13 404.881 1457.98 408.869C1462.97 416.322 1467.79 424.034 1472.42 431.993L1484.7 454.658 1500.41 457.259C1555.7 468.914 1605.54 497.28 1641.87 542.163 1659.66 564.148 1672.96 588.533 1681.92 614.381L1688.69 638.069 1691.12 643.246C1715.63 702.969 1717.19 780.502 1690 856.811 1674.04 901.589 1650.18 940.35 1621.75 970.875L1604.88 987.115 1599.75 993.87C1572.52 1022.6 1528.14 1045.8 1474.97 1057.4L1465.84 1058.81 1463.8 1059.47C1451.39 1062.56 1438.36 1064.96 1424.85 1066.58L1383.95 1069 1374.92 1070.41 1361.88 1070.87 1361.5 1071.13C1360.22 1071.67 1358.82 1071.97 1357.35 1071.97L1196.52 1071.93 1195.14 1071.65 1133.93 1071.66 1111.51 1093.62C1093.35 1108.96 1071.55 1122.95 1046.96 1134.61L1029.41 1141.67 1012.36 1150.7C973.207 1168.65 927.24 1179 878.076 1179 806.563 1179.01 741.822 1157.15 694.962 1121.79L680.149 1108.24 678.016 1106.48 677.007 1105.36 663.343 1092.87C658.689 1087.67 654.359 1082.29 650.373 1076.75L647.314 1071.96 573.243 1071.97 562.679 1073.87 544.764 1074.82 544.518 1074.88C515.907 1078.69 484.157 1075.52 452.752 1064.27 426.581 1054.89 403.746 1041 385.408 1024.39L379.427 1017.72 375.33 1014.92C349.156 993.438 325.199 959.171 309.665 917.21L309.407 916.365 309.293 916.172C304.454 906.723 300.044 896.714 296.16 886.224 292.276 875.733 289.103 865.259 286.618 854.924L281.639 826.891 280.95 824.017C277.556 804.321 276.425 782.851 278.002 760.513L281.304 735.077 281.339 732.049C283.705 698.541 291.827 667.836 303.796 642.739L309.849 632.119 310.773 629.403C328.149 591.215 355.966 561.24 392.852 545.215 399.001 542.545 405.255 540.325 411.592 538.542L418.674 537.05 418.96 536.292C486.79 378.171 648.363 290.926 794.13 339.426L807.725 344.84 812.744 336.336C871.538 247.962 986.195 187.961 1118 187.946Z" fill="#223552" fill-rule="evenodd"/><path d="M749 1221 1550 1221 1550 1250C1550 1266.02 1537.02 1279 1521 1279L720 1279 720 1250C720 1233.98 732.984 1221 749 1221Z" fill="#A7B0BC" fill-rule="evenodd"/><path d="M698.999 1312 1488 1312 1488 1341C1488 1357.02 1475.02 1370 1459 1370L670 1370 670 1341C670 1324.98 682.983 1312 698.999 1312Z" fill="#A7B0BC" fill-rule="evenodd"/><path d="M599.439 1365.27C595.911 1371.58 585.09 1371.58 581.561 1365.27L507.925 1233.6C504.898 1228.19 509.667 1222 516.865 1222L664.136 1222C671.333 1222 676.102 1228.19 673.075 1233.6L599.439 1365.27Z" fill="#A7B0BC" fill-rule="evenodd"/></g></svg>