<svg width="530" height="570" xmlns="http://www.w3.org/2000/svg" xmlns:xlink="http://www.w3.org/1999/xlink" xml:space="preserve" overflow="hidden"><defs><clipPath id="clip0"><rect x="596" y="1637" width="530" height="570"/></clipPath></defs><g clip-path="url(#clip0)" transform="translate(-596 -1637)"><path d="M906.744 1637.75C964.777 1637.74 1013.79 1669.25 1029.53 1712.46L1031.14 1717.79 1032.2 1719.27C1034.04 1722.02 1035.81 1724.86 1037.52 1727.8L1042.05 1736.16 1047.85 1737.12C1068.26 1741.42 1086.64 1751.89 1100.05 1768.45 1106.62 1776.56 1111.52 1785.56 1114.83 1795.1L1117.33 1803.84 1118.22 1805.75C1127.27 1827.79 1127.84 1856.4 1117.81 1884.56 1111.92 1901.08 1103.12 1915.38 1092.62 1926.65L1086.4 1932.64 1084.51 1935.13C1074.46 1945.73 1058.08 1954.29 1038.46 1958.57L1035.1 1959.09 1034.34 1959.34C1029.76 1960.48 1024.96 1961.36 1019.97 1961.96L1004.88 1962.85 1001.54 1963.37 996.736 1963.54 996.595 1963.64C996.124 1963.84 995.606 1963.95 995.062 1963.95L935.716 1963.93 935.21 1963.83 912.621 1963.83 904.348 1971.94C897.647 1977.6 889.603 1982.76 880.528 1987.06L874.052 1989.67 867.764 1993C853.315 1999.63 836.353 2003.44 818.212 2003.44 791.823 2003.45 767.934 1995.38 750.643 1982.33L745.177 1977.33 744.39 1976.68 744.018 1976.27 738.976 1971.66C737.258 1969.74 735.66 1967.76 734.19 1965.71L733.061 1963.95 705.729 1963.95 701.831 1964.65 695.22 1965 695.129 1965.02C684.572 1966.43 672.856 1965.26 661.268 1961.11 651.611 1957.65 643.185 1952.52 636.418 1946.39L634.211 1943.93 632.699 1942.9C623.041 1934.97 614.201 1922.33 608.469 1906.84L608.374 1906.53 608.332 1906.46C606.546 1902.97 604.919 1899.28 603.486 1895.41 602.052 1891.54 600.881 1887.67 599.964 1883.86L598.128 1873.52 597.873 1872.45C596.621 1865.19 596.203 1857.26 596.785 1849.02L598.004 1839.64 598.017 1838.52C598.89 1826.15 601.887 1814.82 606.303 1805.56L608.537 1801.64 608.878 1800.64C615.29 1786.55 625.554 1775.49 639.165 1769.58 641.434 1768.59 643.741 1767.77 646.08 1767.12L648.693 1766.56 648.799 1766.28C673.828 1707.94 733.448 1675.75 787.236 1693.64L792.252 1695.64 794.104 1692.5C815.799 1659.89 858.107 1637.75 906.744 1637.75Z" fill="#223552" fill-rule="evenodd"/><path d="M757.528 2023.82C760.674 2024.48 763.57 2026.34 765.459 2029.25 769.254 2035.07 767.605 2042.84 761.792 2046.63L669.728 2106.62C663.915 2110.41 656.135 2108.77 652.353 2102.96 648.568 2097.16 650.204 2089.38 656.021 2085.58L748.084 2025.58C750.985 2023.69 754.382 2023.16 757.528 2023.82Z" fill="#A7B0BC" fill-rule="evenodd"/><path d="M681.496 2007.79C684.642 2008.45 687.538 2010.3 689.428 2013.22L749.428 2105.28C753.21 2111.09 751.573 2118.87 745.76 2122.66 739.958 2126.44 732.166 2124.8 728.381 2119L668.385 2026.93C664.6 2021.12 666.239 2013.33 672.052 2009.55 674.953 2007.66 678.35 2007.13 681.496 2007.79Z" fill="#A7B0BC" fill-rule="evenodd"/><path d="M650.012 2041.05C650.012 2041.05 650.012 2041.05 650.012 2041.05L772.921 2066.87C779.705 2068.3 784.048 2074.99 782.621 2081.77 781.181 2088.55 774.527 2092.91 767.743 2091.49 767.731 2091.48 767.731 2091.48 767.731 2091.48L644.855 2065.51C638.074 2064.07 633.71 2057.48 635.152 2050.69 636.579 2043.9 643.228 2039.63 650.012 2041.05Z" fill="#A7B0BC" fill-rule="evenodd"/><path d="M724.414 1992.53C724.414 1992.53 724.414 1992.53 724.426 1992.54 731.21 1993.96 735.561 2000.55 734.134 2007.34L708.212 2130.26C706.785 2137.05 700.113 2141.43 693.329 2140 693.329 2140 693.329 2140 693.329 2140 686.533 2138.57 682.216 2131.83 683.643 2125.04L709.549 2002.19C710.976 1995.41 717.63 1991.11 724.414 1992.53Z" fill="#A7B0BC" fill-rule="evenodd"/><path d="M1028.24 2003.3 924.365 2192.92C917.471 2205.51 901.678 2210.12 889.092 2203.23L866.304 2190.74 970.182 2001.12C977.077 1988.54 992.869 1983.92 1005.46 1990.82L1028.24 2003.3Z" fill="#5F96CD" fill-rule="evenodd"/><path d="M901.575 2043.47 835.233 2164.57C828.338 2177.16 812.546 2181.77 799.96 2174.88L777.171 2162.39 843.513 2041.29C850.408 2028.7 866.201 2024.09 878.786 2030.98L901.575 2043.47Z" fill="#5F96CD" fill-rule="evenodd"/></g></svg>