<svg width="530" height="499" xmlns="http://www.w3.org/2000/svg" xmlns:xlink="http://www.w3.org/1999/xlink" overflow="hidden"><defs><clipPath id="clip0"><rect x="576" y="85" width="530" height="499"/></clipPath></defs><g clip-path="url(#clip0)" transform="translate(-576 -85)"><path d="M854.122 490.496 809.517 571.918C804.798 580.531 793.991 583.689 785.377 578.97L769.781 570.426 814.386 489.004C819.104 480.39 829.912 477.233 838.526 481.952L854.122 490.496Z" fill="#5F96CD" fill-rule="evenodd"/><path d="M886.711 85.1297C944.744 85.1227 993.759 116.631 1009.5 159.843L1011.11 165.179 1012.16 166.65C1014 169.4 1015.78 172.246 1017.49 175.183L1022.02 183.546 1027.82 184.506C1048.22 188.806 1066.61 199.274 1080.02 215.836 1086.58 223.948 1091.49 232.946 1094.79 242.484L1097.29 251.225 1098.19 253.135C1107.23 275.173 1107.81 303.782 1097.78 331.94 1091.89 348.463 1083.08 362.766 1072.59 374.03L1066.37 380.022 1064.48 382.515C1054.43 393.116 1038.05 401.675 1018.43 405.956L1015.06 406.479 1014.31 406.72C1009.73 407.86 1004.92 408.746 999.938 409.345L984.846 410.238 981.512 410.756 976.703 410.927 976.562 411.022C976.09 411.222 975.572 411.332 975.029 411.332L915.683 411.317 915.177 411.215 892.588 411.217 884.315 419.321C877.614 424.983 869.569 430.145 860.495 434.449L854.019 437.051 847.731 440.383C833.282 447.01 816.32 450.827 798.178 450.829 771.79 450.832 747.901 442.764 730.61 429.716L725.144 424.716 724.357 424.068 723.984 423.656 718.942 419.044C717.225 417.126 715.627 415.143 714.156 413.099L713.028 411.331 685.696 411.334 681.797 412.035 675.187 412.386 675.096 412.406C664.539 413.813 652.823 412.645 641.234 408.492 631.578 405.031 623.151 399.906 616.385 393.776L614.178 391.315 612.666 390.282C603.008 382.355 594.168 369.711 588.436 354.227L588.34 353.916 588.298 353.844C586.513 350.358 584.885 346.664 583.452 342.793 582.019 338.922 580.848 335.057 579.931 331.244L578.094 320.9 577.84 319.839C576.588 312.571 576.17 304.649 576.752 296.406L577.97 287.02 577.984 285.903C578.857 273.539 581.854 262.208 586.27 252.948L588.503 249.029 588.844 248.027C595.256 233.935 605.521 222.875 619.132 216.962 621.4 215.976 623.708 215.157 626.047 214.499L628.66 213.949 628.766 213.669C653.794 155.322 713.415 123.129 767.203 141.026L772.219 143.024 774.071 139.885C795.766 107.276 838.074 85.1354 886.711 85.1297Z" fill="#223552" fill-rule="evenodd"/><path d="M756.936 490.247 712.903 570.627C708.253 579.115 697.602 582.226 689.114 577.576L673.745 569.157 717.778 488.777C722.428 480.289 733.079 477.178 741.567 481.828L756.936 490.247Z" fill="#5F96CD" fill-rule="evenodd"/><path d="M955.947 487.001 908.323 573.936C903.473 582.789 892.363 586.035 883.51 581.185L867.479 572.402 915.103 485.468C919.953 476.615 931.062 473.369 939.916 478.219L955.947 487.001Z" fill="#5F96CD" fill-rule="evenodd"/></g></svg>