<svg width="529" height="556" xmlns="http://www.w3.org/2000/svg" xmlns:xlink="http://www.w3.org/1999/xlink" xml:space="preserve" overflow="hidden"><defs><clipPath id="clip0"><rect x="18" y="1636" width="529" height="556"/></clipPath></defs><g clip-path="url(#clip0)" transform="translate(-18 -1636)"><path d="M304.931 2054.11 238.588 2175.21C231.693 2187.79 215.901 2192.41 203.315 2185.51L180.526 2173.03 246.869 2051.93C253.764 2039.34 269.556 2034.73 282.142 2041.62L304.931 2054.11Z" fill="#5F96CD" fill-rule="evenodd"/><path d="M435.444 1996.07 335.763 2178.03C328.868 2190.61 313.076 2195.22 300.49 2188.33L277.702 2175.85 377.382 1993.89C384.277 1981.3 400.069 1976.69 412.655 1983.58L435.444 1996.07Z" fill="#5F96CD" fill-rule="evenodd"/><path d="M328.546 1636.71C386.578 1636.7 435.594 1668.21 451.331 1711.42L452.946 1716.76 453.998 1718.23C455.837 1720.98 457.616 1723.82 459.326 1726.76L463.855 1735.12 469.654 1736.08C490.056 1740.38 508.445 1750.85 521.851 1767.41 528.418 1775.53 533.323 1784.52 536.629 1794.06L539.128 1802.8 540.024 1804.71C549.069 1826.75 549.645 1855.36 539.611 1883.52 533.724 1900.04 524.919 1914.34 514.426 1925.61L508.204 1931.6 506.311 1934.09C496.262 1944.69 479.884 1953.25 460.265 1957.53L456.897 1958.06 456.144 1958.3C451.564 1959.44 446.757 1960.32 441.773 1960.92L426.68 1961.82 423.346 1962.33 418.537 1962.5 418.396 1962.6C417.925 1962.8 417.407 1962.91 416.863 1962.91L357.517 1962.9 357.011 1962.79 334.422 1962.8 326.15 1970.9C319.448 1976.56 311.404 1981.72 302.329 1986.03L295.854 1988.63 289.565 1991.96C275.116 1998.59 258.155 2002.4 240.013 2002.41 213.625 2002.41 189.735 1994.34 172.444 1981.29L166.978 1976.29 166.191 1975.65 165.819 1975.23 160.777 1970.62C159.06 1968.7 157.462 1966.72 155.991 1964.68L154.862 1962.91 127.53 1962.91 123.632 1963.61 117.021 1963.96 116.931 1963.98C106.373 1965.39 94.6576 1964.22 83.0688 1960.07 73.412 1956.61 64.9859 1951.48 58.2191 1945.35L56.0122 1942.89 54.5004 1941.86C44.8421 1933.93 36.0024 1921.29 30.2701 1905.8L30.1749 1905.49 30.1329 1905.42C28.3472 1901.94 26.72 1898.24 25.2868 1894.37 23.8536 1890.5 22.6827 1886.64 21.7658 1882.82L19.9288 1872.48 19.6745 1871.42C18.422 1864.15 18.0047 1856.23 18.5867 1847.98L19.8049 1838.6 19.8181 1837.48C20.6911 1825.12 23.688 1813.79 28.1045 1804.53L30.3379 1800.61 30.679 1799.6C37.0909 1785.51 47.3551 1774.45 60.9662 1768.54 63.2348 1767.55 65.5426 1766.74 67.881 1766.08L70.4943 1765.53 70.6 1765.25C95.6289 1706.9 155.249 1674.71 209.037 1692.6L214.054 1694.6 215.906 1691.46C237.6 1658.85 279.909 1636.71 328.546 1636.71Z" fill="#223552" fill-rule="evenodd"/><path d="M213.61 2049.95 147.267 2171.06C140.373 2183.64 124.58 2188.26 111.994 2181.36L89.2058 2168.88 155.548 2047.77C162.443 2035.19 178.235 2030.57 190.821 2037.47L213.61 2049.95Z" fill="#5F96CD" fill-rule="evenodd"/></g></svg>