<svg width="529" height="525" xmlns="http://www.w3.org/2000/svg" xmlns:xlink="http://www.w3.org/1999/xlink" xml:space="preserve" overflow="hidden"><defs><clipPath id="clip0"><rect x="32" y="862" width="529" height="525"/></clipPath></defs><g clip-path="url(#clip0)" transform="translate(-32 -862)"><path d="M425.232 1251.25C428.378 1251.91 431.274 1253.76 433.163 1256.68 436.958 1262.49 435.309 1270.27 429.496 1274.05L337.432 1334.05C331.618 1337.83 323.839 1336.2 320.057 1330.38 316.272 1324.58 317.908 1316.8 323.725 1313.01L415.788 1253.01C418.689 1251.12 422.086 1250.59 425.232 1251.25Z" fill="#A7B0BC" fill-rule="evenodd"/><path d="M349.2 1235.22C352.346 1235.88 355.242 1237.73 357.132 1240.64L417.132 1332.71C420.914 1338.52 419.277 1346.3 413.464 1350.08 407.662 1353.87 399.87 1352.23 396.085 1346.43L336.089 1254.35C332.304 1248.55 333.943 1240.76 339.756 1236.98 342.657 1235.08 346.054 1234.55 349.2 1235.22Z" fill="#A7B0BC" fill-rule="evenodd"/><path d="M317.716 1268.48C317.716 1268.48 317.716 1268.48 317.716 1268.48L440.625 1294.3C447.409 1295.72 451.752 1302.41 450.325 1309.2 448.885 1315.98 442.231 1320.34 435.447 1318.91 435.435 1318.91 435.435 1318.91 435.435 1318.91L312.559 1292.94C305.778 1291.5 301.414 1284.91 302.856 1278.11 304.283 1271.33 310.932 1267.05 317.716 1268.48Z" fill="#A7B0BC" fill-rule="evenodd"/><path d="M392.118 1219.96C392.118 1219.96 392.118 1219.96 392.13 1219.96 398.914 1221.39 403.265 1227.98 401.838 1234.76L375.916 1357.69C374.489 1364.47 367.817 1368.86 361.033 1367.43 361.033 1367.43 361.033 1367.43 361.033 1367.43 354.237 1366 349.92 1359.25 351.347 1352.47L377.253 1229.62C378.68 1222.83 385.334 1218.53 392.118 1219.96Z" fill="#A7B0BC" fill-rule="evenodd"/><path d="M342.531 862.184C400.563 862.177 449.579 893.685 465.316 936.897L466.931 942.233 467.983 943.704C469.822 946.454 471.601 949.3 473.311 952.237L477.84 960.6 483.639 961.56C504.041 965.86 522.43 976.328 535.836 992.89 542.403 1001 547.308 1010 550.614 1019.54L553.113 1028.28 554.009 1030.19C563.053 1052.23 563.63 1080.84 553.596 1108.99 547.709 1125.52 538.904 1139.82 528.411 1151.08L522.189 1157.08 520.296 1159.57C510.247 1170.17 493.869 1178.73 474.25 1183.01L470.882 1183.53 470.129 1183.77C465.549 1184.91 460.742 1185.8 455.757 1186.4L440.665 1187.29 437.331 1187.81 432.522 1187.98 432.381 1188.08C431.91 1188.28 431.392 1188.39 430.848 1188.39L371.502 1188.37 370.996 1188.27 348.407 1188.27 340.135 1196.38C333.433 1202.04 325.389 1207.2 316.314 1211.5L309.839 1214.11 303.55 1217.44C289.101 1224.06 272.14 1227.88 253.998 1227.88 227.61 1227.89 203.72 1219.82 186.429 1206.77L180.963 1201.77 180.176 1201.12 179.804 1200.71 174.762 1196.1C173.044 1194.18 171.447 1192.2 169.976 1190.15L168.847 1188.39 141.515 1188.39 137.617 1189.09 131.006 1189.44 130.916 1189.46C120.358 1190.87 108.643 1189.7 97.0537 1185.55 87.3969 1182.08 78.9708 1176.96 72.204 1170.83L69.9971 1168.37 68.4854 1167.34C58.827 1159.41 49.9873 1146.76 44.255 1131.28L44.1598 1130.97 44.1179 1130.9C42.3321 1127.41 40.7049 1123.72 39.2718 1119.85 37.8386 1115.98 36.6677 1112.11 35.7507 1108.3L33.9137 1097.95 33.6594 1096.89C32.4069 1089.63 31.9896 1081.7 32.5716 1073.46L33.7899 1064.07 33.803 1062.96C34.676 1050.59 37.673 1039.26 42.0894 1030L44.3228 1026.08 44.6639 1025.08C51.0758 1010.99 61.3401 999.929 74.9511 994.016 77.2198 993.03 79.5275 992.211 81.866 991.553L84.4792 991.003 84.585 990.723C109.614 932.376 169.234 900.183 223.022 918.08L228.039 920.078 229.89 916.939C251.585 884.33 293.894 862.189 342.531 862.184Z" fill="#223552" fill-rule="evenodd"/><path d="M256.348 1270.51C259.494 1271.17 262.39 1273.02 264.279 1275.94 268.074 1281.75 266.425 1289.53 260.612 1293.31L168.548 1353.31C162.734 1357.09 154.955 1355.46 151.173 1349.64 147.388 1343.84 149.024 1336.06 154.841 1332.27L246.903 1272.27C249.805 1270.38 253.201 1269.84 256.348 1270.51Z" fill="#A7B0BC" fill-rule="evenodd"/><path d="M180.316 1254.48C183.462 1255.14 186.358 1256.99 188.247 1259.9L248.247 1351.97C252.03 1357.78 250.393 1365.56 244.579 1369.34 238.778 1373.13 230.986 1371.49 227.201 1365.69L167.204 1273.61C163.419 1267.81 165.058 1260.02 170.872 1256.24 173.773 1254.34 177.17 1253.81 180.316 1254.48Z" fill="#A7B0BC" fill-rule="evenodd"/><path d="M148.832 1287.74C148.832 1287.74 148.832 1287.74 148.832 1287.74L271.741 1313.56C278.525 1314.98 282.868 1321.67 281.441 1328.46 280.001 1335.24 273.347 1339.6 266.563 1338.17 266.55 1338.17 266.55 1338.17 266.55 1338.17L143.675 1312.19C136.893 1310.76 132.53 1304.16 133.972 1297.37 135.399 1290.59 142.048 1286.31 148.832 1287.74Z" fill="#A7B0BC" fill-rule="evenodd"/><path d="M223.233 1239.22C223.233 1239.22 223.233 1239.22 223.246 1239.22 230.03 1240.65 234.381 1247.24 232.954 1254.02L207.032 1376.95C205.605 1383.73 198.933 1388.12 192.149 1386.69 192.149 1386.69 192.149 1386.69 192.149 1386.69 185.353 1385.26 181.035 1378.51 182.462 1371.73L208.369 1248.88C209.796 1242.09 216.45 1237.79 223.233 1239.22Z" fill="#A7B0BC" fill-rule="evenodd"/></g></svg>